<svg width="454" height="84" viewBox="0 0 454 84" fill="none" xmlns="http://www.w3.org/2000/svg">
<g filter="url(#filter0_d_59_276)">
<path d="M67 65.625L43.75 68.625L40.9375 58.0312H30.25L27.9062 68.625L4 66.2812L22.6562 3.84375L48.7188 2.53125L67 65.625ZM39.25 43.6875L35.6875 27.375L32.2188 43.6875H39.25ZM122.547 52.9688C122.547 55.5625 122.062 57.7969 121.094 59.6719C120.156 61.5469 118.891 63.1406 117.297 64.4531C115.703 65.7656 113.859 66.8438 111.766 67.6875C109.703 68.5 107.547 69.1406 105.297 69.6094C103.047 70.0781 100.781 70.3906 98.5 70.5469C96.25 70.7031 94.1406 70.7812 92.1719 70.7812C90.2344 70.7812 88.2188 70.7031 86.125 70.5469C84.0625 70.4219 82 70.1875 79.9375 69.8438C77.875 69.5 75.8438 69.0469 73.8438 68.4844C71.8438 67.8906 69.9531 67.1562 68.1719 66.2812L68.0781 5.90625C69.8281 5.1875 71.6875 4.54688 73.6562 3.98438C75.625 3.39062 77.625 2.90625 79.6562 2.53125C81.7188 2.125 83.7656 1.82812 85.7969 1.64062C87.8281 1.42187 89.7969 1.3125 91.7031 1.3125C93.9219 1.3125 96.1562 1.45312 98.4062 1.73438C100.688 2.01562 102.875 2.48438 104.969 3.14062C107.062 3.79688 109.016 4.65625 110.828 5.71875C112.641 6.75 114.219 8.03125 115.562 9.5625C116.938 11.0938 118 12.875 118.75 14.9062C119.531 16.9375 119.922 19.2812 119.922 21.9375C119.922 23.6875 119.672 25.3281 119.172 26.8594C118.672 28.3906 117.953 29.7656 117.016 30.9844C116.078 32.2031 114.938 33.25 113.594 34.125C112.25 34.9688 110.734 35.5938 109.047 36C111.078 36.5312 112.922 37.3125 114.578 38.3438C116.266 39.375 117.688 40.625 118.844 42.0938C120.031 43.5625 120.938 45.2188 121.562 47.0625C122.219 48.9062 122.547 50.875 122.547 52.9688ZM98.7344 26.25C98.7344 25.3438 98.5469 24.5781 98.1719 23.9531C97.7969 23.2969 97.3281 22.7656 96.7656 22.3594C96.2344 21.9531 95.6406 21.6562 94.9844 21.4688C94.3594 21.2812 93.7969 21.1875 93.2969 21.1875C92.6719 21.1875 92.0625 21.2812 91.4688 21.4688C90.875 21.6562 90.2969 21.875 89.7344 22.125L89.4531 32.5312C90.1719 32.5312 91.0625 32.4688 92.125 32.3438C93.1875 32.2188 94.2031 31.9531 95.1719 31.5469C96.1719 31.1094 97.0156 30.4844 97.7031 29.6719C98.3906 28.8281 98.7344 27.6875 98.7344 26.25ZM92.0781 41.5312C91.1719 41.5312 90.2969 41.625 89.4531 41.8125L89.2656 52.5C89.7344 52.5938 90.1875 52.6875 90.625 52.7812C91.0938 52.8438 91.5469 52.875 91.9844 52.875C92.6406 52.875 93.3594 52.8125 94.1406 52.6875C94.9219 52.5312 95.6562 52.25 96.3438 51.8438C97.0312 51.4062 97.5938 50.8281 98.0312 50.1094C98.5 49.3906 98.7344 48.4375 98.7344 47.25C98.7344 46.0625 98.5 45.0938 98.0312 44.3438C97.5938 43.5938 97.0469 43.0156 96.3906 42.6094C95.7344 42.1719 95.0156 41.8906 94.2344 41.7656C93.4531 41.6094 92.7344 41.5312 92.0781 41.5312ZM182.078 36.5625C182.078 39.4062 181.75 42.1562 181.094 44.8125C180.438 47.4375 179.484 49.9062 178.234 52.2188C177.016 54.5312 175.516 56.6562 173.734 58.5938C171.984 60.5 170 62.1406 167.781 63.5156C165.594 64.8906 163.203 65.9688 160.609 66.75C158.016 67.5 155.266 67.875 152.359 67.875C149.547 67.875 146.859 67.5156 144.297 66.7969C141.766 66.0781 139.391 65.0781 137.172 63.7969C134.953 62.4844 132.938 60.9219 131.125 59.1094C129.344 57.2656 127.812 55.2344 126.531 53.0156C125.281 50.7656 124.297 48.3594 123.578 45.7969C122.891 43.2344 122.547 40.5625 122.547 37.7812C122.547 35.0625 122.875 32.4062 123.531 29.8125C124.188 27.1875 125.125 24.7188 126.344 22.4062C127.594 20.0938 129.094 17.9687 130.844 16.0312C132.594 14.0938 134.547 12.4219 136.703 11.0156C138.891 9.60938 141.25 8.51563 143.781 7.73438C146.312 6.95312 148.984 6.5625 151.797 6.5625C156.328 6.5625 160.453 7.26562 164.172 8.67188C167.922 10.0781 171.109 12.0938 173.734 14.7188C176.391 17.3125 178.438 20.4688 179.875 24.1875C181.344 27.875 182.078 32 182.078 36.5625ZM161.266 37.7812C161.266 36.4375 161.062 35.1406 160.656 33.8906C160.281 32.6094 159.719 31.4844 158.969 30.5156C158.219 29.5156 157.281 28.7188 156.156 28.125C155.062 27.5 153.797 27.1875 152.359 27.1875C150.891 27.1875 149.578 27.4531 148.422 27.9844C147.266 28.5156 146.266 29.25 145.422 30.1875C144.609 31.0938 143.984 32.1719 143.547 33.4219C143.109 34.6406 142.891 35.9375 142.891 37.3125C142.891 38.625 143.078 39.9375 143.453 41.25C143.828 42.5625 144.391 43.75 145.141 44.8125C145.891 45.875 146.812 46.7344 147.906 47.3906C149.031 48.0469 150.328 48.375 151.797 48.375C153.266 48.375 154.578 48.0938 155.734 47.5312C156.922 46.9375 157.922 46.1562 158.734 45.1875C159.547 44.1875 160.172 43.0469 160.609 41.7656C161.047 40.4844 161.266 39.1562 161.266 37.7812ZM241.422 17.5312C241.422 19.8437 241.312 22.3906 241.094 25.1719C240.875 27.9531 240.516 30.8281 240.016 33.7969C239.516 36.7656 238.859 39.7812 238.047 42.8438C237.266 45.875 236.281 48.7969 235.094 51.6094C233.906 54.4219 232.516 57.0625 230.922 59.5312C229.359 61.9688 227.547 64.1094 225.484 65.9531C223.453 67.7656 221.172 69.1875 218.641 70.2188C216.109 71.2812 213.297 71.8125 210.203 71.8125C206.578 71.8125 203.422 71.2188 200.734 70.0312C198.078 68.875 195.797 67.3125 193.891 65.3438C191.984 63.3438 190.422 61.0312 189.203 58.4062C187.984 55.75 187.031 52.9531 186.344 50.0156C185.656 47.0469 185.172 44.0312 184.891 40.9688C184.641 37.875 184.516 34.9062 184.516 32.0625C184.516 27.6875 184.734 23.3281 185.172 18.9844C185.609 14.6094 186.234 10.25 187.047 5.90625L208.984 6.75C208.141 11.6563 207.406 16.5938 206.781 21.5625C206.188 26.5 205.891 31.4688 205.891 36.4688C205.891 37 205.906 37.7969 205.938 38.8594C206 39.8906 206.094 41.0625 206.219 42.375C206.344 43.6562 206.516 44.9844 206.734 46.3594C206.984 47.7031 207.312 48.9375 207.719 50.0625C208.125 51.1875 208.609 52.1094 209.172 52.8281C209.766 53.5469 210.453 53.9062 211.234 53.9062C212.141 53.9062 212.953 53.4844 213.672 52.6406C214.391 51.7656 215.016 50.6094 215.547 49.1719C216.109 47.7344 216.594 46.0781 217 44.2031C217.406 42.3281 217.75 40.375 218.031 38.3438C218.312 36.3125 218.531 34.2812 218.688 32.25C218.875 30.2188 219.016 28.3281 219.109 26.5781C219.234 24.8281 219.312 23.2812 219.344 21.9375C219.375 20.5937 219.391 19.5938 219.391 18.9375C219.391 16.5 219.344 14.0781 219.25 11.6719C219.188 9.23438 219.078 6.8125 218.922 4.40625H240.859C241.234 8.71875 241.422 13.0937 241.422 17.5312ZM294.719 2.625L294.25 22.5L280.281 23.0625L276.719 67.5L256.938 68.5312L257.031 24.0938L243.062 24.8438L243.625 2.71875L294.719 2.625ZM372.109 17.5312C372.109 19.8437 372 22.3906 371.781 25.1719C371.562 27.9531 371.203 30.8281 370.703 33.7969C370.203 36.7656 369.547 39.7812 368.734 42.8438C367.953 45.875 366.969 48.7969 365.781 51.6094C364.594 54.4219 363.203 57.0625 361.609 59.5312C360.047 61.9688 358.234 64.1094 356.172 65.9531C354.141 67.7656 351.859 69.1875 349.328 70.2188C346.797 71.2812 343.984 71.8125 340.891 71.8125C337.266 71.8125 334.109 71.2188 331.422 70.0312C328.766 68.875 326.484 67.3125 324.578 65.3438C322.672 63.3438 321.109 61.0312 319.891 58.4062C318.672 55.75 317.719 52.9531 317.031 50.0156C316.344 47.0469 315.859 44.0312 315.578 40.9688C315.328 37.875 315.203 34.9062 315.203 32.0625C315.203 27.6875 315.422 23.3281 315.859 18.9844C316.297 14.6094 316.922 10.25 317.734 5.90625L339.672 6.75C338.828 11.6563 338.094 16.5938 337.469 21.5625C336.875 26.5 336.578 31.4688 336.578 36.4688C336.578 37 336.594 37.7969 336.625 38.8594C336.688 39.8906 336.781 41.0625 336.906 42.375C337.031 43.6562 337.203 44.9844 337.422 46.3594C337.672 47.7031 338 48.9375 338.406 50.0625C338.812 51.1875 339.297 52.1094 339.859 52.8281C340.453 53.5469 341.141 53.9062 341.922 53.9062C342.828 53.9062 343.641 53.4844 344.359 52.6406C345.078 51.7656 345.703 50.6094 346.234 49.1719C346.797 47.7344 347.281 46.0781 347.688 44.2031C348.094 42.3281 348.438 40.375 348.719 38.3438C349 36.3125 349.219 34.2812 349.375 32.25C349.562 30.2188 349.703 28.3281 349.797 26.5781C349.922 24.8281 350 23.2812 350.031 21.9375C350.062 20.5937 350.078 19.5938 350.078 18.9375C350.078 16.5 350.031 14.0781 349.938 11.6719C349.875 9.23438 349.766 6.8125 349.609 4.40625H371.547C371.922 8.71875 372.109 13.0937 372.109 17.5312ZM423.859 44.7188C423.859 49 423.109 52.75 421.609 55.9688C420.141 59.1562 418.109 61.8125 415.516 63.9375C412.953 66.0625 409.938 67.6562 406.469 68.7188C403.031 69.7812 399.328 70.3125 395.359 70.3125C393.828 70.3125 392.141 70.1094 390.297 69.7031C388.484 69.2969 386.641 68.7969 384.766 68.2031C382.891 67.5781 381.078 66.9219 379.328 66.2344C377.609 65.5156 376.078 64.8438 374.734 64.2188L376.797 44.9062C379.453 46.5 382.391 47.7188 385.609 48.5625C388.859 49.375 392.047 49.7812 395.172 49.7812C395.766 49.7812 396.484 49.7656 397.328 49.7344C398.172 49.6719 398.969 49.5312 399.719 49.3125C400.5 49.0625 401.156 48.7031 401.688 48.2344C402.219 47.7656 402.484 47.0938 402.484 46.2188C402.484 45.625 402.297 45.125 401.922 44.7188C401.547 44.2812 401.062 43.9375 400.469 43.6875C399.875 43.4062 399.203 43.2031 398.453 43.0781C397.703 42.9219 396.969 42.8125 396.25 42.75C395.531 42.6875 394.859 42.6562 394.234 42.6562C393.609 42.6562 393.109 42.6562 392.734 42.6562C390.047 42.6562 387.594 42.1875 385.375 41.25C383.188 40.3125 381.297 39.0156 379.703 37.3594C378.141 35.6719 376.922 33.6875 376.047 31.4062C375.172 29.0938 374.734 26.5938 374.734 23.9062C374.734 20.2187 375.469 16.9219 376.938 14.0156C378.438 11.0781 380.422 8.59375 382.891 6.5625C385.391 4.5 388.25 2.92187 391.469 1.82812C394.688 0.734375 398.016 0.1875 401.453 0.1875C402.984 0.1875 404.562 0.25 406.188 0.375C407.812 0.46875 409.422 0.65625 411.016 0.9375C412.641 1.21875 414.219 1.57813 415.75 2.01562C417.281 2.45312 418.734 3 420.109 3.65625L418.328 22.6875C416.203 21.9688 413.969 21.375 411.625 20.9062C409.312 20.4062 407.047 20.1562 404.828 20.1562C404.422 20.1562 403.891 20.1719 403.234 20.2031C402.609 20.2031 401.938 20.25 401.219 20.3438C400.531 20.4062 399.828 20.5156 399.109 20.6719C398.391 20.8281 397.75 21.0469 397.188 21.3281C396.625 21.5781 396.172 21.9219 395.828 22.3594C395.484 22.7969 395.328 23.3125 395.359 23.9062C395.391 24.5938 395.641 25.1562 396.109 25.5938C396.609 26 397.234 26.3281 397.984 26.5781C398.766 26.7969 399.609 26.9531 400.516 27.0469C401.453 27.1406 402.375 27.2031 403.281 27.2344C404.188 27.2344 405.031 27.2344 405.812 27.2344C406.594 27.2031 407.234 27.2188 407.734 27.2812C410.234 27.4375 412.484 27.9688 414.484 28.875C416.484 29.7812 418.172 30.9844 419.547 32.4844C420.953 33.9844 422.016 35.7812 422.734 37.875C423.484 39.9375 423.859 42.2188 423.859 44.7188ZM449.828 0L445.984 49.3125H428.641L426.859 0H449.828ZM446.734 63.75C446.734 65.125 446.469 66.4062 445.938 67.5938C445.406 68.7812 444.688 69.8125 443.781 70.6875C442.906 71.5938 441.875 72.2969 440.688 72.7969C439.5 73.3281 438.234 73.5938 436.891 73.5938C435.516 73.5938 434.234 73.3281 433.047 72.7969C431.859 72.2969 430.812 71.5938 429.906 70.6875C429.031 69.8125 428.328 68.7812 427.797 67.5938C427.297 66.4062 427.047 65.125 427.047 63.75C427.047 62.4062 427.297 61.125 427.797 59.9062C428.328 58.6875 429.031 57.6406 429.906 56.7656C430.812 55.8594 431.859 55.1406 433.047 54.6094C434.234 54.0781 435.516 53.8125 436.891 53.8125C438.234 53.8125 439.5 54.0781 440.688 54.6094C441.875 55.1406 442.906 55.8594 443.781 56.7656C444.688 57.6406 445.406 58.6875 445.938 59.9062C446.469 61.125 446.734 62.4062 446.734 63.75Z" fill="url(#paint0_linear_59_276)"/>
</g>
<defs>
<filter id="filter0_d_59_276" x="0" y="0" width="453.828" height="83.5938" filterUnits="userSpaceOnUse" color-interpolation-filters="sRGB">
<feFlood flood-opacity="0" result="BackgroundImageFix"/>
<feColorMatrix in="SourceAlpha" type="matrix" values="0 0 0 0 0 0 0 0 0 0 0 0 0 0 0 0 0 0 127 0" result="hardAlpha"/>
<feOffset dy="6"/>
<feGaussianBlur stdDeviation="2"/>
<feComposite in2="hardAlpha" operator="out"/>
<feColorMatrix type="matrix" values="0 0 0 0 0 0 0 0 0 0 0 0 0 0 0 0 0 0 0.25 0"/>
<feBlend mode="normal" in2="BackgroundImageFix" result="effect1_dropShadow_59_276"/>
<feBlend mode="normal" in="SourceGraphic" in2="effect1_dropShadow_59_276" result="shape"/>
</filter>
<linearGradient id="paint0_linear_59_276" x1="5.5" y1="49.6562" x2="451.5" y2="49.6562" gradientUnits="userSpaceOnUse">
<stop offset="0.139423" stop-color="#09336F"/>
<stop offset="0.5" stop-color="#FF3E91"/>
<stop offset="0.908654" stop-color="#09336F"/>
</linearGradient>
</defs>
</svg>
