<svg width="741" height="71" viewBox="0 0 741 71" fill="none" xmlns="http://www.w3.org/2000/svg">
<path d="M48.1875 2.8125L45.5625 22.5938C44.6562 22.3438 43.75 22.1719 42.8438 22.0781C41.9375 21.9844 41.0312 21.9375 40.125 21.9375C37.8125 21.9375 35.6094 22.25 33.5156 22.875C31.4219 23.4688 29.5625 24.3906 27.9375 25.6406C26.3438 26.8906 25.0625 28.4531 24.0938 30.3281C23.1562 32.2031 22.6875 34.4062 22.6875 36.9375C22.6875 38.5625 22.9375 39.9688 23.4375 41.1562C23.9688 42.3438 24.7031 43.3281 25.6406 44.1094C26.5781 44.8906 27.6875 45.4688 28.9688 45.8438C30.25 46.2188 31.6562 46.4062 33.1875 46.4062C34.3438 46.4062 35.5469 46.2812 36.7969 46.0312C38.0469 45.7812 39.2812 45.4531 40.5 45.0469C41.7188 44.6406 42.9062 44.1719 44.0625 43.6406C45.2188 43.1094 46.2812 42.5625 47.25 42L45.375 64.0312C44.1562 64.6562 42.8281 65.2188 41.3906 65.7188C39.9844 66.1875 38.5312 66.6094 37.0312 66.9844C35.5312 67.3281 34.0312 67.5938 32.5312 67.7812C31.0312 67.9688 29.5938 68.0625 28.2188 68.0625C24.25 68.0625 20.5469 67.3281 17.1094 65.8594C13.6719 64.3906 10.6875 62.375 8.15625 59.8125C5.625 57.25 3.625 54.2344 2.15625 50.7656C0.71875 47.2656 0 43.5 0 39.4688C0 34.125 0.765625 29.0938 2.29688 24.375C3.82812 19.625 6.07812 15.4688 9.04688 11.9062C12.0156 8.34375 15.6875 5.53125 20.0625 3.46875C24.4688 1.40625 29.5312 0.375 35.25 0.375C37.4062 0.375 39.6094 0.546875 41.8594 0.890625C44.1406 1.23437 46.25 1.875 48.1875 2.8125ZM106.078 23.5312C106.078 25.9688 105.859 28.1875 105.422 30.1875C105.016 32.1562 104.359 33.9688 103.453 35.625C102.547 37.2812 101.375 38.8125 99.9375 40.2188C98.5 41.625 96.7656 42.9688 94.7344 44.25L105.891 64.125L84.7969 68.25L77.5781 48.2812L71.7656 48.4688L70.9219 67.9688H50.7656C50.9219 60.8438 51.0625 53.75 51.1875 46.6875C51.3438 39.625 51.5156 32.5312 51.7031 25.4062C51.7656 21.8125 51.8281 18.25 51.8906 14.7188C51.9531 11.1875 52.0781 7.625 52.2656 4.03125C54.4531 3.21875 56.6094 2.54687 58.7344 2.01562C60.8594 1.48438 62.9844 1.07812 65.1094 0.796875C67.2656 0.484375 69.4375 0.28125 71.625 0.1875C73.8438 0.0625 76.1094 0 78.4219 0C81.9844 0 85.4219 0.5 88.7344 1.5C92.0781 2.46875 95.0312 3.9375 97.5938 5.90625C100.156 7.875 102.203 10.3281 103.734 13.2656C105.297 16.2031 106.078 19.625 106.078 23.5312ZM85.0781 25.0312C85.0781 23.7188 84.8906 22.5156 84.5156 21.4219C84.1719 20.3281 83.6406 19.3906 82.9219 18.6094C82.2344 17.7969 81.3594 17.1719 80.2969 16.7344C79.2656 16.2656 78.0469 16.0312 76.6406 16.0312C76.0156 16.0312 75.4062 16.0781 74.8125 16.1719C74.2188 16.2344 73.6406 16.3438 73.0781 16.5L72.3281 33.9375H73.4531C74.7969 33.9375 76.1562 33.7656 77.5312 33.4219C78.9375 33.0781 80.1875 32.5469 81.2812 31.8281C82.4062 31.1094 83.3125 30.1875 84 29.0625C84.7188 27.9375 85.0781 26.5938 85.0781 25.0312ZM153.75 1.125C153.562 4.0625 153.391 6.96875 153.234 9.84375C153.078 12.7187 152.875 15.625 152.625 18.5625L132.75 19.5938L132.281 25.5H146.25L145.219 40.0312L131.156 40.5L130.688 47.3438H142.312H150.562C150.375 50.7812 150.172 54.2031 149.953 57.6094C149.766 60.9844 149.594 64.375 149.438 67.7812L109.031 68.7188L110.531 1.125H153.75ZM214.5 64.6875L191.25 67.6875L188.438 57.0938H177.75L175.406 67.6875L151.5 65.3438L170.156 2.90625L196.219 1.59375L214.5 64.6875ZM186.75 42.75L183.188 26.4375L179.719 42.75H186.75ZM259.5 1.6875L259.031 21.5625L245.062 22.125L241.5 66.5625L221.719 67.5938L221.812 23.1562L207.844 23.9062L208.406 1.78125L259.5 1.6875ZM306.469 1.125C306.281 4.0625 306.109 6.96875 305.953 9.84375C305.797 12.7187 305.594 15.625 305.344 18.5625L285.469 19.5938L285 25.5H298.969L297.938 40.0312L283.875 40.5L283.406 47.3438H295.031H303.281C303.094 50.7812 302.891 54.2031 302.672 57.6094C302.484 60.9844 302.312 64.375 302.156 67.7812L261.75 68.7188L263.25 1.125H306.469ZM404.719 64.6875L381.469 67.6875L378.656 57.0938H367.969L365.625 67.6875L341.719 65.3438L360.375 2.90625L386.438 1.59375L404.719 64.6875ZM376.969 42.75L373.406 26.4375L369.938 42.75H376.969ZM450.938 2.8125L448.312 22.5938C447.406 22.3438 446.5 22.1719 445.594 22.0781C444.688 21.9844 443.781 21.9375 442.875 21.9375C440.562 21.9375 438.359 22.25 436.266 22.875C434.172 23.4688 432.312 24.3906 430.688 25.6406C429.094 26.8906 427.812 28.4531 426.844 30.3281C425.906 32.2031 425.438 34.4062 425.438 36.9375C425.438 38.5625 425.688 39.9688 426.188 41.1562C426.719 42.3438 427.453 43.3281 428.391 44.1094C429.328 44.8906 430.438 45.4688 431.719 45.8438C433 46.2188 434.406 46.4062 435.938 46.4062C437.094 46.4062 438.297 46.2812 439.547 46.0312C440.797 45.7812 442.031 45.4531 443.25 45.0469C444.469 44.6406 445.656 44.1719 446.812 43.6406C447.969 43.1094 449.031 42.5625 450 42L448.125 64.0312C446.906 64.6562 445.578 65.2188 444.141 65.7188C442.734 66.1875 441.281 66.6094 439.781 66.9844C438.281 67.3281 436.781 67.5938 435.281 67.7812C433.781 67.9688 432.344 68.0625 430.969 68.0625C427 68.0625 423.297 67.3281 419.859 65.8594C416.422 64.3906 413.438 62.375 410.906 59.8125C408.375 57.25 406.375 54.2344 404.906 50.7656C403.469 47.2656 402.75 43.5 402.75 39.4688C402.75 34.125 403.516 29.0938 405.047 24.375C406.578 19.625 408.828 15.4688 411.797 11.9062C414.766 8.34375 418.438 5.53125 422.812 3.46875C427.219 1.40625 432.281 0.375 438 0.375C440.156 0.375 442.359 0.546875 444.609 0.890625C446.891 1.23437 449 1.875 450.938 2.8125ZM500.344 2.8125L497.719 22.5938C496.812 22.3438 495.906 22.1719 495 22.0781C494.094 21.9844 493.188 21.9375 492.281 21.9375C489.969 21.9375 487.766 22.25 485.672 22.875C483.578 23.4688 481.719 24.3906 480.094 25.6406C478.5 26.8906 477.219 28.4531 476.25 30.3281C475.312 32.2031 474.844 34.4062 474.844 36.9375C474.844 38.5625 475.094 39.9688 475.594 41.1562C476.125 42.3438 476.859 43.3281 477.797 44.1094C478.734 44.8906 479.844 45.4688 481.125 45.8438C482.406 46.2188 483.812 46.4062 485.344 46.4062C486.5 46.4062 487.703 46.2812 488.953 46.0312C490.203 45.7812 491.438 45.4531 492.656 45.0469C493.875 44.6406 495.062 44.1719 496.219 43.6406C497.375 43.1094 498.438 42.5625 499.406 42L497.531 64.0312C496.312 64.6562 494.984 65.2188 493.547 65.7188C492.141 66.1875 490.688 66.6094 489.188 66.9844C487.688 67.3281 486.188 67.5938 484.688 67.7812C483.188 67.9688 481.75 68.0625 480.375 68.0625C476.406 68.0625 472.703 67.3281 469.266 65.8594C465.828 64.3906 462.844 62.375 460.312 59.8125C457.781 57.25 455.781 54.2344 454.312 50.7656C452.875 47.2656 452.156 43.5 452.156 39.4688C452.156 34.125 452.922 29.0938 454.453 24.375C455.984 19.625 458.234 15.4688 461.203 11.9062C464.172 8.34375 467.844 5.53125 472.219 3.46875C476.625 1.40625 481.688 0.375 487.406 0.375C489.562 0.375 491.766 0.546875 494.016 0.890625C496.297 1.23437 498.406 1.875 500.344 2.8125ZM560.672 35.625C560.672 38.4688 560.344 41.2188 559.688 43.875C559.031 46.5 558.078 48.9688 556.828 51.2812C555.609 53.5938 554.109 55.7188 552.328 57.6562C550.578 59.5625 548.594 61.2031 546.375 62.5781C544.188 63.9531 541.797 65.0312 539.203 65.8125C536.609 66.5625 533.859 66.9375 530.953 66.9375C528.141 66.9375 525.453 66.5781 522.891 65.8594C520.359 65.1406 517.984 64.1406 515.766 62.8594C513.547 61.5469 511.531 59.9844 509.719 58.1719C507.938 56.3281 506.406 54.2969 505.125 52.0781C503.875 49.8281 502.891 47.4219 502.172 44.8594C501.484 42.2969 501.141 39.625 501.141 36.8438C501.141 34.125 501.469 31.4688 502.125 28.875C502.781 26.25 503.719 23.7812 504.938 21.4688C506.188 19.1563 507.688 17.0312 509.438 15.0938C511.188 13.1563 513.141 11.4844 515.297 10.0781C517.484 8.67188 519.844 7.57813 522.375 6.79688C524.906 6.01562 527.578 5.625 530.391 5.625C534.922 5.625 539.047 6.32812 542.766 7.73438C546.516 9.14062 549.703 11.1562 552.328 13.7812C554.984 16.375 557.031 19.5313 558.469 23.25C559.938 26.9375 560.672 31.0625 560.672 35.625ZM539.859 36.8438C539.859 35.5 539.656 34.2031 539.25 32.9531C538.875 31.6719 538.312 30.5469 537.562 29.5781C536.812 28.5781 535.875 27.7812 534.75 27.1875C533.656 26.5625 532.391 26.25 530.953 26.25C529.484 26.25 528.172 26.5156 527.016 27.0469C525.859 27.5781 524.859 28.3125 524.016 29.25C523.203 30.1562 522.578 31.2344 522.141 32.4844C521.703 33.7031 521.484 35 521.484 36.375C521.484 37.6875 521.672 39 522.047 40.3125C522.422 41.625 522.984 42.8125 523.734 43.875C524.484 44.9375 525.406 45.7969 526.5 46.4531C527.625 47.1094 528.922 47.4375 530.391 47.4375C531.859 47.4375 533.172 47.1562 534.328 46.5938C535.516 46 536.516 45.2188 537.328 44.25C538.141 43.25 538.766 42.1094 539.203 40.8281C539.641 39.5469 539.859 38.2188 539.859 36.8438ZM620.016 16.5938C620.016 18.9062 619.906 21.4531 619.688 24.2344C619.469 27.0156 619.109 29.8906 618.609 32.8594C618.109 35.8281 617.453 38.8438 616.641 41.9062C615.859 44.9375 614.875 47.8594 613.688 50.6719C612.5 53.4844 611.109 56.125 609.516 58.5938C607.953 61.0312 606.141 63.1719 604.078 65.0156C602.047 66.8281 599.766 68.25 597.234 69.2812C594.703 70.3438 591.891 70.875 588.797 70.875C585.172 70.875 582.016 70.2812 579.328 69.0938C576.672 67.9375 574.391 66.375 572.484 64.4062C570.578 62.4062 569.016 60.0938 567.797 57.4688C566.578 54.8125 565.625 52.0156 564.938 49.0781C564.25 46.1094 563.766 43.0938 563.484 40.0312C563.234 36.9375 563.109 33.9688 563.109 31.125C563.109 26.75 563.328 22.3906 563.766 18.0469C564.203 13.6719 564.828 9.3125 565.641 4.96875L587.578 5.8125C586.734 10.7188 586 15.6562 585.375 20.625C584.781 25.5625 584.484 30.5312 584.484 35.5312C584.484 36.0625 584.5 36.8594 584.531 37.9219C584.594 38.9531 584.688 40.125 584.812 41.4375C584.938 42.7188 585.109 44.0469 585.328 45.4219C585.578 46.7656 585.906 48 586.312 49.125C586.719 50.25 587.203 51.1719 587.766 51.8906C588.359 52.6094 589.047 52.9688 589.828 52.9688C590.734 52.9688 591.547 52.5469 592.266 51.7031C592.984 50.8281 593.609 49.6719 594.141 48.2344C594.703 46.7969 595.188 45.1406 595.594 43.2656C596 41.3906 596.344 39.4375 596.625 37.4062C596.906 35.375 597.125 33.3438 597.281 31.3125C597.469 29.2812 597.609 27.3906 597.703 25.6406C597.828 23.8906 597.906 22.3438 597.938 21C597.969 19.6562 597.984 18.6562 597.984 18C597.984 15.5625 597.938 13.1406 597.844 10.7344C597.781 8.29688 597.672 5.875 597.516 3.46875H619.453C619.828 7.78125 620.016 12.1562 620.016 16.5938ZM687.516 1.5L684.141 65.0625L659.578 67.3125L646.453 33.2812L644.391 67.9688H623.297L624.984 1.5L648.422 0.375L664.641 34.125L665.391 2.25L687.516 1.5ZM740.906 1.6875L740.438 21.5625L726.469 22.125L722.906 66.5625L703.125 67.5938L703.219 23.1562L689.25 23.9062L689.812 1.78125L740.906 1.6875Z" fill="url(#paint0_linear_67_470)"/>
<defs>
<linearGradient id="paint0_linear_67_470" x1="-0.65625" y1="48.7188" x2="741.344" y2="48.7188" gradientUnits="userSpaceOnUse">
<stop offset="0.139423" stop-color="#09336F"/>
<stop offset="0.5" stop-color="#FF3E91"/>
<stop offset="0.908654" stop-color="#09336F"/>
</linearGradient>
</defs>
</svg>
