<svg width="1314" height="234" viewBox="0 0 1314 234" fill="none" xmlns="http://www.w3.org/2000/svg">
<g filter="url(#filter0_d_259_210)">
<rect x="10" width="1294" height="200" rx="100" fill="#17132D"/>
<path d="M372.375 122L388.188 75.75H394.344L410.156 122H403.625L399.156 108.906H382.156L377.688 122H372.375ZM383.719 104.25H397.594L390.656 84L383.719 104.25ZM417.688 122V75.75H430.719C433.427 75.75 435.74 75.9271 437.656 76.2812C440.531 76.8229 442.76 78.1042 444.344 80.125C445.927 82.1458 446.719 84.8021 446.719 88.0938C446.719 92.9479 445.094 96.7292 441.844 99.4375C438.594 102.146 434.094 103.5 428.344 103.5H423.844V122H417.688ZM423.844 98.875H427.688C432.708 98.875 436.042 97.7917 437.688 95.625C439.333 93.4375 440.156 90.9375 440.156 88.125C440.156 85.3125 439.188 83.2396 437.25 81.9062C436.396 81.3229 435.469 80.9271 434.469 80.7188C433.49 80.4896 431.99 80.375 429.969 80.375H423.844V98.875ZM456.25 122V75.75H469.281C471.99 75.75 474.302 75.9271 476.219 76.2812C479.094 76.8229 481.323 78.1042 482.906 80.125C484.49 82.1458 485.281 84.8021 485.281 88.0938C485.281 92.9479 483.656 96.7292 480.406 99.4375C477.156 102.146 472.656 103.5 466.906 103.5H462.406V122H456.25ZM462.406 98.875H466.25C471.271 98.875 474.604 97.7917 476.25 95.625C477.896 93.4375 478.719 90.9375 478.719 88.125C478.719 85.3125 477.75 83.2396 475.812 81.9062C474.958 81.3229 474.031 80.9271 473.031 80.7188C472.052 80.4896 470.552 80.375 468.531 80.375H462.406V98.875ZM493.438 122V75.75H504.656C508.99 75.75 512.115 76.1562 514.031 76.9688C515.948 77.7812 517.448 79.125 518.531 81C519.635 82.8542 520.188 84.8542 520.188 87C520.188 89.2292 519.552 91.5521 518.281 93.9688C517.031 96.3854 514.562 98.5312 510.875 100.406L525.281 122H517.812L505.156 102.219H499.594V122H493.438ZM499.594 97.5938H502.844C506.406 97.5938 509.094 96.5938 510.906 94.5938C512.719 92.5729 513.625 90.2083 513.625 87.5C513.625 86.0625 513.323 84.8125 512.719 83.75C512.135 82.6875 511.198 81.8646 509.906 81.2812C508.615 80.6771 506.438 80.375 503.375 80.375H499.594V97.5938ZM545.531 123.156C539.948 123.156 535.656 120.875 532.656 116.312C529.677 111.75 528.188 105.938 528.188 98.875C528.188 91.7917 529.688 85.9792 532.688 81.4375C535.688 76.875 539.969 74.5938 545.531 74.5938C551.115 74.5938 555.396 76.875 558.375 81.4375C561.375 85.9792 562.875 91.7917 562.875 98.875C562.875 105.938 561.375 111.75 558.375 116.312C555.396 120.875 551.115 123.156 545.531 123.156ZM545.531 118.531C549.031 118.531 551.708 116.906 553.562 113.656C555.417 110.406 556.344 105.469 556.344 98.8438C556.344 92.2396 555.417 87.3229 553.562 84.0938C551.708 80.8438 549.031 79.2188 545.531 79.2188C542.052 79.2188 539.385 80.8438 537.531 84.0938C535.677 87.3229 534.75 92.2396 534.75 98.8438C534.75 105.469 535.667 110.406 537.5 113.656C539.354 116.906 542.031 118.531 545.531 118.531ZM580.812 122L565.25 75.75H571.75L584.562 113.781L597.656 75.75H602.906L587 122H580.812ZM610.125 122V75.75H637.219V80.375H616.281V95.2188H634.031V99.8438H616.281V117.375H638.656V122H610.125ZM678.188 72.6562L649.438 131.25H644.281L673.031 72.6562H678.188ZM686.25 122V75.75H697.469C701.802 75.75 704.927 76.1562 706.844 76.9688C708.76 77.7812 710.26 79.125 711.344 81C712.448 82.8542 713 84.8542 713 87C713 89.2292 712.365 91.5521 711.094 93.9688C709.844 96.3854 707.375 98.5312 703.688 100.406L718.094 122H710.625L697.969 102.219H692.406V122H686.25ZM692.406 97.5938H695.656C699.219 97.5938 701.906 96.5938 703.719 94.5938C705.531 92.5729 706.438 90.2083 706.438 87.5C706.438 86.0625 706.135 84.8125 705.531 83.75C704.948 82.6875 704.01 81.8646 702.719 81.2812C701.427 80.6771 699.25 80.375 696.188 80.375H692.406V97.5938ZM725.812 122V75.75H752.906V80.375H731.969V95.2188H749.719V99.8438H731.969V117.375H754.344V122H725.812ZM763.781 121.656V116.438L765.844 117.125C768.698 118.062 770.948 118.531 772.594 118.531C774.135 118.531 775.51 118.271 776.719 117.75C777.927 117.229 778.865 116.323 779.531 115.031C780.219 113.719 780.562 111.438 780.562 108.188V80.375H766.688V75.75H786.719V104.906C786.719 110.76 786.094 114.781 784.844 116.969C783.615 119.135 781.969 120.708 779.906 121.688C777.844 122.667 775.562 123.156 773.062 123.156C770.688 123.156 767.594 122.656 763.781 121.656ZM802.938 122V75.75H830.031V80.375H809.094V95.2188H826.844V99.8438H809.094V117.375H831.469V122H802.938ZM870.844 120.938C866.76 122.417 862.875 123.156 859.188 123.156C856.021 123.156 853.156 122.635 850.594 121.594C848.052 120.552 845.938 119.125 844.25 117.312C842.104 115.021 840.51 112.302 839.469 109.156C838.448 106.01 837.938 102.698 837.938 99.2188C837.938 95.7812 838.438 92.4167 839.438 89.125C840.458 85.8333 841.875 83.1458 843.688 81.0625C845.542 78.9375 847.812 77.3333 850.5 76.25C853.208 75.1458 856.052 74.5938 859.031 74.5938C862.49 74.5938 866.25 75.1875 870.312 76.375V82.0625C866.188 80.1667 862.375 79.2188 858.875 79.2188C856.708 79.2188 854.688 79.7188 852.812 80.7188C850.958 81.6979 849.469 83.0312 848.344 84.7188C847.031 86.6979 846.062 88.9479 845.438 91.4688C844.812 93.9688 844.5 96.5312 844.5 99.1562C844.5 104.823 845.906 109.344 848.719 112.719C850.177 114.448 851.948 115.781 854.031 116.719C856.115 117.656 858.365 118.125 860.781 118.125C863.594 118.125 866.948 117.375 870.844 115.875V120.938ZM889.5 122V80.375H874.094V75.75H911.094V80.375H895.688V122H889.5ZM957.188 122V75.75H984.281V80.375H963.344V95.2188H981.094V99.8438H963.344V117.375H985.719V122H957.188ZM1005 122L989.438 75.75H995.938L1008.75 113.781L1021.84 75.75H1027.09L1011.19 122H1005ZM1034.31 122V75.75H1061.41V80.375H1040.47V95.2188H1058.22V99.8438H1040.47V117.375H1062.84V122H1034.31ZM1070.75 122V75.75H1076.56L1094.97 110.938H1095.03V75.75H1100.06V122H1094.38L1075.84 86.5938H1075.75V122H1070.75ZM1120.88 122V80.375H1105.47V75.75H1142.47V80.375H1127.06V122H1120.88Z" fill="white"/>
</g>
<foreignObject x="87" y="20" width="155.537" height="155.539"><div xmlns="http://www.w3.org/1999/xhtml" style="backdrop-filter:blur(10px);clip-path:url(#bgblur_0_259_210_clip_path);height:100%;width:100%"></div></foreignObject><circle data-figma-bg-blur-radius="20" cx="164.769" cy="97.7686" r="57.0186" fill="#565656" fill-opacity="0.3" stroke="white" stroke-width="1.5"/>
<foreignObject x="110.67" y="43.9633" width="109.487" height="109.195"><div xmlns="http://www.w3.org/1999/xhtml" style="backdrop-filter:blur(14.45px);clip-path:url(#bgblur_1_259_210_clip_path);height:100%;width:100%"></div></foreignObject><g data-figma-bg-blur-radius="28.9">
<mask id="path-4-inside-1_259_210" fill="white">
<path d="M190.38 82.6351C191.552 83.8067 191.552 85.7062 190.38 86.8778L180.581 96.6761C179.409 97.8477 179.409 99.7473 180.581 100.919L189.565 109.903C190.736 111.074 190.736 112.974 189.565 114.145L180.672 123.039C179.5 124.211 177.601 124.211 176.429 123.039L167.445 114.055C166.274 112.883 164.374 112.883 163.202 114.055L153.879 123.379C152.707 124.551 150.808 124.551 149.636 123.379L140.743 114.486C139.571 113.315 139.571 111.415 140.743 110.244L150.067 100.919C151.238 99.7472 151.238 97.8478 150.067 96.6762L140.449 87.0584C139.277 85.8869 139.277 83.9874 140.449 82.8158L149.342 73.9227C150.514 72.7511 152.413 72.7511 153.585 73.9227L163.203 83.5405C164.374 84.712 166.274 84.7121 167.445 83.5406L177.244 73.7419C178.416 72.5704 180.315 72.5704 181.487 73.742L190.38 82.6351Z"/>
</mask>
<path d="M190.38 82.6351C191.552 83.8067 191.552 85.7062 190.38 86.8778L180.581 96.6761C179.409 97.8477 179.409 99.7473 180.581 100.919L189.565 109.903C190.736 111.074 190.736 112.974 189.565 114.145L180.672 123.039C179.5 124.211 177.601 124.211 176.429 123.039L167.445 114.055C166.274 112.883 164.374 112.883 163.202 114.055L153.879 123.379C152.707 124.551 150.808 124.551 149.636 123.379L140.743 114.486C139.571 113.315 139.571 111.415 140.743 110.244L150.067 100.919C151.238 99.7472 151.238 97.8478 150.067 96.6762L140.449 87.0584C139.277 85.8869 139.277 83.9874 140.449 82.8158L149.342 73.9227C150.514 72.7511 152.413 72.7511 153.585 73.9227L163.203 83.5405C164.374 84.712 166.274 84.7121 167.445 83.5406L177.244 73.7419C178.416 72.5704 180.315 72.5704 181.487 73.742L190.38 82.6351Z" fill="#D12A00" fill-opacity="0.64"/>
<path d="M181.487 73.742L180.228 75.0006L181.487 73.742ZM153.879 123.379L155.137 124.638L153.879 123.379ZM149.636 123.379L148.377 124.638L149.636 123.379ZM167.445 114.055L166.186 115.313L167.445 114.055ZM180.672 123.039L179.413 121.781L180.672 123.039ZM176.429 123.039L177.688 121.781L176.429 123.039ZM180.581 96.6761L181.84 97.9348L180.581 96.6761ZM180.581 100.919L179.322 102.178L180.581 100.919ZM190.38 86.8778L191.639 88.1365L190.38 86.8778ZM190.38 86.8778L189.121 85.6191L179.322 95.4175L180.581 96.6761L181.84 97.9348L191.639 88.1365L190.38 86.8778ZM180.581 100.919L179.322 102.178L188.306 111.161L189.565 109.903L190.823 108.644L181.84 99.6602L180.581 100.919ZM189.565 114.145L188.306 112.887L179.413 121.781L180.672 123.039L181.93 124.298L190.824 115.404L189.565 114.145ZM176.429 123.039L177.688 121.781L168.704 112.796L167.445 114.055L166.186 115.313L175.17 124.298L176.429 123.039ZM163.202 114.055L161.944 112.796L152.62 122.121L153.879 123.379L155.137 124.638L164.461 115.313L163.202 114.055ZM149.636 123.379L150.895 122.121L142.002 113.227L140.743 114.486L139.484 115.745L148.377 124.638L149.636 123.379ZM140.743 110.244L142.001 111.502L151.326 102.177L150.067 100.919L148.808 99.6602L139.484 108.985L140.743 110.244ZM150.067 96.6762L151.325 95.4176L141.708 85.7998L140.449 87.0584L139.19 88.3171L148.808 97.9349L150.067 96.6762ZM140.449 82.8158L141.708 84.0744L150.601 75.1813L149.342 73.9227L148.083 72.664L139.19 81.5571L140.449 82.8158ZM153.585 73.9227L152.326 75.1813L161.944 84.7991L163.203 83.5405L164.461 82.2818L154.843 72.664L153.585 73.9227ZM167.445 83.5406L168.704 84.7992L178.503 75.0006L177.244 73.7419L175.986 72.4832L166.186 82.2819L167.445 83.5406ZM181.487 73.742L180.228 75.0006L189.121 83.8937L190.38 82.6351L191.639 81.3764L182.746 72.4833L181.487 73.742ZM177.244 73.7419L178.503 75.0006C178.979 74.5242 179.752 74.5242 180.228 75.0006L181.487 73.742L182.746 72.4833C180.879 70.6166 177.853 70.6166 175.986 72.4832L177.244 73.7419ZM163.203 83.5405L161.944 84.7991C163.811 86.6658 166.837 86.6658 168.704 84.7992L167.445 83.5406L166.186 82.2819C165.71 82.7583 164.938 82.7583 164.461 82.2818L163.203 83.5405ZM149.342 73.9227L150.601 75.1813C151.077 74.7049 151.85 74.7049 152.326 75.1813L153.585 73.9227L154.843 72.664C152.977 70.7973 149.95 70.7973 148.083 72.664L149.342 73.9227ZM140.449 87.0584L141.708 85.7998C141.231 85.3234 141.231 84.5509 141.708 84.0744L140.449 82.8158L139.19 81.5571C137.324 83.4239 137.324 86.4504 139.19 88.3171L140.449 87.0584ZM150.067 100.919L151.326 102.177C153.192 100.311 153.192 97.2842 151.325 95.4176L150.067 96.6762L148.808 97.9349C149.285 98.4113 149.285 99.1837 148.808 99.6602L150.067 100.919ZM140.743 114.486L142.002 113.227C141.525 112.751 141.525 111.979 142.001 111.502L140.743 110.244L139.484 108.985C137.617 110.852 137.618 113.878 139.484 115.745L140.743 114.486ZM153.879 123.379L152.62 122.121C152.144 122.597 151.371 122.597 150.895 122.121L149.636 123.379L148.377 124.638C150.244 126.505 153.271 126.505 155.137 124.638L153.879 123.379ZM167.445 114.055L168.704 112.796C166.837 110.929 163.81 110.929 161.944 112.796L163.202 114.055L164.461 115.313C164.938 114.837 165.71 114.837 166.186 115.313L167.445 114.055ZM180.672 123.039L179.413 121.781C178.937 122.257 178.164 122.257 177.688 121.781L176.429 123.039L175.17 124.298C177.037 126.165 180.064 126.165 181.93 124.298L180.672 123.039ZM189.565 109.903L188.306 111.161C188.783 111.638 188.783 112.41 188.306 112.887L189.565 114.145L190.824 115.404C192.69 113.537 192.69 110.511 190.823 108.644L189.565 109.903ZM180.581 96.6761L179.322 95.4175C177.456 97.2841 177.455 100.311 179.322 102.178L180.581 100.919L181.84 99.6602C181.363 99.1838 181.363 98.4113 181.84 97.9348L180.581 96.6761ZM190.38 86.8778L191.639 88.1365C193.505 86.2698 193.506 83.2432 191.639 81.3764L190.38 82.6351L189.121 83.8937C189.598 84.3702 189.598 85.1426 189.121 85.6191L190.38 86.8778Z" fill="white" mask="url(#path-4-inside-1_259_210)"/>
</g>
<foreignObject x="171" y="21" width="155.936" height="155.938"><div xmlns="http://www.w3.org/1999/xhtml" style="backdrop-filter:blur(10px);clip-path:url(#bgblur_2_259_210_clip_path);height:100%;width:100%"></div></foreignObject><circle data-figma-bg-blur-radius="20" cx="248.968" cy="98.9678" r="56.9678" fill="#565656" fill-opacity="0.3" stroke="white" stroke-width="2"/>
<foreignObject x="188.68" y="49.6625" width="123.976" height="105.503"><div xmlns="http://www.w3.org/1999/xhtml" style="backdrop-filter:blur(14.45px);clip-path:url(#bgblur_3_259_210_clip_path);height:100%;width:100%"></div></foreignObject><g data-figma-bg-blur-radius="28.9">
<mask id="path-7-inside-2_259_210" fill="white">
<path d="M283.104 89.5849C284.135 90.8812 283.921 92.7685 282.625 93.8004L242.66 125.613C241.364 126.644 239.476 126.43 238.444 125.134L235.576 121.53C235.572 121.525 235.565 121.524 235.56 121.528C235.555 121.532 235.548 121.532 235.544 121.527L218.23 99.7041C217.2 98.4062 217.418 96.5191 218.716 95.4893L228.619 87.6325C229.917 86.6028 231.804 86.8202 232.833 88.1181L241.416 98.9355C242.447 100.235 244.337 100.451 245.634 99.4182L271.015 79.2154C272.312 78.1836 274.199 78.398 275.231 79.6943L283.104 89.5849Z"/>
</mask>
<path d="M283.104 89.5849C284.135 90.8812 283.921 92.7685 282.625 93.8004L242.66 125.613C241.364 126.644 239.476 126.43 238.444 125.134L235.576 121.53C235.572 121.525 235.565 121.524 235.56 121.528C235.555 121.532 235.548 121.532 235.544 121.527L218.23 99.7041C217.2 98.4062 217.418 96.5191 218.716 95.4893L228.619 87.6325C229.917 86.6028 231.804 86.8202 232.833 88.1181L241.416 98.9355C242.447 100.235 244.337 100.451 245.634 99.4182L271.015 79.2154C272.312 78.1836 274.199 78.398 275.231 79.6943L283.104 89.5849Z" fill="#0EA51D" fill-opacity="0.43"/>
<path d="M271.015 79.2154L269.907 77.8227L271.015 79.2154ZM275.231 79.6943L273.838 80.8028L275.231 79.6943ZM241.416 98.9355L240.021 100.042L241.416 98.9355ZM218.23 99.7041L216.836 100.81L218.23 99.7041ZM235.56 121.528L236.699 122.896L235.56 121.528ZM235.544 121.527L234.149 122.633L235.544 121.527ZM235.576 121.53L234.183 122.638L235.576 121.53ZM282.625 93.8004L283.733 95.193L282.625 93.8004ZM283.104 89.5849L281.711 90.6934L283.104 89.5849ZM282.625 93.8004L281.516 92.4077L241.551 124.22L242.66 125.613L243.768 127.005L283.733 95.193L282.625 93.8004ZM238.444 125.134L239.837 124.025L236.968 120.421L235.576 121.53L234.183 122.638L237.052 126.242L238.444 125.134ZM235.544 121.527L236.938 120.42L219.624 98.5978L218.23 99.7041L216.836 100.81L234.149 122.633L235.544 121.527ZM218.716 95.4893L219.822 96.8838L229.725 89.027L228.619 87.6325L227.512 86.2381L217.609 94.0949L218.716 95.4893ZM232.833 88.1181L231.439 89.2245L240.021 100.042L241.416 98.9355L242.81 97.8292L234.228 87.0118L232.833 88.1181ZM245.634 99.4182L246.743 100.811L272.124 80.6081L271.015 79.2154L269.907 77.8227L244.526 98.0255L245.634 99.4182ZM275.231 79.6943L273.838 80.8028L281.711 90.6934L283.104 89.5849L284.496 88.4763L276.623 78.5857L275.231 79.6943ZM271.015 79.2154L272.124 80.6081C272.651 80.1885 273.419 80.2757 273.838 80.8028L275.231 79.6943L276.623 78.5857C274.979 76.5203 271.972 76.1787 269.907 77.8227L271.015 79.2154ZM241.416 98.9355L240.021 100.042C241.664 102.112 244.675 102.457 246.743 100.811L245.634 99.4182L244.526 98.0255C243.998 98.4456 243.229 98.3577 242.81 97.8292L241.416 98.9355ZM228.619 87.6325L229.725 89.027C230.253 88.6082 231.02 88.6966 231.439 89.2245L232.833 88.1181L234.228 87.0118C232.587 84.9437 229.581 84.5973 227.512 86.2381L228.619 87.6325ZM218.23 99.7041L219.624 98.5978C219.206 98.07 219.294 97.3026 219.822 96.8838L218.716 95.4893L217.609 94.0949C215.541 95.7357 215.195 98.7424 216.836 100.81L218.23 99.7041ZM235.56 121.528L234.42 120.161C235.183 119.525 236.321 119.642 236.938 120.42L235.544 121.527L234.149 122.633C234.775 123.421 235.926 123.54 236.699 122.896L235.56 121.528ZM235.576 121.53L236.968 120.421C236.342 119.635 235.192 119.517 234.42 120.161L235.56 121.528L236.699 122.896C235.937 123.531 234.801 123.415 234.183 122.638L235.576 121.53ZM242.66 125.613L241.551 124.22C241.024 124.639 240.257 124.552 239.837 124.025L238.444 125.134L237.052 126.242C238.696 128.308 241.703 128.649 243.768 127.005L242.66 125.613ZM282.625 93.8004L283.733 95.193C285.799 93.5489 286.14 90.5418 284.496 88.4763L283.104 89.5849L281.711 90.6934C282.13 91.2206 282.043 91.9881 281.516 92.4077L282.625 93.8004Z" fill="white" mask="url(#path-7-inside-2_259_210)"/>
</g>
<defs>
<filter id="filter0_d_259_210" x="0" y="0" width="1314" height="234" filterUnits="userSpaceOnUse" color-interpolation-filters="sRGB">
<feFlood flood-opacity="0" result="BackgroundImageFix"/>
<feColorMatrix in="SourceAlpha" type="matrix" values="0 0 0 0 0 0 0 0 0 0 0 0 0 0 0 0 0 0 127 0" result="hardAlpha"/>
<feOffset dy="24"/>
<feGaussianBlur stdDeviation="5"/>
<feComposite in2="hardAlpha" operator="out"/>
<feColorMatrix type="matrix" values="0 0 0 0 0 0 0 0 0 0 0 0 0 0 0 0 0 0 0.11 0"/>
<feBlend mode="normal" in2="BackgroundImageFix" result="effect1_dropShadow_259_210"/>
<feBlend mode="normal" in="SourceGraphic" in2="effect1_dropShadow_259_210" result="shape"/>
</filter>
<clipPath id="bgblur_0_259_210_clip_path" transform="translate(-87 -20)"><circle cx="164.769" cy="97.7686" r="57.0186"/>
</clipPath><clipPath id="bgblur_1_259_210_clip_path" transform="translate(-110.67 -43.9633)"><path d="M190.38 82.6351C191.552 83.8067 191.552 85.7062 190.38 86.8778L180.581 96.6761C179.409 97.8477 179.409 99.7473 180.581 100.919L189.565 109.903C190.736 111.074 190.736 112.974 189.565 114.145L180.672 123.039C179.5 124.211 177.601 124.211 176.429 123.039L167.445 114.055C166.274 112.883 164.374 112.883 163.202 114.055L153.879 123.379C152.707 124.551 150.808 124.551 149.636 123.379L140.743 114.486C139.571 113.315 139.571 111.415 140.743 110.244L150.067 100.919C151.238 99.7472 151.238 97.8478 150.067 96.6762L140.449 87.0584C139.277 85.8869 139.277 83.9874 140.449 82.8158L149.342 73.9227C150.514 72.7511 152.413 72.7511 153.585 73.9227L163.203 83.5405C164.374 84.712 166.274 84.7121 167.445 83.5406L177.244 73.7419C178.416 72.5704 180.315 72.5704 181.487 73.742L190.38 82.6351Z"/>
</clipPath><clipPath id="bgblur_2_259_210_clip_path" transform="translate(-171 -21)"><circle cx="248.968" cy="98.9678" r="56.9678"/>
</clipPath><clipPath id="bgblur_3_259_210_clip_path" transform="translate(-188.68 -49.6625)"><path d="M283.104 89.5849C284.135 90.8812 283.921 92.7685 282.625 93.8004L242.66 125.613C241.364 126.644 239.476 126.43 238.444 125.134L235.576 121.53C235.572 121.525 235.565 121.524 235.56 121.528C235.555 121.532 235.548 121.532 235.544 121.527L218.23 99.7041C217.2 98.4062 217.418 96.5191 218.716 95.4893L228.619 87.6325C229.917 86.6028 231.804 86.8202 232.833 88.1181L241.416 98.9355C242.447 100.235 244.337 100.451 245.634 99.4182L271.015 79.2154C272.312 78.1836 274.199 78.398 275.231 79.6943L283.104 89.5849Z"/>
</clipPath></defs>
</svg>
