<svg width="35" height="35" viewBox="0 0 35 35" fill="none" xmlns="http://www.w3.org/2000/svg">
<path d="M0 12.2093C0 5.46629 5.42424 0 12.1154 0H22.8846C29.5758 0 35 5.46629 35 12.2093V22.7907C35 29.5337 29.5758 35 22.8846 35H12.1154C5.42424 35 0 29.5337 0 22.7907V12.2093Z" fill="url(#paint0_linear_233_283)"/>
<path d="M6 24.7255V11H13.2549C14.8366 11 16 11.3072 16.7451 11.9216C17.4902 12.5229 17.8628 13.4379 17.8628 14.6667C17.8628 15.3726 17.6798 15.9804 17.3138 16.4902C16.9608 16.9869 16.4772 17.3464 15.8628 17.5686C16.6994 17.7647 17.3399 18.1373 17.7843 18.6863C18.2288 19.2353 18.451 19.9543 18.451 20.8432C18.451 21.6667 18.2745 22.3726 17.9216 22.9608C17.5817 23.536 17.0327 23.9739 16.2745 24.2745C15.5294 24.5752 14.5556 24.7255 13.353 24.7255H6ZM10.353 21.6863H12.1765C12.9085 21.6863 13.4118 21.5817 13.6863 21.3726C13.9608 21.1634 14.0981 20.8301 14.0981 20.3726C14.0981 19.9151 13.9543 19.5817 13.6667 19.3726C13.3922 19.1634 12.8758 19.0588 12.1177 19.0588H10.353V21.6863ZM10.353 16.3726H11.902C12.5033 16.3726 12.9216 16.2745 13.1569 16.0784C13.3922 15.8824 13.5098 15.5882 13.5098 15.1961C13.5098 14.7909 13.3922 14.4967 13.1569 14.3137C12.9216 14.1307 12.5164 14.0392 11.9412 14.0392H10.353V16.3726Z" fill="white"/>
<path d="M24.6235 25C23.5385 25 22.5712 24.804 21.7215 24.4118C20.8849 24.0196 20.2248 23.4314 19.7411 22.6471C19.2706 21.8628 19.0353 20.8758 19.0353 19.6863V19.2941C19.0353 18.1307 19.264 17.1634 19.7215 16.3922C20.1791 15.6209 20.813 15.0392 21.6235 14.6471C22.447 14.2549 23.3817 14.0588 24.4274 14.0588C26.2314 14.0588 27.5778 14.5098 28.4667 15.4118C29.3556 16.3007 29.8 17.6079 29.8 19.3334V20.4706H22.7608C22.7869 20.8758 22.8784 21.2157 23.0353 21.4902C23.1921 21.7517 23.4013 21.9477 23.6627 22.0785C23.9372 22.1961 24.2575 22.2549 24.6235 22.2549C25.081 22.2549 25.434 22.183 25.6823 22.0392C25.9438 21.8824 26.1203 21.6863 26.2118 21.451H29.6627C29.4536 22.6536 28.9176 23.5491 28.0549 24.1373C27.2052 24.7125 26.0614 25 24.6235 25ZM24.5255 16.8039C24.1856 16.8039 23.885 16.8628 23.6235 16.9804C23.3751 17.0981 23.1791 17.268 23.0353 17.4902C22.8915 17.7124 22.8065 17.9935 22.7804 18.3334H26.1921C26.1791 17.9804 26.1006 17.6928 25.9569 17.4706C25.8131 17.2353 25.617 17.0654 25.3686 16.9608C25.1333 16.8562 24.8523 16.8039 24.5255 16.8039Z" fill="white"/>
<line x1="21.7305" y1="11.7402" x2="27.3327" y2="11.7402" stroke="white" stroke-width="3"/>
<defs>
<linearGradient id="paint0_linear_233_283" x1="17.5" y1="0" x2="17.5" y2="35" gradientUnits="userSpaceOnUse">
<stop offset="0.365385"/>
<stop offset="1" stop-opacity="0.1"/>
</linearGradient>
</defs>
</svg>
