<svg width="1314" height="234" viewBox="0 0 1314 234" fill="none" xmlns="http://www.w3.org/2000/svg">
<g filter="url(#filter0_d_264_333)">
<rect x="10" width="1294" height="200" rx="100" fill="#17132D"/>
<path d="M404.094 120.938C400.01 122.417 396.125 123.156 392.438 123.156C389.271 123.156 386.406 122.635 383.844 121.594C381.302 120.552 379.188 119.125 377.5 117.312C375.354 115.021 373.76 112.302 372.719 109.156C371.698 106.01 371.188 102.698 371.188 99.2188C371.188 95.7812 371.688 92.4167 372.688 89.125C373.708 85.8333 375.125 83.1458 376.938 81.0625C378.792 78.9375 381.062 77.3333 383.75 76.25C386.458 75.1458 389.302 74.5938 392.281 74.5938C395.74 74.5938 399.5 75.1875 403.562 76.375V82.0625C399.438 80.1667 395.625 79.2188 392.125 79.2188C389.958 79.2188 387.938 79.7188 386.062 80.7188C384.208 81.6979 382.719 83.0312 381.594 84.7188C380.281 86.6979 379.312 88.9479 378.688 91.4688C378.062 93.9688 377.75 96.5312 377.75 99.1562C377.75 104.823 379.156 109.344 381.969 112.719C383.427 114.448 385.198 115.781 387.281 116.719C389.365 117.656 391.615 118.125 394.031 118.125C396.844 118.125 400.198 117.375 404.094 115.875V120.938ZM406.938 122L422.75 75.75H428.906L444.719 122H438.188L433.719 108.906H416.719L412.25 122H406.938ZM418.281 104.25H432.156L425.219 84L418.281 104.25ZM448.062 122V75.75H455.469L464.281 102.062H464.344L473 75.75H480.719V122H475.688V81.4062H475.625L466.594 109.656H461.406L452.406 82.1562H452.344V122H448.062ZM490.812 122V75.75H503.844C506.552 75.75 508.865 75.9271 510.781 76.2812C513.656 76.8229 515.885 78.1042 517.469 80.125C519.052 82.1458 519.844 84.8021 519.844 88.0938C519.844 92.9479 518.219 96.7292 514.969 99.4375C511.719 102.146 507.219 103.5 501.469 103.5H496.969V122H490.812ZM496.969 98.875H500.812C505.833 98.875 509.167 97.7917 510.812 95.625C512.458 93.4375 513.281 90.9375 513.281 88.125C513.281 85.3125 512.312 83.2396 510.375 81.9062C509.521 81.3229 508.594 80.9271 507.594 80.7188C506.615 80.4896 505.115 80.375 503.094 80.375H496.969V98.875ZM527.031 75.75H533.188V106.438C533.188 110.104 533.552 112.677 534.281 114.156C535.031 115.615 536.021 116.708 537.25 117.438C538.5 118.167 539.99 118.531 541.719 118.531C544.24 118.531 546.354 117.771 548.062 116.25C549.792 114.708 550.656 111.385 550.656 106.281V75.75H556.031V105.375C556.031 108.708 555.854 111.219 555.5 112.906C554.917 115.656 553.448 118.052 551.094 120.094C548.76 122.135 545.656 123.156 541.781 123.156C537.156 123.156 533.531 121.833 530.906 119.188C529.573 117.833 528.604 116.24 528 114.406C527.604 113.198 527.344 112.021 527.219 110.875C527.094 109.729 527.031 108.219 527.031 106.344V75.75ZM565.938 120.938V114.844C571.354 117.302 576.01 118.531 579.906 118.531C581.656 118.531 583.292 118.208 584.812 117.562C586.354 116.896 587.521 115.917 588.312 114.625C589.125 113.333 589.531 111.958 589.531 110.5C589.531 107.542 587.698 105.104 584.031 103.188L575.062 98.5C571.771 96.7708 569.479 94.9792 568.188 93.125C566.896 91.2708 566.25 89.1042 566.25 86.625C566.25 83.4167 567.375 80.6146 569.625 78.2188C571.875 75.8021 575.438 74.5938 580.312 74.5938C583.854 74.5938 587.875 75.2188 592.375 76.4688V81.8125C587.875 80.0833 583.854 79.2188 580.312 79.2188C578.667 79.2188 577.188 79.4688 575.875 79.9688C574.583 80.4479 573.615 81.2188 572.969 82.2812C572.323 83.3229 572 84.4375 572 85.625C572 87.0208 572.448 88.3125 573.344 89.5C574.219 90.6875 575.833 91.8854 578.188 93.0938L586.562 97.4375C590.125 99.2708 592.542 101.125 593.812 103C595.083 104.875 595.719 107.042 595.719 109.5C595.719 113.375 594.302 116.625 591.469 119.25C588.635 121.854 584.542 123.156 579.188 123.156C577.812 123.156 576.271 123.052 574.562 122.844C572.854 122.656 569.979 122.021 565.938 120.938ZM654.125 122V80.375H638.719V75.75H675.719V80.375H660.312V122H654.125ZM681.906 122V117.375H692.688V80.375H681.906V75.75H709.656V80.375H698.875V117.375H709.656V122H681.906ZM718 122V75.75H725.406L734.219 102.062H734.281L742.938 75.75H750.656V122H745.625V81.4062H745.562L736.531 109.656H731.344L722.344 82.1562H722.281V122H718ZM760.375 122V75.75H787.469V80.375H766.531V95.2188H784.281V99.8438H766.531V117.375H788.906V122H760.375ZM799.125 122V75.75H805.281V117.375H826.875V122H799.125ZM836.156 122V117.375H846.938V80.375H836.156V75.75H863.906V80.375H853.125V117.375H863.906V122H836.156ZM873.938 122V75.75H879.75L898.156 110.938H898.219V75.75H903.25V122H897.562L879.031 86.5938H878.938V122H873.938ZM914.625 122V75.75H941.719V80.375H920.781V95.2188H938.531V99.8438H920.781V117.375H943.156V122H914.625Z" fill="white"/>
</g>
<circle cx="209.32" cy="98.3203" r="53.8203" stroke="white" stroke-width="5"/>
<line x1="211.291" y1="149.457" x2="211.291" y2="48.0742" stroke="white" stroke-width="5" stroke-linecap="round"/>
<path d="M211.107 150.172C251.459 120.288 246.976 73.2639 211.107 45.577" stroke="white" stroke-width="5"/>
<path d="M255.807 70.6055C229.498 105.913 188.101 101.99 163.727 70.6055" stroke="white" stroke-width="5"/>
<path d="M262.959 101.004C232.308 138.834 184.079 134.63 155.682 101.004" stroke="white" stroke-width="5"/>
<path d="M211.107 151.957C168.234 121.562 172.997 73.7344 211.107 45.5742" stroke="white" stroke-width="5"/>
<defs>
<filter id="filter0_d_264_333" x="0" y="0" width="1314" height="234" filterUnits="userSpaceOnUse" color-interpolation-filters="sRGB">
<feFlood flood-opacity="0" result="BackgroundImageFix"/>
<feColorMatrix in="SourceAlpha" type="matrix" values="0 0 0 0 0 0 0 0 0 0 0 0 0 0 0 0 0 0 127 0" result="hardAlpha"/>
<feOffset dy="24"/>
<feGaussianBlur stdDeviation="5"/>
<feComposite in2="hardAlpha" operator="out"/>
<feColorMatrix type="matrix" values="0 0 0 0 0 0 0 0 0 0 0 0 0 0 0 0 0 0 0.11 0"/>
<feBlend mode="normal" in2="BackgroundImageFix" result="effect1_dropShadow_264_333"/>
<feBlend mode="normal" in="SourceGraphic" in2="effect1_dropShadow_264_333" result="shape"/>
</filter>
</defs>
</svg>
