<svg width="1314" height="234" viewBox="0 0 1314 234" fill="none" xmlns="http://www.w3.org/2000/svg">
<g filter="url(#filter0_d_264_355)">
<rect x="10" width="1294" height="200" rx="100" fill="#17132D"/>
<path d="M404.094 120.938C400.01 122.417 396.125 123.156 392.438 123.156C389.271 123.156 386.406 122.635 383.844 121.594C381.302 120.552 379.188 119.125 377.5 117.312C375.354 115.021 373.76 112.302 372.719 109.156C371.698 106.01 371.188 102.698 371.188 99.2188C371.188 95.7812 371.688 92.4167 372.688 89.125C373.708 85.8333 375.125 83.1458 376.938 81.0625C378.792 78.9375 381.062 77.3333 383.75 76.25C386.458 75.1458 389.302 74.5938 392.281 74.5938C395.74 74.5938 399.5 75.1875 403.562 76.375V82.0625C399.438 80.1667 395.625 79.2188 392.125 79.2188C389.958 79.2188 387.938 79.7188 386.062 80.7188C384.208 81.6979 382.719 83.0312 381.594 84.7188C380.281 86.6979 379.312 88.9479 378.688 91.4688C378.062 93.9688 377.75 96.5312 377.75 99.1562C377.75 104.823 379.156 109.344 381.969 112.719C383.427 114.448 385.198 115.781 387.281 116.719C389.365 117.656 391.615 118.125 394.031 118.125C396.844 118.125 400.198 117.375 404.094 115.875V120.938ZM406.938 122L422.75 75.75H428.906L444.719 122H438.188L433.719 108.906H416.719L412.25 122H406.938ZM418.281 104.25H432.156L425.219 84L418.281 104.25ZM449.75 122V75.75H455.562L473.969 110.938H474.031V75.75H479.062V122H473.375L454.844 86.5938H454.75V122H449.75ZM519.781 120.938C515.698 122.417 511.812 123.156 508.125 123.156C504.958 123.156 502.094 122.635 499.531 121.594C496.99 120.552 494.875 119.125 493.188 117.312C491.042 115.021 489.448 112.302 488.406 109.156C487.385 106.01 486.875 102.698 486.875 99.2188C486.875 95.7812 487.375 92.4167 488.375 89.125C489.396 85.8333 490.812 83.1458 492.625 81.0625C494.479 78.9375 496.75 77.3333 499.438 76.25C502.146 75.1458 504.99 74.5938 507.969 74.5938C511.427 74.5938 515.188 75.1875 519.25 76.375V82.0625C515.125 80.1667 511.312 79.2188 507.812 79.2188C505.646 79.2188 503.625 79.7188 501.75 80.7188C499.896 81.6979 498.406 83.0312 497.281 84.7188C495.969 86.6979 495 88.9479 494.375 91.4688C493.75 93.9688 493.438 96.5312 493.438 99.1562C493.438 104.823 494.844 109.344 497.656 112.719C499.115 114.448 500.885 115.781 502.969 116.719C505.052 117.656 507.302 118.125 509.719 118.125C512.531 118.125 515.885 117.375 519.781 115.875V120.938ZM529 122V75.75H556.094V80.375H535.156V95.2188H552.906V99.8438H535.156V117.375H557.531V122H529ZM567.75 122V75.75H573.906V117.375H595.5V122H567.75ZM606.312 122V75.75H612.469V117.375H634.062V122H606.312ZM638.312 122L654.125 75.75H660.281L676.094 122H669.562L665.094 108.906H648.094L643.625 122H638.312ZM649.656 104.25H663.531L656.594 84L649.656 104.25ZM692.688 122V80.375H677.281V75.75H714.281V80.375H698.875V122H692.688ZM720.469 122V117.375H731.25V80.375H720.469V75.75H748.219V80.375H737.438V117.375H748.219V122H720.469ZM772.906 123.156C767.323 123.156 763.031 120.875 760.031 116.312C757.052 111.75 755.562 105.938 755.562 98.875C755.562 91.7917 757.062 85.9792 760.062 81.4375C763.062 76.875 767.344 74.5938 772.906 74.5938C778.49 74.5938 782.771 76.875 785.75 81.4375C788.75 85.9792 790.25 91.7917 790.25 98.875C790.25 105.938 788.75 111.75 785.75 116.312C782.771 120.875 778.49 123.156 772.906 123.156ZM772.906 118.531C776.406 118.531 779.083 116.906 780.938 113.656C782.792 110.406 783.719 105.469 783.719 98.8438C783.719 92.2396 782.792 87.3229 780.938 84.0938C779.083 80.8438 776.406 79.2188 772.906 79.2188C769.427 79.2188 766.76 80.8438 764.906 84.0938C763.052 87.3229 762.125 92.2396 762.125 98.8438C762.125 105.469 763.042 110.406 764.875 113.656C766.729 116.906 769.406 118.531 772.906 118.531ZM796.812 122V75.75H802.625L821.031 110.938H821.094V75.75H826.125V122H820.438L801.906 86.5938H801.812V122H796.812ZM876.25 122V75.75H882.406V117.375H904V122H876.25ZM913.281 122V117.375H924.062V80.375H913.281V75.75H941.031V80.375H930.25V117.375H941.031V122H913.281ZM951.562 120.938V114.844C956.979 117.302 961.635 118.531 965.531 118.531C967.281 118.531 968.917 118.208 970.438 117.562C971.979 116.896 973.146 115.917 973.938 114.625C974.75 113.333 975.156 111.958 975.156 110.5C975.156 107.542 973.323 105.104 969.656 103.188L960.688 98.5C957.396 96.7708 955.104 94.9792 953.812 93.125C952.521 91.2708 951.875 89.1042 951.875 86.625C951.875 83.4167 953 80.6146 955.25 78.2188C957.5 75.8021 961.062 74.5938 965.938 74.5938C969.479 74.5938 973.5 75.2188 978 76.4688V81.8125C973.5 80.0833 969.479 79.2188 965.938 79.2188C964.292 79.2188 962.812 79.4688 961.5 79.9688C960.208 80.4479 959.24 81.2188 958.594 82.2812C957.948 83.3229 957.625 84.4375 957.625 85.625C957.625 87.0208 958.073 88.3125 958.969 89.5C959.844 90.6875 961.458 91.8854 963.812 93.0938L972.188 97.4375C975.75 99.2708 978.167 101.125 979.438 103C980.708 104.875 981.344 107.042 981.344 109.5C981.344 113.375 979.927 116.625 977.094 119.25C974.26 121.854 970.167 123.156 964.812 123.156C963.438 123.156 961.896 123.052 960.188 122.844C958.479 122.656 955.604 122.021 951.562 120.938ZM1001.19 122V80.375H985.781V75.75H1022.78V80.375H1007.38V122H1001.19Z" fill="white"/>
</g>
<foreignObject x="138" y="22" width="155.936" height="155.938"><div xmlns="http://www.w3.org/1999/xhtml" style="backdrop-filter:blur(10px);clip-path:url(#bgblur_0_264_355_clip_path);height:100%;width:100%"></div></foreignObject><circle data-figma-bg-blur-radius="20" cx="215.968" cy="99.9678" r="56.9678" fill="#565656" fill-opacity="0.3" stroke="white" stroke-width="2"/>
<foreignObject x="147.1" y="35.1" width="138.251" height="129.214"><div xmlns="http://www.w3.org/1999/xhtml" style="backdrop-filter:blur(14.45px);clip-path:url(#bgblur_1_264_355_clip_path);height:100%;width:100%"></div></foreignObject><g data-figma-bg-blur-radius="28.9">
<mask id="path-4-inside-1_264_355" fill="white">
<path d="M176.652 81.9207C175.62 83.2171 175.835 85.1044 177.131 86.1362L238.22 134.761C239.516 135.793 241.403 135.578 242.435 134.282L255.798 117.494C256.83 116.198 256.616 114.31 255.319 113.279L194.231 64.6529C192.934 63.621 191.047 63.8355 190.015 65.1318L176.652 81.9207Z"/>
</mask>
<path d="M176.652 81.9207C175.62 83.2171 175.835 85.1044 177.131 86.1362L238.22 134.761C239.516 135.793 241.403 135.578 242.435 134.282L255.798 117.494C256.83 116.198 256.616 114.31 255.319 113.279L194.231 64.6529C192.934 63.621 191.047 63.8355 190.015 65.1318L176.652 81.9207Z" fill="#FF1900" fill-opacity="0.43"/>
<path d="M190.015 65.1318L188.622 64.0233L190.015 65.1318ZM255.798 117.494L254.406 116.386L255.798 117.494ZM255.319 113.279L256.428 111.886L255.319 113.279ZM238.22 134.761L239.328 133.368L238.22 134.761ZM242.435 134.282L243.828 135.391L242.435 134.282ZM176.652 81.9207L178.045 83.0292L176.652 81.9207ZM177.131 86.1362L178.239 84.7435L239.328 133.368L238.22 134.761L237.111 136.154L176.022 87.5289L177.131 86.1362ZM242.435 134.282L241.043 133.174L254.406 116.386L255.798 117.494L257.191 118.603L243.828 135.391L242.435 134.282ZM255.319 113.279L254.211 114.671L193.122 66.0456L194.231 64.6529L195.339 63.2602L256.428 111.886L255.319 113.279ZM190.015 65.1318L191.408 66.2404L178.045 83.0292L176.652 81.9207L175.259 80.8122L188.622 64.0233L190.015 65.1318ZM194.231 64.6529L193.122 66.0456C192.595 65.626 191.827 65.7132 191.408 66.2404L190.015 65.1318L188.622 64.0233C190.266 61.9578 193.274 61.6161 195.339 63.2602L194.231 64.6529ZM255.798 117.494L254.406 116.386C254.825 115.858 254.738 115.091 254.211 114.671L255.319 113.279L256.428 111.886C258.493 113.53 258.835 116.537 257.191 118.603L255.798 117.494ZM238.22 134.761L239.328 133.368C239.855 133.788 240.623 133.701 241.043 133.174L242.435 134.282L243.828 135.391C242.184 137.456 239.177 137.798 237.111 136.154L238.22 134.761ZM177.131 86.1362L176.022 87.5289C173.957 85.8849 173.615 82.8777 175.259 80.8122L176.652 81.9207L178.045 83.0292C177.625 83.5564 177.712 84.3239 178.239 84.7435L177.131 86.1362Z" fill="white" mask="url(#path-4-inside-1_264_355)"/>
</g>
<defs>
<filter id="filter0_d_264_355" x="0" y="0" width="1314" height="234" filterUnits="userSpaceOnUse" color-interpolation-filters="sRGB">
<feFlood flood-opacity="0" result="BackgroundImageFix"/>
<feColorMatrix in="SourceAlpha" type="matrix" values="0 0 0 0 0 0 0 0 0 0 0 0 0 0 0 0 0 0 127 0" result="hardAlpha"/>
<feOffset dy="24"/>
<feGaussianBlur stdDeviation="5"/>
<feComposite in2="hardAlpha" operator="out"/>
<feColorMatrix type="matrix" values="0 0 0 0 0 0 0 0 0 0 0 0 0 0 0 0 0 0 0.11 0"/>
<feBlend mode="normal" in2="BackgroundImageFix" result="effect1_dropShadow_264_355"/>
<feBlend mode="normal" in="SourceGraphic" in2="effect1_dropShadow_264_355" result="shape"/>
</filter>
<clipPath id="bgblur_0_264_355_clip_path" transform="translate(-138 -22)"><circle cx="215.968" cy="99.9678" r="56.9678"/>
</clipPath><clipPath id="bgblur_1_264_355_clip_path" transform="translate(-147.1 -35.1)"><path d="M176.652 81.9207C175.62 83.2171 175.835 85.1044 177.131 86.1362L238.22 134.761C239.516 135.793 241.403 135.578 242.435 134.282L255.798 117.494C256.83 116.198 256.616 114.31 255.319 113.279L194.231 64.6529C192.934 63.621 191.047 63.8355 190.015 65.1318L176.652 81.9207Z"/>
</clipPath></defs>
</svg>
