<svg width="1185" height="234" viewBox="0 0 1185 234" fill="none" xmlns="http://www.w3.org/2000/svg">
<g filter="url(#filter0_d_252_345)">
<rect x="10" width="1165" height="200" rx="100" fill="#17132D"/>
<path d="M374.938 122V75.75H382.344L391.156 102.062H391.219L399.875 75.75H407.594V122H402.562V81.4062H402.5L393.469 109.656H388.281L379.281 82.1562H379.219V122H374.938ZM426.781 122V102.5L411.562 75.75H418.656L430.562 96.6875L443.062 75.75H448.906L432.938 102.5V122H426.781ZM523.781 120.938C519.698 122.417 515.812 123.156 512.125 123.156C508.958 123.156 506.094 122.635 503.531 121.594C500.99 120.552 498.875 119.125 497.188 117.312C495.042 115.021 493.448 112.302 492.406 109.156C491.385 106.01 490.875 102.698 490.875 99.2188C490.875 95.7812 491.375 92.4167 492.375 89.125C493.396 85.8333 494.812 83.1458 496.625 81.0625C498.479 78.9375 500.75 77.3333 503.438 76.25C506.146 75.1458 508.99 74.5938 511.969 74.5938C515.427 74.5938 519.188 75.1875 523.25 76.375V82.0625C519.125 80.1667 515.312 79.2188 511.812 79.2188C509.646 79.2188 507.625 79.7188 505.75 80.7188C503.896 81.6979 502.406 83.0312 501.281 84.7188C499.969 86.6979 499 88.9479 498.375 91.4688C497.75 93.9688 497.438 96.5312 497.438 99.1562C497.438 104.823 498.844 109.344 501.656 112.719C503.115 114.448 504.885 115.781 506.969 116.719C509.052 117.656 511.302 118.125 513.719 118.125C516.531 118.125 519.885 117.375 523.781 115.875V120.938ZM533 122V75.75H560.094V80.375H539.156V95.2188H556.906V99.8438H539.156V117.375H561.531V122H533ZM570.562 122V75.75H581.781C586.115 75.75 589.24 76.1562 591.156 76.9688C593.073 77.7812 594.573 79.125 595.656 81C596.76 82.8542 597.312 84.8542 597.312 87C597.312 89.2292 596.677 91.5521 595.406 93.9688C594.156 96.3854 591.688 98.5312 588 100.406L602.406 122H594.938L582.281 102.219H576.719V122H570.562ZM576.719 97.5938H579.969C583.531 97.5938 586.219 96.5938 588.031 94.5938C589.844 92.5729 590.75 90.2083 590.75 87.5C590.75 86.0625 590.448 84.8125 589.844 83.75C589.26 82.6875 588.323 81.8646 587.031 81.2812C585.74 80.6771 583.562 80.375 580.5 80.375H576.719V97.5938ZM619.562 122V80.375H604.156V75.75H641.156V80.375H625.75V122H619.562ZM647.344 122V117.375H658.125V80.375H647.344V75.75H675.094V80.375H664.312V117.375H675.094V122H647.344ZM688.219 122V75.75H716.75V80.375H694.375V97.0625H713.469V101.688H694.375V122H688.219ZM724.469 122V117.375H735.25V80.375H724.469V75.75H752.219V80.375H741.438V117.375H752.219V122H724.469ZM793.719 120.938C789.635 122.417 785.75 123.156 782.062 123.156C778.896 123.156 776.031 122.635 773.469 121.594C770.927 120.552 768.812 119.125 767.125 117.312C764.979 115.021 763.385 112.302 762.344 109.156C761.323 106.01 760.812 102.698 760.812 99.2188C760.812 95.7812 761.312 92.4167 762.312 89.125C763.333 85.8333 764.75 83.1458 766.562 81.0625C768.417 78.9375 770.688 77.3333 773.375 76.25C776.083 75.1458 778.927 74.5938 781.906 74.5938C785.365 74.5938 789.125 75.1875 793.188 76.375V82.0625C789.062 80.1667 785.25 79.2188 781.75 79.2188C779.583 79.2188 777.562 79.7188 775.688 80.7188C773.833 81.6979 772.344 83.0312 771.219 84.7188C769.906 86.6979 768.938 88.9479 768.312 91.4688C767.688 93.9688 767.375 96.5312 767.375 99.1562C767.375 104.823 768.781 109.344 771.594 112.719C773.052 114.448 774.823 115.781 776.906 116.719C778.99 117.656 781.24 118.125 783.656 118.125C786.469 118.125 789.823 117.375 793.719 115.875V120.938ZM796.562 122L812.375 75.75H818.531L834.344 122H827.812L823.344 108.906H806.344L801.875 122H796.562ZM807.906 104.25H821.781L814.844 84L807.906 104.25ZM850.938 122V80.375H835.531V75.75H872.531V80.375H857.125V122H850.938ZM878.719 122V117.375H889.5V80.375H878.719V75.75H906.469V80.375H895.688V117.375H906.469V122H878.719ZM931.156 123.156C925.573 123.156 921.281 120.875 918.281 116.312C915.302 111.75 913.812 105.938 913.812 98.875C913.812 91.7917 915.312 85.9792 918.312 81.4375C921.312 76.875 925.594 74.5938 931.156 74.5938C936.74 74.5938 941.021 76.875 944 81.4375C947 85.9792 948.5 91.7917 948.5 98.875C948.5 105.938 947 111.75 944 116.312C941.021 120.875 936.74 123.156 931.156 123.156ZM931.156 118.531C934.656 118.531 937.333 116.906 939.188 113.656C941.042 110.406 941.969 105.469 941.969 98.8438C941.969 92.2396 941.042 87.3229 939.188 84.0938C937.333 80.8438 934.656 79.2188 931.156 79.2188C927.677 79.2188 925.01 80.8438 923.156 84.0938C921.302 87.3229 920.375 92.2396 920.375 98.8438C920.375 105.469 921.292 110.406 923.125 113.656C924.979 116.906 927.656 118.531 931.156 118.531ZM955.062 122V75.75H960.875L979.281 110.938H979.344V75.75H984.375V122H978.688L960.156 86.5938H960.062V122H955.062ZM994.125 120.938V114.844C999.542 117.302 1004.2 118.531 1008.09 118.531C1009.84 118.531 1011.48 118.208 1013 117.562C1014.54 116.896 1015.71 115.917 1016.5 114.625C1017.31 113.333 1017.72 111.958 1017.72 110.5C1017.72 107.542 1015.89 105.104 1012.22 103.188L1003.25 98.5C999.958 96.7708 997.667 94.9792 996.375 93.125C995.083 91.2708 994.438 89.1042 994.438 86.625C994.438 83.4167 995.562 80.6146 997.812 78.2188C1000.06 75.8021 1003.62 74.5938 1008.5 74.5938C1012.04 74.5938 1016.06 75.2188 1020.56 76.4688V81.8125C1016.06 80.0833 1012.04 79.2188 1008.5 79.2188C1006.85 79.2188 1005.38 79.4688 1004.06 79.9688C1002.77 80.4479 1001.8 81.2188 1001.16 82.2812C1000.51 83.3229 1000.19 84.4375 1000.19 85.625C1000.19 87.0208 1000.64 88.3125 1001.53 89.5C1002.41 90.6875 1004.02 91.8854 1006.38 93.0938L1014.75 97.4375C1018.31 99.2708 1020.73 101.125 1022 103C1023.27 104.875 1023.91 107.042 1023.91 109.5C1023.91 113.375 1022.49 116.625 1019.66 119.25C1016.82 121.854 1012.73 123.156 1007.38 123.156C1006 123.156 1004.46 123.052 1002.75 122.844C1001.04 122.656 998.167 122.021 994.125 120.938Z" fill="white"/>
</g>
<rect x="172.404" y="29" width="96.4466" height="136.721" rx="15" fill="#45A8CC"/>
<rect x="181.945" y="40.6562" width="76.3094" height="113.404" rx="4" fill="#252525"/>
<rect x="196.783" y="54.4375" width="47.6934" height="8.47883" rx="4" fill="url(#paint0_linear_252_345)"/>
<rect x="196.783" y="69.2734" width="47.6934" height="8.47883" rx="4" fill="url(#paint1_linear_252_345)" fill-opacity="0.46"/>
<rect x="196.783" y="83.0508" width="47.6934" height="8.47883" rx="4" fill="url(#paint2_linear_252_345)" fill-opacity="0.46"/>
<rect x="196.783" y="96.8281" width="47.6934" height="8.47883" rx="4" fill="url(#paint3_linear_252_345)" fill-opacity="0.46"/>
<line x1="197.283" y1="116.469" x2="243.977" y2="116.469" stroke="url(#paint4_linear_252_345)" stroke-linecap="round" stroke-dasharray="4 4"/>
<line x1="197.283" y1="122.824" x2="243.977" y2="122.824" stroke="url(#paint5_linear_252_345)" stroke-linecap="round" stroke-dasharray="4 4"/>
<line x1="197.283" y1="129.188" x2="243.977" y2="129.188" stroke="url(#paint6_linear_252_345)" stroke-linecap="round" stroke-dasharray="4 4"/>
<circle cx="203.143" cy="141.342" r="5.29927" fill="#FFB91E" fill-opacity="0.2"/>
<foreignObject x="97" y="57.1133" width="141.381" height="141.379"><div xmlns="http://www.w3.org/1999/xhtml" style="backdrop-filter:blur(13.5px);clip-path:url(#bgblur_0_252_345_clip_path);height:100%;width:100%"></div></foreignObject><g opacity="0.5" data-figma-bg-blur-radius="27">
<mask id="path-13-inside-1_252_345" fill="white">
<path d="M167.69 84.1133C191.82 84.1133 211.381 103.674 211.381 127.804C211.381 151.933 191.82 171.494 167.69 171.494C143.561 171.494 124 151.933 124 127.804C124 103.674 143.561 84.1133 167.69 84.1133Z"/>
</mask>
<path d="M167.69 84.1133C191.82 84.1133 211.381 103.674 211.381 127.804C211.381 151.933 191.82 171.494 167.69 171.494C143.561 171.494 124 151.933 124 127.804C124 103.674 143.561 84.1133 167.69 84.1133Z" fill="white" fill-opacity="0.3"/>
<path d="M167.69 84.1133V82.1133H167.69L167.69 84.1133ZM211.381 127.804H213.381V127.804L211.381 127.804ZM167.69 171.494L167.69 173.494H167.69V171.494ZM124 127.804L122 127.804V127.804H124ZM167.69 84.1133V86.1133C190.715 86.1133 209.381 104.779 209.381 127.804L211.381 127.804L213.381 127.804C213.381 102.57 192.925 82.1133 167.69 82.1133V84.1133ZM211.381 127.804H209.381C209.381 150.829 190.715 169.494 167.69 169.494V171.494V173.494C192.925 173.494 213.381 153.038 213.381 127.804H211.381ZM167.69 171.494L167.69 169.494C144.665 169.494 126 150.829 126 127.804H124H122C122 153.038 142.456 173.494 167.69 173.494L167.69 171.494ZM124 127.804L126 127.804C126 104.779 144.665 86.1133 167.69 86.1133L167.69 84.1133L167.69 82.1133C142.456 82.1133 122 102.57 122 127.804L124 127.804Z" fill="white" mask="url(#path-13-inside-1_252_345)"/>
</g>
<path d="M165.794 102.577C166.406 100.762 168.972 100.762 169.584 102.577L174.53 117.256C175.079 118.883 176.604 119.978 178.32 119.979H194.088C196.043 119.979 196.836 122.494 195.235 123.616L182.67 132.42C181.217 133.438 180.607 135.291 181.174 136.973L186.018 151.348C186.634 153.178 184.556 154.732 182.975 153.624L169.984 144.523C168.607 143.558 166.771 143.558 165.394 144.523L152.403 153.624C150.822 154.732 148.744 153.178 149.36 151.348L154.204 136.973C154.77 135.291 154.161 133.438 152.708 132.42L140.143 123.616C138.541 122.494 139.335 119.979 141.29 119.979H157.057C158.773 119.979 160.299 118.883 160.848 117.256L165.794 102.577Z" stroke="white" stroke-width="2"/>
<defs>
<filter id="filter0_d_252_345" x="0" y="0" width="1185" height="234" filterUnits="userSpaceOnUse" color-interpolation-filters="sRGB">
<feFlood flood-opacity="0" result="BackgroundImageFix"/>
<feColorMatrix in="SourceAlpha" type="matrix" values="0 0 0 0 0 0 0 0 0 0 0 0 0 0 0 0 0 0 127 0" result="hardAlpha"/>
<feOffset dy="24"/>
<feGaussianBlur stdDeviation="5"/>
<feComposite in2="hardAlpha" operator="out"/>
<feColorMatrix type="matrix" values="0 0 0 0 0 0 0 0 0 0 0 0 0 0 0 0 0 0 0.11 0"/>
<feBlend mode="normal" in2="BackgroundImageFix" result="effect1_dropShadow_252_345"/>
<feBlend mode="normal" in="SourceGraphic" in2="effect1_dropShadow_252_345" result="shape"/>
</filter>
<clipPath id="bgblur_0_252_345_clip_path" transform="translate(-97 -57.1133)"><path d="M167.69 84.1133C191.82 84.1133 211.381 103.674 211.381 127.804C211.381 151.933 191.82 171.494 167.69 171.494C143.561 171.494 124 151.933 124 127.804C124 103.674 143.561 84.1133 167.69 84.1133Z"/>
</clipPath><linearGradient id="paint0_linear_252_345" x1="220.804" y1="54.4375" x2="220.804" y2="62.9163" gradientUnits="userSpaceOnUse">
<stop stop-color="#FFD16A"/>
<stop offset="1" stop-color="#FFB000"/>
</linearGradient>
<linearGradient id="paint1_linear_252_345" x1="220.804" y1="69.2734" x2="220.804" y2="77.7523" gradientUnits="userSpaceOnUse">
<stop stop-color="#FFD16A"/>
<stop offset="1" stop-color="#FFB000"/>
</linearGradient>
<linearGradient id="paint2_linear_252_345" x1="220.804" y1="83.0508" x2="220.804" y2="91.5296" gradientUnits="userSpaceOnUse">
<stop stop-color="#FFD16A"/>
<stop offset="1" stop-color="#FFB000"/>
</linearGradient>
<linearGradient id="paint3_linear_252_345" x1="220.804" y1="96.8281" x2="220.804" y2="105.307" gradientUnits="userSpaceOnUse">
<stop stop-color="#FFD16A"/>
<stop offset="1" stop-color="#FFB000"/>
</linearGradient>
<linearGradient id="paint4_linear_252_345" x1="196.783" y1="117.469" x2="244.477" y2="117.469" gradientUnits="userSpaceOnUse">
<stop offset="0.139423" stop-color="#09336F"/>
<stop offset="0.5" stop-color="#FF3E91"/>
<stop offset="0.908654" stop-color="#09336F"/>
</linearGradient>
<linearGradient id="paint5_linear_252_345" x1="196.783" y1="123.824" x2="244.477" y2="123.824" gradientUnits="userSpaceOnUse">
<stop offset="0.139423" stop-color="#09336F"/>
<stop offset="0.5" stop-color="#FF3E91"/>
<stop offset="0.908654" stop-color="#09336F"/>
</linearGradient>
<linearGradient id="paint6_linear_252_345" x1="196.783" y1="130.188" x2="244.477" y2="130.188" gradientUnits="userSpaceOnUse">
<stop offset="0.139423" stop-color="#09336F"/>
<stop offset="0.5" stop-color="#FF3E91"/>
<stop offset="0.908654" stop-color="#09336F"/>
</linearGradient>
</defs>
</svg>
