<svg width="511" height="511" viewBox="0 0 511 511" fill="none" xmlns="http://www.w3.org/2000/svg">
<circle cx="255.5" cy="255.5" r="255.5" fill="#17132D"/>
<path d="M272.417 289.455C326.863 289.455 371 333.593 371 388.039C371 404.759 357.446 418.313 340.727 418.313H170.273C153.554 418.313 140 404.759 140 388.039C140 333.593 184.138 289.455 238.584 289.455H272.417ZM254.675 94.175C255.33 93.9411 256.045 93.9416 256.699 94.1769L359.202 131.073C361.697 131.971 361.885 135.427 359.503 136.591L356 138.302V230.956C356 232.889 354.433 234.456 352.5 234.456C350.567 234.456 349 232.889 349 230.956V141.723L305.761 162.855C315.578 174.429 321.5 189.412 321.5 205.777C321.5 242.445 291.775 272.17 255.107 272.17C218.44 272.17 188.714 242.445 188.714 205.777C188.714 189.193 194.794 174.029 204.848 162.393L151.753 136.353C149.371 135.185 149.566 131.727 152.064 130.834L254.675 94.175Z" fill="#38BDF8"/>
<path d="M272.417 289.455L272.417 283.455H272.417V289.455ZM371 388.039H377V388.039H371ZM340.727 418.313V424.313H340.727L340.727 418.313ZM170.273 418.313L170.273 424.313H170.273V418.313ZM140 388.039H134V388.039H140ZM254.675 94.175L252.657 88.5245L252.656 88.5247L254.675 94.175ZM256.699 94.1769L258.731 88.5315L258.73 88.5311L256.699 94.1769ZM359.202 131.073L361.234 125.428L361.234 125.428L359.202 131.073ZM359.503 136.591L362.136 141.982L362.137 141.982L359.503 136.591ZM356 138.302L353.367 132.911L350 134.555V138.302H356ZM356 230.956L362 230.957V230.956H356ZM349 230.956H343V230.957L349 230.956ZM349 141.723H355V132.112L346.365 136.332L349 141.723ZM305.761 162.855L303.126 157.464L296.194 160.852L301.185 166.736L305.761 162.855ZM321.5 205.777L327.5 205.778V205.777H321.5ZM255.107 272.17V278.17H255.107L255.107 272.17ZM188.714 205.777H182.714V205.778L188.714 205.777ZM204.848 162.393L209.388 166.315L214.472 160.43L207.49 157.006L204.848 162.393ZM151.753 136.353L149.111 141.74L149.111 141.74L151.753 136.353ZM152.064 130.834L150.046 125.184L150.046 125.184L152.064 130.834ZM272.417 289.455L272.417 295.455C323.549 295.455 365 336.907 365 388.039H371H377C377 330.28 330.177 283.456 272.417 283.455L272.417 289.455ZM371 388.039H365C365 401.445 354.132 412.313 340.727 412.313L340.727 418.313L340.727 424.313C360.76 424.312 377 408.073 377 388.039H371ZM340.727 418.313V412.313H170.273V418.313V424.313H340.727V418.313ZM170.273 418.313L170.273 412.313C156.868 412.313 146 401.445 146 388.039H140H134C134 408.073 150.24 424.312 170.273 424.313L170.273 418.313ZM140 388.039H146C146 336.907 187.452 295.455 238.584 295.455V289.455V283.455C180.824 283.455 134 330.279 134 388.039H140ZM238.584 289.455V295.455H272.417V289.455V283.455H238.584V289.455ZM254.675 94.175L256.693 99.8254C256.04 100.058 255.325 100.059 254.668 99.8227L256.699 94.1769L258.73 88.5311C256.765 87.8243 254.619 87.8239 252.657 88.5245L254.675 94.175ZM256.699 94.1769L254.667 99.8223L357.17 136.719L359.202 131.073L361.234 125.428L258.731 88.5315L256.699 94.1769ZM359.202 131.073L357.17 136.719C354.674 135.82 354.487 132.364 356.868 131.2L359.503 136.591L362.137 141.982C369.283 138.49 368.72 128.123 361.234 125.428L359.202 131.073ZM359.503 136.591L356.87 131.2L353.367 132.911L356 138.302L358.633 143.693L362.136 141.982L359.503 136.591ZM356 138.302H350V230.956H356H362V138.302H356ZM356 230.956L350 230.955C350 229.576 351.118 228.456 352.5 228.456V234.456V240.456C357.747 240.456 361.999 236.202 362 230.957L356 230.956ZM352.5 234.456V228.456C353.882 228.456 355 229.576 355 230.955L349 230.956L343 230.957C343.001 236.202 347.253 240.456 352.5 240.456V234.456ZM349 230.956H355V141.723H349H343V230.956H349ZM349 141.723L346.365 136.332L303.126 157.464L305.761 162.855L308.395 168.245L351.635 147.113L349 141.723ZM305.761 162.855L301.185 166.736C310.118 177.267 315.5 190.886 315.5 205.777H321.5H327.5C327.5 187.937 321.039 171.591 310.336 158.973L305.761 162.855ZM321.5 205.777L315.5 205.777C315.5 239.131 288.461 266.17 255.107 266.17L255.107 272.17L255.107 278.17C295.089 278.17 327.5 245.759 327.5 205.778L321.5 205.777ZM255.107 272.17V266.17C221.753 266.17 194.714 239.131 194.714 205.777L188.714 205.777L182.714 205.778C182.714 245.759 215.126 278.17 255.107 278.17V272.17ZM188.714 205.777H194.714C194.714 190.688 200.24 176.903 209.388 166.315L204.848 162.393L200.307 158.47C189.348 171.155 182.714 187.699 182.714 205.777H188.714ZM204.848 162.393L207.49 157.006L154.395 130.966L151.753 136.353L149.111 141.74L202.206 167.78L204.848 162.393ZM151.753 136.353L154.395 130.966C156.776 132.134 156.582 135.592 154.083 136.484L152.064 130.834L150.046 125.184C142.55 127.862 141.966 138.235 149.111 141.74L151.753 136.353ZM152.064 130.834L154.083 136.484L256.693 99.8252L254.675 94.175L252.656 88.5247L150.046 125.184L152.064 130.834Z" fill="white"/>
</svg>
