<svg width="1185" height="234" viewBox="0 0 1185 234" fill="none" xmlns="http://www.w3.org/2000/svg">
<g filter="url(#filter0_d_250_181)">
<rect x="10" width="1165" height="200" rx="100" fill="#17132D"/>
<path d="M375.938 122V75.75H382.094V117.375H403.688V122H375.938ZM412.969 122V117.375H423.75V80.375H412.969V75.75H440.719V80.375H429.938V117.375H440.719V122H412.969ZM462.125 122L446.562 75.75H453.062L465.875 113.781L478.969 75.75H484.219L468.312 122H462.125ZM491.438 122V75.75H518.531V80.375H497.594V95.2188H515.344V99.8438H497.594V117.375H519.969V122H491.438ZM568.562 122V75.75H595.656V80.375H574.719V95.2188H592.469V99.8438H574.719V117.375H597.094V122H568.562ZM616.375 122L600.812 75.75H607.312L620.125 113.781L633.219 75.75H638.469L622.562 122H616.375ZM645.688 122V75.75H672.781V80.375H651.844V95.2188H669.594V99.8438H651.844V117.375H674.219V122H645.688ZM682.125 122V75.75H687.938L706.344 110.938H706.406V75.75H711.438V122H705.75L687.219 86.5938H687.125V122H682.125ZM732.25 122V80.375H716.844V75.75H753.844V80.375H738.438V122H732.25ZM759.75 120.938V114.844C765.167 117.302 769.823 118.531 773.719 118.531C775.469 118.531 777.104 118.208 778.625 117.562C780.167 116.896 781.333 115.917 782.125 114.625C782.938 113.333 783.344 111.958 783.344 110.5C783.344 107.542 781.51 105.104 777.844 103.188L768.875 98.5C765.583 96.7708 763.292 94.9792 762 93.125C760.708 91.2708 760.062 89.1042 760.062 86.625C760.062 83.4167 761.188 80.6146 763.438 78.2188C765.688 75.8021 769.25 74.5938 774.125 74.5938C777.667 74.5938 781.688 75.2188 786.188 76.4688V81.8125C781.688 80.0833 777.667 79.2188 774.125 79.2188C772.479 79.2188 771 79.4688 769.688 79.9688C768.396 80.4479 767.427 81.2188 766.781 82.2812C766.135 83.3229 765.812 84.4375 765.812 85.625C765.812 87.0208 766.26 88.3125 767.156 89.5C768.031 90.6875 769.646 91.8854 772 93.0938L780.375 97.4375C783.938 99.2708 786.354 101.125 787.625 103C788.896 104.875 789.531 107.042 789.531 109.5C789.531 113.375 788.115 116.625 785.281 119.25C782.448 121.854 778.354 123.156 773 123.156C771.625 123.156 770.083 123.052 768.375 122.844C766.667 122.656 763.792 122.021 759.75 120.938Z" fill="white"/>
<rect x="157" y="55.4883" width="129.639" height="86.1522" rx="20" fill="#F4F4F4"/>
<path d="M157 75.4883C157 64.4426 165.954 55.4883 177 55.4883H266.639C277.684 55.4883 286.639 64.4426 286.639 75.4883V78.4622H157V75.4883Z" fill="url(#paint0_linear_250_181)"/>
<rect x="173.41" y="90.7695" width="13.128" height="13.128" rx="2" fill="#454545"/>
<rect x="229.203" y="90.7695" width="13.128" height="13.128" rx="2" fill="#454545"/>
<rect x="257.1" y="90.7695" width="13.128" height="13.128" rx="2" fill="#454545"/>
<rect x="201.305" y="90.7695" width="13.128" height="13.128" rx="2" fill="#454545"/>
<rect x="173.41" y="112.105" width="13.128" height="13.128" rx="2" fill="#454545"/>
<rect x="257.1" y="112.105" width="13.128" height="13.128" rx="2" fill="#454545"/>
<rect x="201.305" y="112.105" width="13.128" height="13.128" rx="2" fill="#454545"/>
<path d="M235.227 112.572C235.526 111.65 236.83 111.65 237.129 112.572L238.072 115.473C238.206 115.885 238.59 116.164 239.023 116.164H242.074C243.043 116.164 243.446 117.404 242.662 117.973L240.193 119.767C239.843 120.022 239.696 120.473 239.83 120.885L240.773 123.787C241.072 124.708 240.018 125.474 239.234 124.905L236.766 123.111C236.415 122.857 235.941 122.857 235.59 123.111L233.122 124.905C232.338 125.474 231.283 124.708 231.583 123.787L232.526 120.885C232.66 120.473 232.513 120.022 232.162 119.767L229.694 117.973C228.91 117.404 229.313 116.164 230.282 116.164H233.333C233.766 116.164 234.15 115.885 234.284 115.473L235.227 112.572Z" fill="#FFA600"/>
<rect x="185.717" y="44" width="14.769" height="22.9739" rx="4" fill="#F4F4F4"/>
<rect x="243.15" y="44" width="14.769" height="22.9739" rx="4" fill="#F4F4F4"/>
</g>
<defs>
<filter id="filter0_d_250_181" x="0" y="0" width="1185" height="234" filterUnits="userSpaceOnUse" color-interpolation-filters="sRGB">
<feFlood flood-opacity="0" result="BackgroundImageFix"/>
<feColorMatrix in="SourceAlpha" type="matrix" values="0 0 0 0 0 0 0 0 0 0 0 0 0 0 0 0 0 0 127 0" result="hardAlpha"/>
<feOffset dy="24"/>
<feGaussianBlur stdDeviation="5"/>
<feComposite in2="hardAlpha" operator="out"/>
<feColorMatrix type="matrix" values="0 0 0 0 0 0 0 0 0 0 0 0 0 0 0 0 0 0 0.11 0"/>
<feBlend mode="normal" in2="BackgroundImageFix" result="effect1_dropShadow_250_181"/>
<feBlend mode="normal" in="SourceGraphic" in2="effect1_dropShadow_250_181" result="shape"/>
</filter>
<linearGradient id="paint0_linear_250_181" x1="157" y1="66.9752" x2="286.639" y2="66.9752" gradientUnits="userSpaceOnUse">
<stop stop-color="#9A0000"/>
<stop offset="1" stop-color="#EB2727"/>
</linearGradient>
</defs>
</svg>
