<svg width="189" height="81" viewBox="0 0 189 81" fill="none" xmlns="http://www.w3.org/2000/svg">
<rect width="189" height="81" rx="40.5" fill="#962630"/>
<path d="M58.1641 42.8672L57.3438 51.5391L40.8984 52.8281C40.9766 48.2839 41.0612 43.7656 41.1523 39.2734C41.2565 34.7812 41.3802 30.263 41.5234 25.7188H51.6797C51.3802 28.5703 51.0938 31.4219 50.8203 34.2734C50.5469 37.112 50.3516 39.9766 50.2344 42.8672C50.8464 42.8932 51.4518 42.9062 52.0508 42.9062C52.6497 42.9062 53.2552 42.9062 53.8672 42.9062C54.5964 42.9062 55.3125 42.8997 56.0156 42.8867C56.7188 42.8737 57.4349 42.8672 58.1641 42.8672ZM83.2227 40.2109C83.2227 41.3958 83.0859 42.5417 82.8125 43.6484C82.5391 44.7422 82.1419 45.7708 81.6211 46.7344C81.1133 47.6979 80.4883 48.5833 79.7461 49.3906C79.0169 50.1849 78.1901 50.8685 77.2656 51.4414C76.3542 52.0143 75.3581 52.4635 74.2773 52.7891C73.1966 53.1016 72.0508 53.2578 70.8398 53.2578C69.668 53.2578 68.5482 53.1081 67.4805 52.8086C66.4258 52.5091 65.4362 52.0924 64.5117 51.5586C63.5872 51.0117 62.7474 50.3607 61.9922 49.6055C61.25 48.8372 60.612 47.9909 60.0781 47.0664C59.5573 46.1289 59.1471 45.1263 58.8477 44.0586C58.5612 42.9909 58.418 41.8776 58.418 40.7188C58.418 39.5859 58.5547 38.4792 58.8281 37.3984C59.1016 36.3047 59.4922 35.276 60 34.3125C60.5208 33.349 61.1458 32.4635 61.875 31.6562C62.6042 30.849 63.418 30.1523 64.3164 29.5664C65.2279 28.9805 66.2109 28.5247 67.2656 28.1992C68.3203 27.8737 69.4336 27.7109 70.6055 27.7109C72.4935 27.7109 74.2122 28.0039 75.7617 28.5898C77.3242 29.1758 78.6523 30.0156 79.7461 31.1094C80.8529 32.1901 81.7057 33.5052 82.3047 35.0547C82.9167 36.5911 83.2227 38.3099 83.2227 40.2109ZM74.5508 40.7188C74.5508 40.1589 74.4661 39.6185 74.2969 39.0977C74.1406 38.5638 73.9062 38.0951 73.5938 37.6914C73.2812 37.2747 72.8906 36.9427 72.4219 36.6953C71.9661 36.4349 71.4388 36.3047 70.8398 36.3047C70.2279 36.3047 69.681 36.4154 69.1992 36.6367C68.7174 36.8581 68.3008 37.1641 67.9492 37.5547C67.6107 37.9323 67.3503 38.3815 67.168 38.9023C66.9857 39.4102 66.8945 39.9505 66.8945 40.5234C66.8945 41.0703 66.9727 41.6172 67.1289 42.1641C67.2852 42.7109 67.5195 43.2057 67.832 43.6484C68.1445 44.0911 68.5286 44.4492 68.9844 44.7227C69.4531 44.9961 69.9935 45.1328 70.6055 45.1328C71.2174 45.1328 71.7643 45.0156 72.2461 44.7812C72.7409 44.5339 73.1576 44.2083 73.4961 43.8047C73.8346 43.388 74.0951 42.9128 74.2773 42.3789C74.4596 41.8451 74.5508 41.2917 74.5508 40.7188ZM108.164 50.0156C107.552 50.7839 106.797 51.4544 105.898 52.0273C105 52.6003 104.036 53.0755 103.008 53.4531C101.979 53.8307 100.924 54.1107 99.8438 54.293C98.763 54.4883 97.7344 54.5859 96.7578 54.5859C94.8698 54.5859 93.1315 54.2474 91.543 53.5703C89.9544 52.8932 88.5807 51.9622 87.4219 50.7773C86.276 49.5794 85.3776 48.1732 84.7266 46.5586C84.0755 44.944 83.75 43.2057 83.75 41.3438C83.75 39.9245 83.9128 38.5378 84.2383 37.1836C84.5638 35.8164 85.026 34.5339 85.625 33.3359C86.237 32.125 86.9792 31.0182 87.8516 30.0156C88.724 29 89.7135 28.1276 90.8203 27.3984C91.9271 26.6693 93.138 26.1029 94.4531 25.6992C95.7682 25.2956 97.1745 25.0938 98.6719 25.0938C99.2318 25.0938 99.8307 25.1198 100.469 25.1719C101.107 25.2109 101.738 25.2891 102.363 25.4062C103.001 25.5104 103.62 25.6602 104.219 25.8555C104.818 26.0508 105.365 26.2917 105.859 26.5781L105.312 34.0391C104.583 33.7656 103.828 33.5833 103.047 33.4922C102.279 33.388 101.523 33.3359 100.781 33.3359C99.7396 33.3359 98.763 33.4987 97.8516 33.8242C96.9531 34.1367 96.1654 34.5924 95.4883 35.1914C94.8242 35.7904 94.2969 36.5195 93.9062 37.3789C93.5156 38.2383 93.3203 39.2083 93.3203 40.2891C93.3203 40.9661 93.4115 41.6237 93.5938 42.2617C93.776 42.8867 94.0495 43.4466 94.4141 43.9414C94.7917 44.4232 95.2539 44.8138 95.8008 45.1133C96.3607 45.4128 97.0052 45.5625 97.7344 45.5625C98.2292 45.5625 98.737 45.4974 99.2578 45.3672C99.7917 45.237 100.247 45.0156 100.625 44.7031L100.703 43.1797L96.0156 43.1016L96.25 37.2422C98.1901 37.1771 100.13 37.125 102.07 37.0859C104.01 37.0339 105.964 36.9688 107.93 36.8906L108.164 50.0156ZM120.215 26.5L118.066 53.1016L109.824 53.5312V27.0469L120.215 26.5ZM148.145 25.9922L146.738 52.4766L136.504 53.4141L131.035 39.2344L130.176 53.6875H121.387L122.09 25.9922L131.855 25.5234L138.613 39.5859L138.926 26.3047L148.145 25.9922Z" fill="white"/>
</svg>
