<svg width="224" height="48" viewBox="0 0 224 48" fill="none" xmlns="http://www.w3.org/2000/svg">
<path d="M27.625 28.4375L26.3125 42.3125L0 44.375C0.125 37.1042 0.260417 29.875 0.40625 22.6875C0.572917 15.5 0.770833 8.27083 1 1H17.25C16.7708 5.5625 16.3125 10.125 15.875 14.6875C15.4375 19.2292 15.125 23.8125 14.9375 28.4375C15.9167 28.4792 16.8854 28.5 17.8438 28.5C18.8021 28.5 19.7708 28.5 20.75 28.5C21.9167 28.5 23.0625 28.4896 24.1875 28.4688C25.3125 28.4479 26.4583 28.4375 27.625 28.4375ZM67.7188 24.1875C67.7188 26.0833 67.5 27.9167 67.0625 29.6875C66.625 31.4375 65.9896 33.0833 65.1562 34.625C64.3438 36.1667 63.3438 37.5833 62.1562 38.875C60.9896 40.1458 59.6667 41.2396 58.1875 42.1562C56.7292 43.0729 55.1354 43.7917 53.4062 44.3125C51.6771 44.8125 49.8438 45.0625 47.9062 45.0625C46.0312 45.0625 44.2396 44.8229 42.5312 44.3438C40.8438 43.8646 39.2604 43.1979 37.7812 42.3438C36.3021 41.4688 34.9583 40.4271 33.75 39.2188C32.5625 37.9896 31.5417 36.6354 30.6875 35.1562C29.8542 33.6562 29.1979 32.0521 28.7188 30.3438C28.2604 28.6354 28.0312 26.8542 28.0312 25C28.0312 23.1875 28.25 21.4167 28.6875 19.6875C29.125 17.9375 29.75 16.2917 30.5625 14.75C31.3958 13.2083 32.3958 11.7917 33.5625 10.5C34.7292 9.20833 36.0312 8.09375 37.4688 7.15625C38.9271 6.21875 40.5 5.48958 42.1875 4.96875C43.875 4.44792 45.6562 4.1875 47.5312 4.1875C50.5521 4.1875 53.3021 4.65625 55.7812 5.59375C58.2812 6.53125 60.4062 7.875 62.1562 9.625C63.9271 11.3542 65.2917 13.4583 66.25 15.9375C67.2292 18.3958 67.7188 21.1458 67.7188 24.1875ZM53.8438 25C53.8438 24.1042 53.7083 23.2396 53.4375 22.4062C53.1875 21.5521 52.8125 20.8021 52.3125 20.1562C51.8125 19.4896 51.1875 18.9583 50.4375 18.5625C49.7083 18.1458 48.8646 17.9375 47.9062 17.9375C46.9271 17.9375 46.0521 18.1146 45.2812 18.4688C44.5104 18.8229 43.8438 19.3125 43.2812 19.9375C42.7396 20.5417 42.3229 21.2604 42.0312 22.0938C41.7396 22.9062 41.5938 23.7708 41.5938 24.6875C41.5938 25.5625 41.7188 26.4375 41.9688 27.3125C42.2188 28.1875 42.5938 28.9792 43.0938 29.6875C43.5938 30.3958 44.2083 30.9688 44.9375 31.4062C45.6875 31.8438 46.5521 32.0625 47.5312 32.0625C48.5104 32.0625 49.3854 31.875 50.1562 31.5C50.9479 31.1042 51.6146 30.5833 52.1562 29.9375C52.6979 29.2708 53.1146 28.5104 53.4062 27.6562C53.6979 26.8021 53.8438 25.9167 53.8438 25ZM107.625 39.875C106.646 41.1042 105.438 42.1771 104 43.0938C102.562 44.0104 101.021 44.7708 99.375 45.375C97.7292 45.9792 96.0417 46.4271 94.3125 46.7188C92.5833 47.0312 90.9375 47.1875 89.375 47.1875C86.3542 47.1875 83.5729 46.6458 81.0312 45.5625C78.4896 44.4792 76.2917 42.9896 74.4375 41.0938C72.6042 39.1771 71.1667 36.9271 70.125 34.3438C69.0833 31.7604 68.5625 28.9792 68.5625 26C68.5625 23.7292 68.8229 21.5104 69.3438 19.3438C69.8646 17.1562 70.6042 15.1042 71.5625 13.1875C72.5417 11.25 73.7292 9.47917 75.125 7.875C76.5208 6.25 78.1042 4.85417 79.875 3.6875C81.6458 2.52083 83.5833 1.61458 85.6875 0.96875C87.7917 0.322917 90.0417 0 92.4375 0C93.3333 0 94.2917 0.0416667 95.3125 0.125C96.3333 0.1875 97.3438 0.3125 98.3438 0.5C99.3646 0.666667 100.354 0.90625 101.312 1.21875C102.271 1.53125 103.146 1.91667 103.938 2.375L103.062 14.3125C101.896 13.875 100.688 13.5833 99.4375 13.4375C98.2083 13.2708 97 13.1875 95.8125 13.1875C94.1458 13.1875 92.5833 13.4479 91.125 13.9688C89.6875 14.4688 88.4271 15.1979 87.3438 16.1562C86.2812 17.1146 85.4375 18.2812 84.8125 19.6562C84.1875 21.0312 83.875 22.5833 83.875 24.3125C83.875 25.3958 84.0208 26.4479 84.3125 27.4688C84.6042 28.4688 85.0417 29.3646 85.625 30.1562C86.2292 30.9271 86.9688 31.5521 87.8438 32.0312C88.7396 32.5104 89.7708 32.75 90.9375 32.75C91.7292 32.75 92.5417 32.6458 93.375 32.4375C94.2292 32.2292 94.9583 31.875 95.5625 31.375L95.6875 28.9375L88.1875 28.8125L88.5625 19.4375C91.6667 19.3333 94.7708 19.25 97.875 19.1875C100.979 19.1042 104.104 19 107.25 18.875L107.625 39.875ZM148.656 24.1875C148.656 26.0833 148.438 27.9167 148 29.6875C147.562 31.4375 146.927 33.0833 146.094 34.625C145.281 36.1667 144.281 37.5833 143.094 38.875C141.927 40.1458 140.604 41.2396 139.125 42.1562C137.667 43.0729 136.073 43.7917 134.344 44.3125C132.615 44.8125 130.781 45.0625 128.844 45.0625C126.969 45.0625 125.177 44.8229 123.469 44.3438C121.781 43.8646 120.198 43.1979 118.719 42.3438C117.24 41.4688 115.896 40.4271 114.688 39.2188C113.5 37.9896 112.479 36.6354 111.625 35.1562C110.792 33.6562 110.135 32.0521 109.656 30.3438C109.198 28.6354 108.969 26.8542 108.969 25C108.969 23.1875 109.188 21.4167 109.625 19.6875C110.062 17.9375 110.688 16.2917 111.5 14.75C112.333 13.2083 113.333 11.7917 114.5 10.5C115.667 9.20833 116.969 8.09375 118.406 7.15625C119.865 6.21875 121.438 5.48958 123.125 4.96875C124.812 4.44792 126.594 4.1875 128.469 4.1875C131.49 4.1875 134.24 4.65625 136.719 5.59375C139.219 6.53125 141.344 7.875 143.094 9.625C144.865 11.3542 146.229 13.4583 147.188 15.9375C148.167 18.3958 148.656 21.1458 148.656 24.1875ZM134.781 25C134.781 24.1042 134.646 23.2396 134.375 22.4062C134.125 21.5521 133.75 20.8021 133.25 20.1562C132.75 19.4896 132.125 18.9583 131.375 18.5625C130.646 18.1458 129.802 17.9375 128.844 17.9375C127.865 17.9375 126.99 18.1146 126.219 18.4688C125.448 18.8229 124.781 19.3125 124.219 19.9375C123.677 20.5417 123.26 21.2604 122.969 22.0938C122.677 22.9062 122.531 23.7708 122.531 24.6875C122.531 25.5625 122.656 26.4375 122.906 27.3125C123.156 28.1875 123.531 28.9792 124.031 29.6875C124.531 30.3958 125.146 30.9688 125.875 31.4062C126.625 31.8438 127.49 32.0625 128.469 32.0625C129.448 32.0625 130.323 31.875 131.094 31.5C131.885 31.1042 132.552 30.5833 133.094 29.9375C133.635 29.2708 134.052 28.5104 134.344 27.6562C134.635 26.8021 134.781 25.9167 134.781 25ZM188.219 11.5C188.219 13.0417 188.146 14.7396 188 16.5938C187.854 18.4479 187.615 20.3646 187.281 22.3438C186.948 24.3229 186.51 26.3333 185.969 28.375C185.448 30.3958 184.792 32.3438 184 34.2188C183.208 36.0938 182.281 37.8542 181.219 39.5C180.177 41.125 178.969 42.5521 177.594 43.7812C176.24 44.9896 174.719 45.9375 173.031 46.625C171.344 47.3333 169.469 47.6875 167.406 47.6875C164.99 47.6875 162.885 47.2917 161.094 46.5C159.323 45.7292 157.802 44.6875 156.531 43.375C155.26 42.0417 154.219 40.5 153.406 38.75C152.594 36.9792 151.958 35.1146 151.5 33.1562C151.042 31.1771 150.719 29.1667 150.531 27.125C150.365 25.0625 150.281 23.0833 150.281 21.1875C150.281 18.2708 150.427 15.3646 150.719 12.4688C151.01 9.55208 151.427 6.64583 151.969 3.75L166.594 4.3125C166.031 7.58333 165.542 10.875 165.125 14.1875C164.729 17.4792 164.531 20.7917 164.531 24.125C164.531 24.4792 164.542 25.0104 164.562 25.7188C164.604 26.4062 164.667 27.1875 164.75 28.0625C164.833 28.9167 164.948 29.8021 165.094 30.7188C165.26 31.6146 165.479 32.4375 165.75 33.1875C166.021 33.9375 166.344 34.5521 166.719 35.0312C167.115 35.5104 167.573 35.75 168.094 35.75C168.698 35.75 169.24 35.4688 169.719 34.9062C170.198 34.3229 170.615 33.5521 170.969 32.5938C171.344 31.6354 171.667 30.5312 171.938 29.2812C172.208 28.0312 172.438 26.7292 172.625 25.375C172.812 24.0208 172.958 22.6667 173.062 21.3125C173.188 19.9583 173.281 18.6979 173.344 17.5312C173.427 16.3646 173.479 15.3333 173.5 14.4375C173.521 13.5417 173.531 12.875 173.531 12.4375C173.531 10.8125 173.5 9.19792 173.438 7.59375C173.396 5.96875 173.323 4.35417 173.219 2.75H187.844C188.094 5.625 188.219 8.54167 188.219 11.5ZM223.75 1.5625L223.438 14.8125L214.125 15.1875L211.75 44.8125L198.562 45.5L198.625 15.875L189.312 16.375L189.688 1.625L223.75 1.5625Z" fill="#DA0000"/>
</svg>
