<svg width="1314" height="234" viewBox="0 0 1314 234" fill="none" xmlns="http://www.w3.org/2000/svg">
<g filter="url(#filter0_d_259_229)">
<rect x="10" width="1294" height="200" rx="100" fill="#17132D"/>
<path d="M374.938 122V75.75H382.344L391.156 102.062H391.219L399.875 75.75H407.594V122H402.562V81.4062H402.5L393.469 109.656H388.281L379.281 82.1562H379.219V122H374.938ZM426.781 122V102.5L411.562 75.75H418.656L430.562 96.6875L443.062 75.75H448.906L432.938 102.5V122H426.781ZM494.438 122V75.75H521.531V80.375H500.594V95.2188H518.344V99.8438H500.594V117.375H522.969V122H494.438ZM542.25 122L526.688 75.75H533.188L546 113.781L559.094 75.75H564.344L548.438 122H542.25ZM571.562 122V75.75H598.656V80.375H577.719V95.2188H595.469V99.8438H577.719V117.375H600.094V122H571.562ZM608 122V75.75H613.812L632.219 110.938H632.281V75.75H637.312V122H631.625L613.094 86.5938H613V122H608ZM658.125 122V80.375H642.719V75.75H679.719V80.375H664.312V122H658.125ZM685.625 120.938V114.844C691.042 117.302 695.698 118.531 699.594 118.531C701.344 118.531 702.979 118.208 704.5 117.562C706.042 116.896 707.208 115.917 708 114.625C708.812 113.333 709.219 111.958 709.219 110.5C709.219 107.542 707.385 105.104 703.719 103.188L694.75 98.5C691.458 96.7708 689.167 94.9792 687.875 93.125C686.583 91.2708 685.938 89.1042 685.938 86.625C685.938 83.4167 687.062 80.6146 689.312 78.2188C691.562 75.8021 695.125 74.5938 700 74.5938C703.542 74.5938 707.562 75.2188 712.062 76.4688V81.8125C707.562 80.0833 703.542 79.2188 700 79.2188C698.354 79.2188 696.875 79.4688 695.562 79.9688C694.271 80.4479 693.302 81.2188 692.656 82.2812C692.01 83.3229 691.688 84.4375 691.688 85.625C691.688 87.0208 692.135 88.3125 693.031 89.5C693.906 90.6875 695.521 91.8854 697.875 93.0938L706.25 97.4375C709.812 99.2708 712.229 101.125 713.5 103C714.771 104.875 715.406 107.042 715.406 109.5C715.406 113.375 713.99 116.625 711.156 119.25C708.323 121.854 704.229 123.156 698.875 123.156C697.5 123.156 695.958 123.052 694.25 122.844C692.542 122.656 689.667 122.021 685.625 120.938Z" fill="white"/>
</g>
<rect x="144" y="62.4883" width="129.639" height="86.1522" rx="20" fill="#F4F4F4"/>
<path d="M144 82.4883C144 71.4426 152.954 62.4883 164 62.4883H253.639C264.684 62.4883 273.639 71.4426 273.639 82.4883V85.4622H144V82.4883Z" fill="url(#paint0_linear_259_229)"/>
<rect x="160.41" y="97.7695" width="13.128" height="13.128" rx="2" fill="#454545"/>
<rect x="216.203" y="97.7695" width="13.128" height="13.128" rx="2" fill="#454545"/>
<rect x="244.1" y="97.7695" width="13.128" height="13.128" rx="2" fill="#454545"/>
<rect x="188.305" y="97.7695" width="13.128" height="13.128" rx="2" fill="#454545"/>
<rect x="160.41" y="119.105" width="13.128" height="13.128" rx="2" fill="#454545"/>
<rect x="244.1" y="119.105" width="13.128" height="13.128" rx="2" fill="#454545"/>
<rect x="188.305" y="119.105" width="13.128" height="13.128" rx="2" fill="#454545"/>
<path d="M222.227 119.572C222.526 118.65 223.83 118.65 224.129 119.572L225.072 122.473C225.206 122.885 225.59 123.164 226.023 123.164H229.074C230.043 123.164 230.446 124.404 229.662 124.973L227.193 126.767C226.843 127.022 226.696 127.473 226.83 127.885L227.773 130.787C228.072 131.708 227.018 132.474 226.234 131.905L223.766 130.111C223.415 129.857 222.941 129.857 222.59 130.111L220.122 131.905C219.338 132.474 218.283 131.708 218.583 130.787L219.526 127.885C219.66 127.473 219.513 127.022 219.162 126.767L216.694 124.973C215.91 124.404 216.313 123.164 217.282 123.164H220.333C220.766 123.164 221.15 122.885 221.284 122.473L222.227 119.572Z" fill="#FFA600"/>
<rect x="172.717" y="51" width="14.769" height="22.9739" rx="4" fill="#F4F4F4"/>
<rect x="230.15" y="51" width="14.769" height="22.9739" rx="4" fill="#F4F4F4"/>
<defs>
<filter id="filter0_d_259_229" x="0" y="0" width="1314" height="234" filterUnits="userSpaceOnUse" color-interpolation-filters="sRGB">
<feFlood flood-opacity="0" result="BackgroundImageFix"/>
<feColorMatrix in="SourceAlpha" type="matrix" values="0 0 0 0 0 0 0 0 0 0 0 0 0 0 0 0 0 0 127 0" result="hardAlpha"/>
<feOffset dy="24"/>
<feGaussianBlur stdDeviation="5"/>
<feComposite in2="hardAlpha" operator="out"/>
<feColorMatrix type="matrix" values="0 0 0 0 0 0 0 0 0 0 0 0 0 0 0 0 0 0 0.11 0"/>
<feBlend mode="normal" in2="BackgroundImageFix" result="effect1_dropShadow_259_229"/>
<feBlend mode="normal" in="SourceGraphic" in2="effect1_dropShadow_259_229" result="shape"/>
</filter>
<linearGradient id="paint0_linear_259_229" x1="144" y1="73.9752" x2="273.639" y2="73.9752" gradientUnits="userSpaceOnUse">
<stop stop-color="#9A0000"/>
<stop offset="1" stop-color="#EB2727"/>
</linearGradient>
</defs>
</svg>
