<svg width="1185" height="234" viewBox="0 0 1185 234" fill="none" xmlns="http://www.w3.org/2000/svg">
<g filter="url(#filter0_d_253_559)">
<rect x="10" width="1165" height="200" rx="100" fill="#17132D"/>
<path d="M434.938 122V75.75H442.344L451.156 102.062H451.219L459.875 75.75H467.594V122H462.562V81.4062H462.5L453.469 109.656H448.281L439.281 82.1562H439.219V122H434.938ZM486.781 122V102.5L471.562 75.75H478.656L490.562 96.6875L503.062 75.75H508.906L492.938 102.5V122H486.781ZM554.438 122V75.75H581.531V80.375H560.594V95.2188H578.344V99.8438H560.594V117.375H582.969V122H554.438ZM602.25 122L586.688 75.75H593.188L606 113.781L619.094 75.75H624.344L608.438 122H602.25ZM631.562 122V75.75H658.656V80.375H637.719V95.2188H655.469V99.8438H637.719V117.375H660.094V122H631.562ZM668 122V75.75H673.812L692.219 110.938H692.281V75.75H697.312V122H691.625L673.094 86.5938H673V122H668ZM718.125 122V80.375H702.719V75.75H739.719V80.375H724.312V122H718.125ZM745.625 120.938V114.844C751.042 117.302 755.698 118.531 759.594 118.531C761.344 118.531 762.979 118.208 764.5 117.562C766.042 116.896 767.208 115.917 768 114.625C768.812 113.333 769.219 111.958 769.219 110.5C769.219 107.542 767.385 105.104 763.719 103.188L754.75 98.5C751.458 96.7708 749.167 94.9792 747.875 93.125C746.583 91.2708 745.938 89.1042 745.938 86.625C745.938 83.4167 747.062 80.6146 749.312 78.2188C751.562 75.8021 755.125 74.5938 760 74.5938C763.542 74.5938 767.562 75.2188 772.062 76.4688V81.8125C767.562 80.0833 763.542 79.2188 760 79.2188C758.354 79.2188 756.875 79.4688 755.562 79.9688C754.271 80.4479 753.302 81.2188 752.656 82.2812C752.01 83.3229 751.688 84.4375 751.688 85.625C751.688 87.0208 752.135 88.3125 753.031 89.5C753.906 90.6875 755.521 91.8854 757.875 93.0938L766.25 97.4375C769.812 99.2708 772.229 101.125 773.5 103C774.771 104.875 775.406 107.042 775.406 109.5C775.406 113.375 773.99 116.625 771.156 119.25C768.323 121.854 764.229 123.156 758.875 123.156C757.5 123.156 755.958 123.052 754.25 122.844C752.542 122.656 749.667 122.021 745.625 120.938Z" fill="white"/>
<rect x="145" y="44" width="158" height="105" rx="20" fill="#F4F4F4"/>
<path d="M145 64C145 52.9543 153.954 44 165 44H283C294.046 44 303 52.9543 303 64V72H145V64Z" fill="url(#paint0_linear_253_559)"/>
<rect x="165" y="87" width="16" height="16" rx="2" fill="#454545"/>
<rect x="233" y="87" width="16" height="16" rx="2" fill="#454545"/>
<rect x="267" y="87" width="16" height="16" rx="2" fill="#454545"/>
<rect x="199" y="87" width="16" height="16" rx="2" fill="#454545"/>
<rect x="165" y="113" width="16" height="16" rx="2" fill="#454545"/>
<rect x="267" y="113" width="16" height="16" rx="2" fill="#454545"/>
<rect x="199" y="113" width="16" height="16" rx="2" fill="#454545"/>
<path d="M240.549 112.927C240.848 112.006 242.152 112.006 242.451 112.927L243.857 117.255C243.991 117.667 244.375 117.946 244.808 117.946H249.359C250.328 117.946 250.731 119.186 249.947 119.755L246.265 122.43C245.915 122.685 245.768 123.136 245.902 123.548L247.308 127.877C247.608 128.798 246.553 129.564 245.77 128.995L242.088 126.32C241.737 126.065 241.263 126.065 240.912 126.32L237.23 128.995C236.447 129.564 235.392 128.798 235.692 127.877L237.098 123.548C237.232 123.136 237.085 122.685 236.735 122.43L233.053 119.755C232.269 119.186 232.672 117.946 233.641 117.946H238.192C238.625 117.946 239.009 117.667 239.143 117.255L240.549 112.927Z" fill="#FFA600"/>
<rect x="180" y="30" width="18" height="28" rx="4" fill="#F4F4F4"/>
<rect x="250" y="30" width="18" height="28" rx="4" fill="#F4F4F4"/>
<path d="M307.479 65.6579C310.39 62.2528 315.662 62.2764 318.542 65.7072L359.668 114.693C362.548 118.124 361.659 123.32 357.801 125.597L313.518 151.737C310.467 153.539 306.559 152.87 304.28 150.156L274.026 114.12C271.747 111.405 271.765 107.441 274.068 104.747L307.479 65.6579Z" fill="white" fill-opacity="0.08" stroke="white" stroke-width="1.5"/>
<path d="M277.314 174.9C274.418 178.356 269.104 178.358 266.205 174.905L241.707 145.725C238.808 142.272 239.73 137.038 243.635 134.784L267.734 120.879C270.78 119.121 274.648 119.803 276.91 122.497L295.177 144.255C297.438 146.949 297.44 150.876 295.182 153.572L277.314 174.9Z" fill="white" fill-opacity="0.08" stroke="white" stroke-width="1.5"/>
</g>
<defs>
<filter id="filter0_d_253_559" x="0" y="0" width="1185" height="234" filterUnits="userSpaceOnUse" color-interpolation-filters="sRGB">
<feFlood flood-opacity="0" result="BackgroundImageFix"/>
<feColorMatrix in="SourceAlpha" type="matrix" values="0 0 0 0 0 0 0 0 0 0 0 0 0 0 0 0 0 0 127 0" result="hardAlpha"/>
<feOffset dy="24"/>
<feGaussianBlur stdDeviation="5"/>
<feComposite in2="hardAlpha" operator="out"/>
<feColorMatrix type="matrix" values="0 0 0 0 0 0 0 0 0 0 0 0 0 0 0 0 0 0 0.11 0"/>
<feBlend mode="normal" in2="BackgroundImageFix" result="effect1_dropShadow_253_559"/>
<feBlend mode="normal" in="SourceGraphic" in2="effect1_dropShadow_253_559" result="shape"/>
</filter>
<linearGradient id="paint0_linear_253_559" x1="145" y1="58" x2="303" y2="58" gradientUnits="userSpaceOnUse">
<stop stop-color="#9A0000"/>
<stop offset="1" stop-color="#EB2727"/>
</linearGradient>
</defs>
</svg>
