<svg width="1185" height="234" viewBox="0 0 1185 234" fill="none" xmlns="http://www.w3.org/2000/svg">
<g filter="url(#filter0_d_255_55)">
<rect x="10" width="1165" height="200" rx="100" fill="#17132D"/>
<path d="M371.938 122V75.75H379.344L388.156 102.062H388.219L396.875 75.75H404.594V122H399.562V81.4062H399.5L390.469 109.656H385.281L376.281 82.1562H376.219V122H371.938ZM423.781 122V102.5L408.562 75.75H415.656L427.562 96.6875L440.062 75.75H445.906L429.938 102.5V122H423.781ZM491.438 122V75.75H518.531V80.375H497.594V95.2188H515.344V99.8438H497.594V117.375H519.969V122H491.438ZM539.25 122L523.688 75.75H530.188L543 113.781L556.094 75.75H561.344L545.438 122H539.25ZM568.562 122V75.75H595.656V80.375H574.719V95.2188H592.469V99.8438H574.719V117.375H597.094V122H568.562ZM605 122V75.75H610.812L629.219 110.938H629.281V75.75H634.312V122H628.625L610.094 86.5938H610V122H605ZM655.125 122V80.375H639.719V75.75H676.719V80.375H661.312V122H655.125ZM682.625 120.938V114.844C688.042 117.302 692.698 118.531 696.594 118.531C698.344 118.531 699.979 118.208 701.5 117.562C703.042 116.896 704.208 115.917 705 114.625C705.812 113.333 706.219 111.958 706.219 110.5C706.219 107.542 704.385 105.104 700.719 103.188L691.75 98.5C688.458 96.7708 686.167 94.9792 684.875 93.125C683.583 91.2708 682.938 89.1042 682.938 86.625C682.938 83.4167 684.062 80.6146 686.312 78.2188C688.562 75.8021 692.125 74.5938 697 74.5938C700.542 74.5938 704.562 75.2188 709.062 76.4688V81.8125C704.562 80.0833 700.542 79.2188 697 79.2188C695.354 79.2188 693.875 79.4688 692.562 79.9688C691.271 80.4479 690.302 81.2188 689.656 82.2812C689.01 83.3229 688.688 84.4375 688.688 85.625C688.688 87.0208 689.135 88.3125 690.031 89.5C690.906 90.6875 692.521 91.8854 694.875 93.0938L703.25 97.4375C706.812 99.2708 709.229 101.125 710.5 103C711.771 104.875 712.406 107.042 712.406 109.5C712.406 113.375 710.99 116.625 708.156 119.25C705.323 121.854 701.229 123.156 695.875 123.156C694.5 123.156 692.958 123.052 691.25 122.844C689.542 122.656 686.667 122.021 682.625 120.938Z" fill="white"/>
<rect x="157" y="55.4883" width="129.639" height="86.1522" rx="20" fill="#F4F4F4"/>
<path d="M157 75.4883C157 64.4426 165.954 55.4883 177 55.4883H266.639C277.684 55.4883 286.639 64.4426 286.639 75.4883V78.4622H157V75.4883Z" fill="url(#paint0_linear_255_55)"/>
<rect x="173.41" y="90.7695" width="13.128" height="13.128" rx="2" fill="#454545"/>
<rect x="229.203" y="90.7695" width="13.128" height="13.128" rx="2" fill="#454545"/>
<rect x="257.1" y="90.7695" width="13.128" height="13.128" rx="2" fill="#454545"/>
<rect x="201.305" y="90.7695" width="13.128" height="13.128" rx="2" fill="#454545"/>
<rect x="173.41" y="112.105" width="13.128" height="13.128" rx="2" fill="#454545"/>
<rect x="257.1" y="112.105" width="13.128" height="13.128" rx="2" fill="#454545"/>
<rect x="201.305" y="112.105" width="13.128" height="13.128" rx="2" fill="#454545"/>
<path d="M235.227 112.572C235.526 111.65 236.83 111.65 237.129 112.572L238.072 115.473C238.206 115.885 238.59 116.164 239.023 116.164H242.074C243.043 116.164 243.446 117.404 242.662 117.973L240.193 119.767C239.843 120.022 239.696 120.473 239.83 120.885L240.773 123.787C241.072 124.708 240.018 125.474 239.234 124.905L236.766 123.111C236.415 122.857 235.941 122.857 235.59 123.111L233.122 124.905C232.338 125.474 231.283 124.708 231.583 123.787L232.526 120.885C232.66 120.473 232.513 120.022 232.162 119.767L229.694 117.973C228.91 117.404 229.313 116.164 230.282 116.164H233.333C233.766 116.164 234.15 115.885 234.284 115.473L235.227 112.572Z" fill="#FFA600"/>
<rect x="185.717" y="44" width="14.769" height="22.9739" rx="4" fill="#F4F4F4"/>
<rect x="243.15" y="44" width="14.769" height="22.9739" rx="4" fill="#F4F4F4"/>
</g>
<defs>
<filter id="filter0_d_255_55" x="0" y="0" width="1185" height="234" filterUnits="userSpaceOnUse" color-interpolation-filters="sRGB">
<feFlood flood-opacity="0" result="BackgroundImageFix"/>
<feColorMatrix in="SourceAlpha" type="matrix" values="0 0 0 0 0 0 0 0 0 0 0 0 0 0 0 0 0 0 127 0" result="hardAlpha"/>
<feOffset dy="24"/>
<feGaussianBlur stdDeviation="5"/>
<feComposite in2="hardAlpha" operator="out"/>
<feColorMatrix type="matrix" values="0 0 0 0 0 0 0 0 0 0 0 0 0 0 0 0 0 0 0.11 0"/>
<feBlend mode="normal" in2="BackgroundImageFix" result="effect1_dropShadow_255_55"/>
<feBlend mode="normal" in="SourceGraphic" in2="effect1_dropShadow_255_55" result="shape"/>
</filter>
<linearGradient id="paint0_linear_255_55" x1="157" y1="66.9752" x2="286.639" y2="66.9752" gradientUnits="userSpaceOnUse">
<stop stop-color="#9A0000"/>
<stop offset="1" stop-color="#EB2727"/>
</linearGradient>
</defs>
</svg>
