<svg width="1185" height="234" viewBox="0 0 1185 234" fill="none" xmlns="http://www.w3.org/2000/svg">
<g filter="url(#filter0_d_250_180)">
<rect x="10" width="1165" height="200" rx="100" fill="#17132D"/>
<path d="M370.938 122V75.75H378.344L387.156 102.062H387.219L395.875 75.75H403.594V122H398.562V81.4062H398.5L389.469 109.656H384.281L375.281 82.1562H375.219V122H370.938ZM422.781 122V102.5L407.562 75.75H414.656L426.562 96.6875L439.062 75.75H444.906L428.938 102.5V122H422.781ZM489.438 122V75.75H500.656C504.99 75.75 508.115 76.1562 510.031 76.9688C511.948 77.7812 513.448 79.125 514.531 81C515.635 82.8542 516.188 84.8542 516.188 87C516.188 89.2292 515.552 91.5521 514.281 93.9688C513.031 96.3854 510.562 98.5312 506.875 100.406L521.281 122H513.812L501.156 102.219H495.594V122H489.438ZM495.594 97.5938H498.844C502.406 97.5938 505.094 96.5938 506.906 94.5938C508.719 92.5729 509.625 90.2083 509.625 87.5C509.625 86.0625 509.323 84.8125 508.719 83.75C508.135 82.6875 507.198 81.8646 505.906 81.2812C504.615 80.6771 502.438 80.375 499.375 80.375H495.594V97.5938ZM529 122V75.75H556.094V80.375H535.156V95.2188H552.906V99.8438H535.156V117.375H557.531V122H529ZM596.094 120.969C592.865 122.052 590.51 122.688 589.031 122.875C587.552 123.062 586.125 123.156 584.75 123.156C580.312 123.156 576.521 122.24 573.375 120.406C570.25 118.573 567.771 115.771 565.938 112C564.125 108.229 563.219 103.885 563.219 98.9688C563.219 94.3021 564.052 90.0833 565.719 86.3125C567.385 82.5208 569.844 79.625 573.094 77.625C576.344 75.6042 580.167 74.5938 584.562 74.5938C587.812 74.5938 591.5 75.1667 595.625 76.3125V82C591.792 80.1458 588.01 79.2188 584.281 79.2188C581.49 79.2188 578.99 79.9792 576.781 81.5C574.573 83 572.854 85.3854 571.625 88.6562C570.396 91.9062 569.781 95.4688 569.781 99.3438C569.781 103.26 570.448 106.604 571.781 109.375C573.135 112.125 575.073 114.281 577.594 115.844C580.135 117.385 582.906 118.156 585.906 118.156C586.948 118.156 588.292 118.01 589.938 117.719V102.094H596.094V120.969ZM604.781 122V117.375H615.562V80.375H604.781V75.75H632.531V80.375H621.75V117.375H632.531V122H604.781ZM643.062 120.938V114.844C648.479 117.302 653.135 118.531 657.031 118.531C658.781 118.531 660.417 118.208 661.938 117.562C663.479 116.896 664.646 115.917 665.438 114.625C666.25 113.333 666.656 111.958 666.656 110.5C666.656 107.542 664.823 105.104 661.156 103.188L652.188 98.5C648.896 96.7708 646.604 94.9792 645.312 93.125C644.021 91.2708 643.375 89.1042 643.375 86.625C643.375 83.4167 644.5 80.6146 646.75 78.2188C649 75.8021 652.562 74.5938 657.438 74.5938C660.979 74.5938 665 75.2188 669.5 76.4688V81.8125C665 80.0833 660.979 79.2188 657.438 79.2188C655.792 79.2188 654.312 79.4688 653 79.9688C651.708 80.4479 650.74 81.2188 650.094 82.2812C649.448 83.3229 649.125 84.4375 649.125 85.625C649.125 87.0208 649.573 88.3125 650.469 89.5C651.344 90.6875 652.958 91.8854 655.312 93.0938L663.688 97.4375C667.25 99.2708 669.667 101.125 670.938 103C672.208 104.875 672.844 107.042 672.844 109.5C672.844 113.375 671.427 116.625 668.594 119.25C665.76 121.854 661.667 123.156 656.312 123.156C654.938 123.156 653.396 123.052 651.688 122.844C649.979 122.656 647.104 122.021 643.062 120.938ZM692.688 122V80.375H677.281V75.75H714.281V80.375H698.875V122H692.688ZM721.812 122V75.75H748.906V80.375H727.969V95.2188H745.719V99.8438H727.969V117.375H750.344V122H721.812ZM759.375 122V75.75H770.594C774.927 75.75 778.052 76.1562 779.969 76.9688C781.885 77.7812 783.385 79.125 784.469 81C785.573 82.8542 786.125 84.8542 786.125 87C786.125 89.2292 785.49 91.5521 784.219 93.9688C782.969 96.3854 780.5 98.5312 776.812 100.406L791.219 122H783.75L771.094 102.219H765.531V122H759.375ZM765.531 97.5938H768.781C772.344 97.5938 775.031 96.5938 776.844 94.5938C778.656 92.5729 779.562 90.2083 779.562 87.5C779.562 86.0625 779.26 84.8125 778.656 83.75C778.073 82.6875 777.135 81.8646 775.844 81.2812C774.552 80.6771 772.375 80.375 769.312 80.375H765.531V97.5938ZM792.562 122L808.375 75.75H814.531L830.344 122H823.812L819.344 108.906H802.344L797.875 122H792.562ZM803.906 104.25H817.781L810.844 84L803.906 104.25ZM846.938 122V80.375H831.531V75.75H868.531V80.375H853.125V122H846.938ZM874.719 122V117.375H885.5V80.375H874.719V75.75H902.469V80.375H891.688V117.375H902.469V122H874.719ZM927.156 123.156C921.573 123.156 917.281 120.875 914.281 116.312C911.302 111.75 909.812 105.938 909.812 98.875C909.812 91.7917 911.312 85.9792 914.312 81.4375C917.312 76.875 921.594 74.5938 927.156 74.5938C932.74 74.5938 937.021 76.875 940 81.4375C943 85.9792 944.5 91.7917 944.5 98.875C944.5 105.938 943 111.75 940 116.312C937.021 120.875 932.74 123.156 927.156 123.156ZM927.156 118.531C930.656 118.531 933.333 116.906 935.188 113.656C937.042 110.406 937.969 105.469 937.969 98.8438C937.969 92.2396 937.042 87.3229 935.188 84.0938C933.333 80.8438 930.656 79.2188 927.156 79.2188C923.677 79.2188 921.01 80.8438 919.156 84.0938C917.302 87.3229 916.375 92.2396 916.375 98.8438C916.375 105.469 917.292 110.406 919.125 113.656C920.979 116.906 923.656 118.531 927.156 118.531ZM951.062 122V75.75H956.875L975.281 110.938H975.344V75.75H980.375V122H974.688L956.156 86.5938H956.062V122H951.062ZM990.125 120.938V114.844C995.542 117.302 1000.2 118.531 1004.09 118.531C1005.84 118.531 1007.48 118.208 1009 117.562C1010.54 116.896 1011.71 115.917 1012.5 114.625C1013.31 113.333 1013.72 111.958 1013.72 110.5C1013.72 107.542 1011.89 105.104 1008.22 103.188L999.25 98.5C995.958 96.7708 993.667 94.9792 992.375 93.125C991.083 91.2708 990.438 89.1042 990.438 86.625C990.438 83.4167 991.562 80.6146 993.812 78.2188C996.062 75.8021 999.625 74.5938 1004.5 74.5938C1008.04 74.5938 1012.06 75.2188 1016.56 76.4688V81.8125C1012.06 80.0833 1008.04 79.2188 1004.5 79.2188C1002.85 79.2188 1001.38 79.4688 1000.06 79.9688C998.771 80.4479 997.802 81.2188 997.156 82.2812C996.51 83.3229 996.188 84.4375 996.188 85.625C996.188 87.0208 996.635 88.3125 997.531 89.5C998.406 90.6875 1000.02 91.8854 1002.38 93.0938L1010.75 97.4375C1014.31 99.2708 1016.73 101.125 1018 103C1019.27 104.875 1019.91 107.042 1019.91 109.5C1019.91 113.375 1018.49 116.625 1015.66 119.25C1012.82 121.854 1008.73 123.156 1003.38 123.156C1002 123.156 1000.46 123.052 998.75 122.844C997.042 122.656 994.167 122.021 990.125 120.938Z" fill="white"/>
<g clip-path="url(#clip0_250_180)">
<rect x="149.348" y="57.0586" width="194.002" height="119.016" rx="20" fill="url(#paint0_linear_250_180)"/>
<path d="M189.69 95.2352C185.411 69.6413 141.654 70.9519 141.654 70.9519L126.503 178.677L328.259 229.258L349.458 159.09C349.458 159.09 321.742 168.672 306.321 162.556C285.301 154.219 289.753 121.625 270.027 109.935C242.449 93.5919 225.151 134.727 205.908 127.183C186.665 119.639 191.338 105.085 189.69 95.2352Z" fill="url(#paint1_linear_250_180)"/>
<path d="M193.322 133.243C175.734 107.997 127.097 131.058 127.097 131.058L163.762 253.732L416.266 207.943L405.147 122.43C405.147 122.43 378.704 146.394 358.282 147.488C330.446 148.979 319.203 111.928 291.152 109.194C251.934 105.371 252.966 157.913 227.526 159.372C202.086 160.831 200.09 142.959 193.322 133.243Z" fill="url(#paint2_linear_250_180)"/>
<path d="M290.582 88.6128L269.374 87.5972L280.858 69.7383L290.582 88.6128Z" stroke="#710094" stroke-width="2"/>
<line x1="263.676" y1="61.5451" x2="265.809" y2="66.1457" stroke="#D79A00" stroke-width="2" stroke-linecap="round"/>
</g>
<path d="M219.05 42.6441C219.731 42.9114 220.428 43.479 221.118 44.3649C221.805 45.247 222.454 46.4051 223.049 47.7858C224.238 50.5473 225.176 54.1147 225.791 57.9261C226.405 61.7334 226.691 65.7548 226.591 69.4129C226.49 73.0838 226.001 76.3337 225.1 78.6293C223.248 83.3506 217.552 92.6374 210.941 100.209C207.638 103.992 204.143 107.304 200.827 109.4C197.484 111.513 194.499 112.282 192.1 111.341C189.704 110.401 188.066 107.822 187.093 104.017C186.129 100.244 185.873 95.4626 186.079 90.4649C186.492 80.4634 188.741 69.8204 190.595 65.0932C191.497 62.7932 193.324 60.065 195.704 57.2882C198.077 54.5206 200.965 51.7438 203.948 49.3479C206.934 46.9493 209.992 44.9516 212.698 43.7203C214.052 43.1046 215.296 42.6903 216.386 42.5064C217.48 42.3218 218.369 42.3771 219.05 42.6441Z" fill="white" fill-opacity="0.3" stroke="white" stroke-width="1.5"/>
<path d="M200.832 115.128C201.195 115.216 201.409 115.336 201.532 115.463C201.729 115.667 201.911 116.156 201.377 117.516C200.329 120.19 196.858 125.338 192.933 129.559C190.976 131.664 188.937 133.504 187.067 134.68C185.159 135.88 183.6 136.28 182.501 135.849C181.402 135.418 180.531 134.065 179.947 131.887C179.375 129.753 179.131 127.018 179.127 124.143C179.12 118.38 180.075 112.245 181.124 109.571C181.658 108.21 182.124 107.976 182.406 107.96C182.583 107.951 182.822 108.008 183.148 108.191C183.473 108.371 183.837 108.648 184.253 109.006C184.668 109.363 185.11 109.78 185.597 110.236C186.08 110.688 186.601 111.173 187.159 111.647C188.272 112.594 189.556 113.522 191.032 114.101C192.508 114.68 194.081 114.872 195.541 114.935C196.272 114.967 196.985 114.966 197.646 114.963C198.313 114.96 198.921 114.954 199.468 114.974C200.016 114.995 200.471 115.04 200.832 115.128Z" fill="white" fill-opacity="0.3" stroke="white" stroke-width="1.2"/>
<path d="M181.714 70.4631C182.918 70.5948 183.567 71.0937 183.947 71.787C184.359 72.5395 184.509 73.6182 184.457 74.9776C184.407 76.3228 184.166 77.837 183.891 79.4022C183.619 80.9471 183.312 82.5504 183.153 83.9996C182.836 86.9005 182.608 91.1989 181.756 94.7464C181.331 96.5187 180.768 98.0081 180.023 99.0031C179.305 99.9626 178.46 100.418 177.367 100.298C174.473 99.9815 170.905 99.7471 168.104 98.8996C166.71 98.4775 165.598 97.928 164.877 97.2134C164.189 96.5313 163.825 95.6708 163.955 94.4846C164.093 93.2146 164.919 91.0304 166.247 88.4038C167.558 85.8089 169.313 82.8725 171.224 80.1295C173.138 77.3824 175.192 74.8546 177.1 73.0615C178.054 72.1644 178.952 71.4708 179.758 71.0231C180.575 70.5697 181.225 70.4096 181.714 70.4631Z" fill="white" fill-opacity="0.3" stroke="white" stroke-width="1.5"/>
<path d="M228.024 88.1133C227.063 87.3772 226.249 87.2901 225.495 87.5289C224.677 87.7882 223.824 88.4654 222.923 89.4839C222.03 90.4917 221.158 91.7531 220.277 93.0751C219.406 94.38 218.521 95.7519 217.635 96.9096C215.861 99.2268 213.057 102.492 211.223 105.647C210.307 107.222 209.685 108.688 209.537 109.922C209.394 111.112 209.69 112.024 210.564 112.693C212.875 114.463 215.618 116.757 218.228 118.078C219.528 118.736 220.712 119.107 221.727 119.088C222.696 119.07 223.553 118.699 224.279 117.751C225.055 116.737 225.967 114.587 226.82 111.771C227.664 108.988 228.423 105.653 228.935 102.349C229.448 99.0404 229.708 95.7938 229.567 93.1795C229.496 91.8715 229.326 90.7501 229.052 89.8694C228.775 88.9774 228.415 88.4123 228.024 88.1133Z" fill="white" fill-opacity="0.3" stroke="white" stroke-width="1.5"/>
<path d="M182.092 107.223C189.196 113.702 193.502 115.226 202.535 115.484L184.615 159.83L164.171 151.569L182.092 107.223Z" fill="#D9D9D9" fill-opacity="0.2"/>
</g>
<defs>
<filter id="filter0_d_250_180" x="0" y="0" width="1185" height="234" filterUnits="userSpaceOnUse" color-interpolation-filters="sRGB">
<feFlood flood-opacity="0" result="BackgroundImageFix"/>
<feColorMatrix in="SourceAlpha" type="matrix" values="0 0 0 0 0 0 0 0 0 0 0 0 0 0 0 0 0 0 127 0" result="hardAlpha"/>
<feOffset dy="24"/>
<feGaussianBlur stdDeviation="5"/>
<feComposite in2="hardAlpha" operator="out"/>
<feColorMatrix type="matrix" values="0 0 0 0 0 0 0 0 0 0 0 0 0 0 0 0 0 0 0.11 0"/>
<feBlend mode="normal" in2="BackgroundImageFix" result="effect1_dropShadow_250_180"/>
<feBlend mode="normal" in="SourceGraphic" in2="effect1_dropShadow_250_180" result="shape"/>
</filter>
<linearGradient id="paint0_linear_250_180" x1="149.348" y1="116.91" x2="343.35" y2="116.91" gradientUnits="userSpaceOnUse">
<stop stop-color="#2D1E75"/>
<stop offset="1" stop-color="#BD290B"/>
</linearGradient>
<linearGradient id="paint1_linear_250_180" x1="248.848" y1="108.559" x2="223.501" y2="202.995" gradientUnits="userSpaceOnUse">
<stop stop-color="#212121"/>
<stop offset="1" stop-color="#212121" stop-opacity="0.2"/>
</linearGradient>
<linearGradient id="paint2_linear_250_180" x1="266.607" y1="118.205" x2="285.338" y2="231.689" gradientUnits="userSpaceOnUse">
<stop stop-color="#1D1A1A"/>
<stop offset="1" stop-color="#1D1A1A" stop-opacity="0.2"/>
</linearGradient>
<clipPath id="clip0_250_180">
<rect x="149.348" y="57.0117" width="140.654" height="86.5953" rx="20" fill="white"/>
</clipPath>
</defs>
</svg>
