<svg width="550" height="105" viewBox="0 0 550 105" fill="none" xmlns="http://www.w3.org/2000/svg">
<rect width="550" height="105" rx="25" transform="matrix(-1 0 0 1 550 0)" fill="url(#paint0_linear_217_164)"/>
<path d="M64.7305 66V37.0938H68.7539L83.3047 59.418V37.0938H86.8203V66H82.8164L68.2461 43.6758V66H64.7305ZM109.965 65.3164C107.387 66.0977 105.18 66.4883 103.344 66.4883C100.206 66.4883 97.6536 65.4531 95.6875 63.3828C93.7214 61.2995 92.7383 58.6042 92.7383 55.2969C92.7383 52.0807 93.6042 49.444 95.3359 47.3867C97.0807 45.3294 99.3073 44.3008 102.016 44.3008C104.581 44.3008 106.56 45.2188 107.953 47.0547C109.359 48.8776 110.062 51.4688 110.062 54.8281L110.043 56H96.6641C97.224 61.0391 99.6914 63.5586 104.066 63.5586C105.668 63.5586 107.634 63.1289 109.965 62.2695V65.3164ZM96.8398 53.1094H106.195C106.195 49.1641 104.724 47.1914 101.781 47.1914C98.8255 47.1914 97.1784 49.1641 96.8398 53.1094ZM114.594 66L122.66 55.043L114.828 44.7891H119.398L125.59 52.9531L131.195 44.7891H134.945L127.602 55.5508L135.59 66H131.02L124.633 57.6016L118.461 66H114.594ZM150.707 66C149.522 66.3255 148.493 66.4883 147.621 66.4883C145.668 66.4883 144.145 65.9284 143.051 64.8086C141.957 63.6888 141.41 62.1328 141.41 60.1406V47.6797H138.754V44.7891H141.41V40.9414L145.258 40.5703V44.7891H150.805V47.6797H145.258V59.4375C145.258 62.2109 146.456 63.5977 148.852 63.5977C149.359 63.5977 149.978 63.513 150.707 63.3438V66ZM168.754 66V37.0938H184.906V40.1602H172.855V49.4375H182.953V52.4648H172.855V62.9336H185.746V66H168.754ZM194.945 66L187.055 44.7891H190.902L197.074 61.293L203.578 44.7891H207.172L198.793 66H194.945ZM226.801 65.3164C224.223 66.0977 222.016 66.4883 220.18 66.4883C217.042 66.4883 214.49 65.4531 212.523 63.3828C210.557 61.2995 209.574 58.6042 209.574 55.2969C209.574 52.0807 210.44 49.444 212.172 47.3867C213.917 45.3294 216.143 44.3008 218.852 44.3008C221.417 44.3008 223.396 45.2188 224.789 47.0547C226.195 48.8776 226.898 51.4688 226.898 54.8281L226.879 56H213.5C214.06 61.0391 216.527 63.5586 220.902 63.5586C222.504 63.5586 224.47 63.1289 226.801 62.2695V65.3164ZM213.676 53.1094H223.031C223.031 49.1641 221.56 47.1914 218.617 47.1914C215.661 47.1914 214.014 49.1641 213.676 53.1094ZM233.559 66V44.7891H237.406V48.7734C239.438 45.8047 241.924 44.3203 244.867 44.3203C246.716 44.3203 248.181 44.9062 249.262 46.0781C250.355 47.237 250.902 48.7995 250.902 50.7656V66H247.055V52.0156C247.055 50.4401 246.82 49.3203 246.352 48.6562C245.896 47.9792 245.134 47.6406 244.066 47.6406C241.71 47.6406 239.49 49.1836 237.406 52.2695V66H233.559ZM267.855 66C266.671 66.3255 265.642 66.4883 264.77 66.4883C262.816 66.4883 261.293 65.9284 260.199 64.8086C259.105 63.6888 258.559 62.1328 258.559 60.1406V47.6797H255.902V44.7891H258.559V40.9414L262.406 40.5703V44.7891H267.953V47.6797H262.406V59.4375C262.406 62.2109 263.604 63.5977 266 63.5977C266.508 63.5977 267.126 63.513 267.855 63.3438V66ZM272.582 65.2578V61.7227C275.095 62.9727 277.283 63.5977 279.145 63.5977C280.251 63.5977 281.169 63.2982 281.898 62.6992C282.628 62.1003 282.992 61.3516 282.992 60.4531C282.992 59.138 281.97 58.0508 279.926 57.1914L277.68 56.2344C274.359 54.8542 272.699 52.8685 272.699 50.2773C272.699 48.4284 273.35 46.9766 274.652 45.9219C275.967 44.8542 277.764 44.3203 280.043 44.3203C281.228 44.3203 282.693 44.4831 284.438 44.8086L285.238 44.9648V48.168C283.09 47.5299 281.378 47.2109 280.102 47.2109C278.982 47.2109 278.083 47.4583 277.406 47.9531C276.742 48.4349 276.41 49.0859 276.41 49.9062C276.41 51.0651 277.348 52.0417 279.223 52.8359L281.078 53.6172C283.174 54.5026 284.659 55.4401 285.531 56.4297C286.404 57.4062 286.84 58.6302 286.84 60.1016C286.84 61.9635 286.104 63.4935 284.633 64.6914C283.161 65.8893 281.28 66.4883 278.988 66.4883C277.23 66.4883 275.095 66.0781 272.582 65.2578Z" fill="white"/>
<path fill-rule="evenodd" clip-rule="evenodd" d="M487 23C470.431 23 457 36.4315 457 53C457 69.5685 470.431 83 487 83C503.569 83 517 69.5685 517 53C517 36.4315 503.569 23 487 23ZM484.979 38.198C486.781 36.3956 489.704 36.3956 491.506 38.198L502.731 49.4223C502.753 49.4451 502.776 49.4685 502.798 49.4917C502.821 49.5139 502.844 49.5361 502.867 49.5589C504.67 51.3613 504.67 54.2836 502.867 56.0861L491.643 67.3104C489.84 69.1128 486.918 69.1128 485.116 67.3104C483.313 65.508 483.313 62.5857 485.116 60.7833L488.953 56.9462H474.396C471.847 56.9462 469.781 54.8799 469.781 52.3309C469.781 49.7818 471.847 47.7155 474.396 47.7155H487.969L484.979 44.7251C483.177 42.9227 483.177 40.0004 484.979 38.198Z" fill="white"/>
<defs>
<linearGradient id="paint0_linear_217_164" x1="0" y1="52.5" x2="550" y2="52.5" gradientUnits="userSpaceOnUse">
<stop offset="0.139423" stop-color="#1D2735"/>
<stop offset="0.5" stop-color="#750F0F"/>
<stop offset="0.908654" stop-color="#1D2735"/>
</linearGradient>
</defs>
</svg>
