<svg width="550" height="105" viewBox="0 0 550 105" fill="none" xmlns="http://www.w3.org/2000/svg">
<rect width="550" height="105" rx="25" fill="url(#paint0_linear_216_163)"/>
<path d="M197.73 66V37.0938H205.602C207.867 37.0938 209.612 37.2826 210.836 37.6602C212.073 38.0247 213.082 38.6758 213.863 39.6133C214.892 40.8503 215.406 42.5365 215.406 44.6719C215.406 47.7448 214.365 50.1536 212.281 51.8984C210.198 53.6432 207.307 54.5156 203.609 54.5156H201.793V66H197.73ZM201.793 51.4102H203.453C205.888 51.4102 207.77 50.8503 209.098 49.7305C210.426 48.6107 211.09 47.0221 211.09 44.9648C211.09 43.2461 210.562 42.0156 209.508 41.2734C208.466 40.5312 206.734 40.1602 204.312 40.1602H201.793V51.4102ZM219.957 66V44.7891H223.805V48.7734C225.328 45.8047 227.542 44.3203 230.445 44.3203C230.836 44.3203 231.246 44.3529 231.676 44.418V48.0117C231.012 47.7904 230.426 47.6797 229.918 47.6797C227.483 47.6797 225.445 49.125 223.805 52.0156V66H219.957ZM251.871 65.3164C249.293 66.0977 247.086 66.4883 245.25 66.4883C242.112 66.4883 239.56 65.4531 237.594 63.3828C235.628 61.2995 234.645 58.6042 234.645 55.2969C234.645 52.0807 235.51 49.444 237.242 47.3867C238.987 45.3294 241.214 44.3008 243.922 44.3008C246.487 44.3008 248.466 45.2188 249.859 47.0547C251.266 48.8776 251.969 51.4688 251.969 54.8281L251.949 56H238.57C239.13 61.0391 241.598 63.5586 245.973 63.5586C247.574 63.5586 249.54 63.1289 251.871 62.2695V65.3164ZM238.746 53.1094H248.102C248.102 49.1641 246.63 47.1914 243.688 47.1914C240.732 47.1914 239.085 49.1641 238.746 53.1094ZM263.023 66L255.133 44.7891H258.98L265.152 61.293L271.656 44.7891H275.25L266.871 66H263.023ZM279.332 66V44.7891H283.18V66H279.332ZM279.332 40.9414V37.0938H283.18V40.9414H279.332ZM299.332 66.4883C296.22 66.4883 293.753 65.4922 291.93 63.5C290.12 61.5078 289.215 58.806 289.215 55.3945C289.215 51.9831 290.12 49.2878 291.93 47.3086C293.753 45.3164 296.22 44.3203 299.332 44.3203C302.444 44.3203 304.905 45.3164 306.715 47.3086C308.538 49.2878 309.449 51.9831 309.449 55.3945C309.449 58.806 308.538 61.5078 306.715 63.5C304.905 65.4922 302.444 66.4883 299.332 66.4883ZM299.332 63.5977C301.246 63.5977 302.73 62.8815 303.785 61.4492C304.84 60.0169 305.367 57.9987 305.367 55.3945C305.367 52.7904 304.84 50.7786 303.785 49.3594C302.73 47.9271 301.246 47.2109 299.332 47.2109C297.418 47.2109 295.934 47.9271 294.879 49.3594C293.837 50.7786 293.316 52.7904 293.316 55.3945C293.316 57.9987 293.837 60.0169 294.879 61.4492C295.934 62.8815 297.418 63.5977 299.332 63.5977ZM328.727 66V62.0156C326.682 64.9974 324.202 66.4883 321.285 66.4883C319.436 66.4883 317.965 65.9089 316.871 64.75C315.777 63.5781 315.23 62.0026 315.23 60.0234V44.7891H319.078V58.7734C319.078 60.362 319.306 61.4948 319.762 62.1719C320.23 62.8359 321.005 63.168 322.086 63.168C324.43 63.168 326.643 61.625 328.727 58.5391V44.7891H332.574V66H328.727ZM339.527 65.2578V61.7227C342.04 62.9727 344.228 63.5977 346.09 63.5977C347.197 63.5977 348.115 63.2982 348.844 62.6992C349.573 62.1003 349.938 61.3516 349.938 60.4531C349.938 59.138 348.915 58.0508 346.871 57.1914L344.625 56.2344C341.305 54.8542 339.645 52.8685 339.645 50.2773C339.645 48.4284 340.296 46.9766 341.598 45.9219C342.913 44.8542 344.71 44.3203 346.988 44.3203C348.173 44.3203 349.638 44.4831 351.383 44.8086L352.184 44.9648V48.168C350.035 47.5299 348.323 47.2109 347.047 47.2109C345.927 47.2109 345.029 47.4583 344.352 47.9531C343.688 48.4349 343.355 49.0859 343.355 49.9062C343.355 51.0651 344.293 52.0417 346.168 52.8359L348.023 53.6172C350.12 54.5026 351.604 55.4401 352.477 56.4297C353.349 57.4062 353.785 58.6302 353.785 60.1016C353.785 61.9635 353.049 63.4935 351.578 64.6914C350.107 65.8893 348.225 66.4883 345.934 66.4883C344.176 66.4883 342.04 66.0781 339.527 65.2578ZM373.238 66V37.0938H389.391V40.1602H377.34V49.4375H387.438V52.4648H377.34V62.9336H390.23V66H373.238ZM399.43 66L391.539 44.7891H395.387L401.559 61.293L408.062 44.7891H411.656L403.277 66H399.43ZM431.285 65.3164C428.707 66.0977 426.5 66.4883 424.664 66.4883C421.526 66.4883 418.974 65.4531 417.008 63.3828C415.042 61.2995 414.059 58.6042 414.059 55.2969C414.059 52.0807 414.924 49.444 416.656 47.3867C418.401 45.3294 420.628 44.3008 423.336 44.3008C425.901 44.3008 427.88 45.2188 429.273 47.0547C430.68 48.8776 431.383 51.4688 431.383 54.8281L431.363 56H417.984C418.544 61.0391 421.012 63.5586 425.387 63.5586C426.988 63.5586 428.954 63.1289 431.285 62.2695V65.3164ZM418.16 53.1094H427.516C427.516 49.1641 426.044 47.1914 423.102 47.1914C420.146 47.1914 418.499 49.1641 418.16 53.1094ZM438.043 66V44.7891H441.891V48.7734C443.922 45.8047 446.409 44.3203 449.352 44.3203C451.201 44.3203 452.665 44.9062 453.746 46.0781C454.84 47.237 455.387 48.7995 455.387 50.7656V66H451.539V52.0156C451.539 50.4401 451.305 49.3203 450.836 48.6562C450.38 47.9792 449.618 47.6406 448.551 47.6406C446.194 47.6406 443.974 49.1836 441.891 52.2695V66H438.043ZM472.34 66C471.155 66.3255 470.126 66.4883 469.254 66.4883C467.301 66.4883 465.777 65.9284 464.684 64.8086C463.59 63.6888 463.043 62.1328 463.043 60.1406V47.6797H460.387V44.7891H463.043V40.9414L466.891 40.5703V44.7891H472.438V47.6797H466.891V59.4375C466.891 62.2109 468.089 63.5977 470.484 63.5977C470.992 63.5977 471.611 63.513 472.34 63.3438V66ZM477.066 65.2578V61.7227C479.579 62.9727 481.767 63.5977 483.629 63.5977C484.736 63.5977 485.654 63.2982 486.383 62.6992C487.112 62.1003 487.477 61.3516 487.477 60.4531C487.477 59.138 486.454 58.0508 484.41 57.1914L482.164 56.2344C478.844 54.8542 477.184 52.8685 477.184 50.2773C477.184 48.4284 477.835 46.9766 479.137 45.9219C480.452 44.8542 482.249 44.3203 484.527 44.3203C485.712 44.3203 487.177 44.4831 488.922 44.8086L489.723 44.9648V48.168C487.574 47.5299 485.862 47.2109 484.586 47.2109C483.466 47.2109 482.568 47.4583 481.891 47.9531C481.227 48.4349 480.895 49.0859 480.895 49.9062C480.895 51.0651 481.832 52.0417 483.707 52.8359L485.562 53.6172C487.659 54.5026 489.143 55.4401 490.016 56.4297C490.888 57.4062 491.324 58.6302 491.324 60.1016C491.324 61.9635 490.589 63.4935 489.117 64.6914C487.646 65.8893 485.764 66.4883 483.473 66.4883C481.715 66.4883 479.579 66.0781 477.066 65.2578Z" fill="white"/>
<path fill-rule="evenodd" clip-rule="evenodd" d="M63 23C79.5685 23 93 36.4315 93 53C93 69.5685 79.5685 83 63 83C46.4315 83 33 69.5685 33 53C33 36.4315 46.4315 23 63 23ZM65.021 38.198C63.2185 36.3956 60.2962 36.3956 58.4938 38.198L47.2695 49.4223C47.2467 49.4451 47.2245 49.4685 47.2022 49.4917C47.179 49.5139 47.1557 49.5361 47.1329 49.5589C45.3305 51.3613 45.3305 54.2836 47.1329 56.0861L58.3572 67.3104C60.1596 69.1128 63.0819 69.1128 64.8844 67.3104C66.6868 65.508 66.6868 62.5857 64.8844 60.7833L61.0473 56.9462H75.6035C78.1526 56.9462 80.2189 54.8799 80.2189 52.3309C80.2189 49.7818 78.1526 47.7155 75.6035 47.7155H62.0306L65.021 44.7251C66.8234 42.9227 66.8234 40.0004 65.021 38.198Z" fill="white"/>
<defs>
<linearGradient id="paint0_linear_216_163" x1="0" y1="52.5" x2="550" y2="52.5" gradientUnits="userSpaceOnUse">
<stop offset="0.139423" stop-color="#1D2735"/>
<stop offset="0.5" stop-color="#750F0F"/>
<stop offset="0.908654" stop-color="#1D2735"/>
</linearGradient>
</defs>
</svg>
