<svg width="224" height="81" viewBox="0 0 224 81" fill="none" xmlns="http://www.w3.org/2000/svg">
<rect width="224" height="81" rx="40.5" fill="#962630"/>
<path d="M64.9961 43.6094C64.9961 45.3932 64.6836 46.9557 64.0586 48.2969C63.4466 49.625 62.6003 50.7318 61.5195 51.6172C60.4518 52.5026 59.1953 53.1667 57.75 53.6094C56.3177 54.0521 54.7747 54.2734 53.1211 54.2734C52.4831 54.2734 51.7799 54.1888 51.0117 54.0195C50.2565 53.8503 49.4883 53.6419 48.707 53.3945C47.9258 53.1341 47.1706 52.8607 46.4414 52.5742C45.7253 52.2747 45.0872 51.9948 44.5273 51.7344L45.3867 43.6875C46.4935 44.3516 47.7174 44.8594 49.0586 45.2109C50.4128 45.5495 51.7409 45.7188 53.043 45.7188C53.2904 45.7188 53.5898 45.7122 53.9414 45.6992C54.293 45.6732 54.625 45.6146 54.9375 45.5234C55.263 45.4193 55.5365 45.2695 55.7578 45.0742C55.9792 44.8789 56.0898 44.599 56.0898 44.2344C56.0898 43.987 56.0117 43.7786 55.8555 43.6094C55.6992 43.4271 55.4974 43.2839 55.25 43.1797C55.0026 43.0625 54.7227 42.9779 54.4102 42.9258C54.0977 42.8607 53.7917 42.8151 53.4922 42.7891C53.1927 42.763 52.9128 42.75 52.6523 42.75C52.3919 42.75 52.1836 42.75 52.0273 42.75C50.9076 42.75 49.8854 42.5547 48.9609 42.1641C48.0495 41.7734 47.2617 41.2331 46.5977 40.543C45.9466 39.8398 45.4388 39.013 45.0742 38.0625C44.7096 37.099 44.5273 36.0573 44.5273 34.9375C44.5273 33.401 44.8333 32.0273 45.4453 30.8164C46.0703 29.5924 46.8971 28.5573 47.9258 27.7109C48.9674 26.8516 50.1589 26.194 51.5 25.7383C52.8411 25.2826 54.2279 25.0547 55.6602 25.0547C56.2982 25.0547 56.9557 25.0807 57.6328 25.1328C58.3099 25.1719 58.9805 25.25 59.6445 25.3672C60.3216 25.4844 60.9792 25.6341 61.6172 25.8164C62.2552 25.9987 62.8607 26.2266 63.4336 26.5L62.6914 34.4297C61.806 34.1302 60.875 33.8828 59.8984 33.6875C58.9349 33.4792 57.9909 33.375 57.0664 33.375C56.8971 33.375 56.6758 33.3815 56.4023 33.3945C56.1419 33.3945 55.862 33.4141 55.5625 33.4531C55.276 33.4792 54.9831 33.5247 54.6836 33.5898C54.3841 33.6549 54.1172 33.7461 53.8828 33.8633C53.6484 33.9674 53.4596 34.1107 53.3164 34.293C53.1732 34.4753 53.1081 34.6901 53.1211 34.9375C53.1341 35.224 53.2383 35.4583 53.4336 35.6406C53.6419 35.8099 53.9023 35.9466 54.2148 36.0508C54.5404 36.1419 54.8919 36.207 55.2695 36.2461C55.6602 36.2852 56.0443 36.3112 56.4219 36.3242C56.7995 36.3242 57.151 36.3242 57.4766 36.3242C57.8021 36.3112 58.069 36.3177 58.2773 36.3438C59.319 36.4089 60.2565 36.6302 61.0898 37.0078C61.9232 37.3854 62.6263 37.8867 63.1992 38.5117C63.7852 39.1367 64.2279 39.8854 64.5273 40.7578C64.8398 41.6172 64.9961 42.5677 64.9961 43.6094ZM76.793 26.5L74.6445 53.1016L66.4023 53.5312V27.0469L76.793 26.5ZM101.539 50.0156C100.927 50.7839 100.172 51.4544 99.2734 52.0273C98.375 52.6003 97.4115 53.0755 96.3828 53.4531C95.3542 53.8307 94.2995 54.1107 93.2188 54.293C92.138 54.4883 91.1094 54.5859 90.1328 54.5859C88.2448 54.5859 86.5065 54.2474 84.918 53.5703C83.3294 52.8932 81.9557 51.9622 80.7969 50.7773C79.651 49.5794 78.7526 48.1732 78.1016 46.5586C77.4505 44.944 77.125 43.2057 77.125 41.3438C77.125 39.9245 77.2878 38.5378 77.6133 37.1836C77.9388 35.8164 78.401 34.5339 79 33.3359C79.612 32.125 80.3542 31.0182 81.2266 30.0156C82.099 29 83.0885 28.1276 84.1953 27.3984C85.3021 26.6693 86.513 26.1029 87.8281 25.6992C89.1432 25.2956 90.5495 25.0938 92.0469 25.0938C92.6068 25.0938 93.2057 25.1198 93.8438 25.1719C94.4818 25.2109 95.1133 25.2891 95.7383 25.4062C96.3763 25.5104 96.9948 25.6602 97.5938 25.8555C98.1927 26.0508 98.7396 26.2917 99.2344 26.5781L98.6875 34.0391C97.9583 33.7656 97.2031 33.5833 96.4219 33.4922C95.6536 33.388 94.8984 33.3359 94.1562 33.3359C93.1146 33.3359 92.138 33.4987 91.2266 33.8242C90.3281 34.1367 89.5404 34.5924 88.8633 35.1914C88.1992 35.7904 87.6719 36.5195 87.2812 37.3789C86.8906 38.2383 86.6953 39.2083 86.6953 40.2891C86.6953 40.9661 86.7865 41.6237 86.9688 42.2617C87.151 42.8867 87.4245 43.4466 87.7891 43.9414C88.1667 44.4232 88.6289 44.8138 89.1758 45.1133C89.7357 45.4128 90.3802 45.5625 91.1094 45.5625C91.6042 45.5625 92.112 45.4974 92.6328 45.3672C93.1667 45.237 93.6224 45.0156 94 44.7031L94.0781 43.1797L89.3906 43.1016L89.625 37.2422C91.5651 37.1771 93.5052 37.125 95.4453 37.0859C97.3854 37.0339 99.3385 36.9688 101.305 36.8906L101.539 50.0156ZM129.605 25.9922L128.199 52.4766L117.965 53.4141L112.496 39.2344L111.637 53.6875H102.848L103.551 25.9922L113.316 25.5234L120.074 39.5859L120.387 26.3047L129.605 25.9922ZM154.566 32.2812C154.566 33.2448 154.521 34.306 154.43 35.4648C154.339 36.6237 154.189 37.8216 153.98 39.0586C153.772 40.2956 153.499 41.5521 153.16 42.8281C152.835 44.0911 152.424 45.3086 151.93 46.4805C151.435 47.6523 150.855 48.7526 150.191 49.7812C149.54 50.7969 148.785 51.6888 147.926 52.457C147.079 53.2122 146.129 53.8047 145.074 54.2344C144.02 54.6771 142.848 54.8984 141.559 54.8984C140.048 54.8984 138.733 54.651 137.613 54.1562C136.507 53.6745 135.556 53.0234 134.762 52.2031C133.967 51.3698 133.316 50.4062 132.809 49.3125C132.301 48.2057 131.904 47.0404 131.617 45.8164C131.331 44.5794 131.129 43.3229 131.012 42.0469C130.908 40.7578 130.855 39.5208 130.855 38.3359C130.855 36.513 130.947 34.6966 131.129 32.8867C131.311 31.0638 131.572 29.2474 131.91 27.4375L141.051 27.7891C140.699 29.8333 140.393 31.8906 140.133 33.9609C139.885 36.0182 139.762 38.0885 139.762 40.1719C139.762 40.3932 139.768 40.7253 139.781 41.168C139.807 41.5977 139.846 42.0859 139.898 42.6328C139.951 43.1667 140.022 43.7201 140.113 44.293C140.217 44.8529 140.354 45.3672 140.523 45.8359C140.693 46.3047 140.895 46.6888 141.129 46.9883C141.376 47.2878 141.663 47.4375 141.988 47.4375C142.366 47.4375 142.704 47.2617 143.004 46.9102C143.303 46.5456 143.564 46.0638 143.785 45.4648C144.02 44.8659 144.221 44.1758 144.391 43.3945C144.56 42.6133 144.703 41.7995 144.82 40.9531C144.938 40.1068 145.029 39.2604 145.094 38.4141C145.172 37.5677 145.23 36.7799 145.27 36.0508C145.322 35.3216 145.354 34.6771 145.367 34.1172C145.38 33.5573 145.387 33.1406 145.387 32.8672C145.387 31.8516 145.367 30.8424 145.328 29.8398C145.302 28.8242 145.257 27.8151 145.191 26.8125H154.332C154.488 28.6094 154.566 30.4323 154.566 32.2812ZM178.883 35.2109C178.883 36.474 178.694 37.5938 178.316 38.5703C177.939 39.5469 177.418 40.3997 176.754 41.1289C176.103 41.8581 175.335 42.4766 174.449 42.9844C173.564 43.4922 172.613 43.9089 171.598 44.2344C170.595 44.5469 169.553 44.7812 168.473 44.9375C167.392 45.0807 166.331 45.1589 165.289 45.1719V54.2734H156.188C156.188 51.2917 156.194 48.3229 156.207 45.3672C156.22 42.4115 156.24 39.4297 156.266 36.4219C156.292 34.8333 156.298 33.2448 156.285 31.6562C156.272 30.0677 156.305 28.4661 156.383 26.8516C158.049 26.3568 159.716 25.9857 161.383 25.7383C163.049 25.4909 164.768 25.3672 166.539 25.3672C167.542 25.3672 168.544 25.4518 169.547 25.6211C170.549 25.7773 171.507 26.0312 172.418 26.3828C173.342 26.7344 174.195 27.1771 174.977 27.7109C175.771 28.2318 176.454 28.8568 177.027 29.5859C177.6 30.3151 178.049 31.1484 178.375 32.0859C178.714 33.0104 178.883 34.0521 178.883 35.2109ZM170.211 35.875C170.211 35.0286 169.951 34.3711 169.43 33.9023C168.922 33.4206 168.258 33.1797 167.438 33.1797C167.164 33.1797 166.878 33.2057 166.578 33.2578C166.292 33.2969 166.018 33.349 165.758 33.4141L165.523 39.1172C165.706 39.1432 165.882 39.1562 166.051 39.1562C166.22 39.1562 166.396 39.1562 166.578 39.1562C167.047 39.1562 167.496 39.0781 167.926 38.9219C168.368 38.7656 168.759 38.5443 169.098 38.2578C169.436 37.9583 169.703 37.6133 169.898 37.2227C170.107 36.819 170.211 36.3698 170.211 35.875Z" fill="white"/>
</svg>
