<svg width="342" height="72" viewBox="0 0 342 72" fill="none" xmlns="http://www.w3.org/2000/svg">
<path d="M49.125 44.5312C49.125 48.8125 48.375 52.5625 46.875 55.7812C45.4062 58.9688 43.375 61.625 40.7812 63.75C38.2188 65.875 35.2031 67.4688 31.7344 68.5312C28.2969 69.5938 24.5938 70.125 20.625 70.125C19.0938 70.125 17.4062 69.9219 15.5625 69.5156C13.75 69.1094 11.9062 68.6094 10.0312 68.0156C8.15625 67.3906 6.34375 66.7344 4.59375 66.0469C2.875 65.3281 1.34375 64.6562 0 64.0312L2.0625 44.7188C4.71875 46.3125 7.65625 47.5312 10.875 48.375C14.125 49.1875 17.3125 49.5938 20.4375 49.5938C21.0312 49.5938 21.75 49.5781 22.5938 49.5469C23.4375 49.4844 24.2344 49.3438 24.9844 49.125C25.7656 48.875 26.4219 48.5156 26.9531 48.0469C27.4844 47.5781 27.75 46.9062 27.75 46.0312C27.75 45.4375 27.5625 44.9375 27.1875 44.5312C26.8125 44.0938 26.3281 43.75 25.7344 43.5C25.1406 43.2188 24.4688 43.0156 23.7188 42.8906C22.9688 42.7344 22.2344 42.625 21.5156 42.5625C20.7969 42.5 20.125 42.4688 19.5 42.4688C18.875 42.4688 18.375 42.4688 18 42.4688C15.3125 42.4688 12.8594 42 10.6406 41.0625C8.45312 40.125 6.5625 38.8281 4.96875 37.1719C3.40625 35.4844 2.1875 33.5 1.3125 31.2188C0.4375 28.9062 0 26.4062 0 23.7188C0 20.0312 0.734375 16.7344 2.20312 13.8281C3.70312 10.8906 5.6875 8.40625 8.15625 6.375C10.6562 4.3125 13.5156 2.73437 16.7344 1.64062C19.9531 0.546875 23.2812 0 26.7188 0C28.25 0 29.8281 0.0625 31.4531 0.1875C33.0781 0.28125 34.6875 0.46875 36.2812 0.75C37.9062 1.03125 39.4844 1.39063 41.0156 1.82812C42.5469 2.26562 44 2.8125 45.375 3.46875L43.5938 22.5C41.4688 21.7812 39.2344 21.1875 36.8906 20.7188C34.5781 20.2187 32.3125 19.9688 30.0938 19.9688C29.6875 19.9688 29.1562 19.9844 28.5 20.0156C27.875 20.0156 27.2031 20.0625 26.4844 20.1562C25.7969 20.2187 25.0938 20.3281 24.375 20.4844C23.6562 20.6406 23.0156 20.8594 22.4531 21.1406C21.8906 21.3906 21.4375 21.7344 21.0938 22.1719C20.75 22.6094 20.5938 23.125 20.625 23.7188C20.6562 24.4062 20.9062 24.9688 21.375 25.4062C21.875 25.8125 22.5 26.1406 23.25 26.3906C24.0312 26.6094 24.875 26.7656 25.7812 26.8594C26.7188 26.9531 27.6406 27.0156 28.5469 27.0469C29.4531 27.0469 30.2969 27.0469 31.0781 27.0469C31.8594 27.0156 32.5 27.0312 33 27.0938C35.5 27.25 37.75 27.7812 39.75 28.6875C41.75 29.5938 43.4375 30.7969 44.8125 32.2969C46.2188 33.7969 47.2812 35.5938 48 37.6875C48.75 39.75 49.125 42.0312 49.125 44.5312ZM77.4375 3.46875L72.2812 67.3125L52.5 68.3438V4.78125L77.4375 3.46875ZM136.828 59.9062C135.359 61.75 133.547 63.3594 131.391 64.7344C129.234 66.1094 126.922 67.25 124.453 68.1562C121.984 69.0625 119.453 69.7344 116.859 70.1719C114.266 70.6406 111.797 70.875 109.453 70.875C104.922 70.875 100.75 70.0625 96.9375 68.4375C93.125 66.8125 89.8281 64.5781 87.0469 61.7344C84.2969 58.8594 82.1406 55.4844 80.5781 51.6094C79.0156 47.7344 78.2344 43.5625 78.2344 39.0938C78.2344 35.6875 78.625 32.3594 79.4062 29.1094C80.1875 25.8281 81.2969 22.75 82.7344 19.875C84.2031 16.9688 85.9844 14.3125 88.0781 11.9062C90.1719 9.46875 92.5469 7.375 95.2031 5.625C97.8594 3.875 100.766 2.51563 103.922 1.54688C107.078 0.578125 110.453 0.09375 114.047 0.09375C115.391 0.09375 116.828 0.15625 118.359 0.28125C119.891 0.375 121.406 0.5625 122.906 0.84375C124.438 1.09375 125.922 1.45312 127.359 1.92188C128.797 2.39062 130.109 2.96875 131.297 3.65625L129.984 21.5625C128.234 20.9062 126.422 20.4688 124.547 20.25C122.703 20 120.891 19.875 119.109 19.875C116.609 19.875 114.266 20.2656 112.078 21.0469C109.922 21.7969 108.031 22.8906 106.406 24.3281C104.812 25.7656 103.547 27.5156 102.609 29.5781C101.672 31.6406 101.203 33.9688 101.203 36.5625C101.203 38.1875 101.422 39.7656 101.859 41.2969C102.297 42.7969 102.953 44.1406 103.828 45.3281C104.734 46.4844 105.844 47.4219 107.156 48.1406C108.5 48.8594 110.047 49.2188 111.797 49.2188C112.984 49.2188 114.203 49.0625 115.453 48.75C116.734 48.4375 117.828 47.9062 118.734 47.1562L118.922 43.5L107.672 43.3125L108.234 29.25C112.891 29.0938 117.547 28.9688 122.203 28.875C126.859 28.75 131.547 28.5938 136.266 28.4062L136.828 59.9062ZM204.188 2.25L200.812 65.8125L176.25 68.0625L163.125 34.0312L161.062 68.7188H139.969L141.656 2.25L165.094 1.125L181.312 34.875L182.062 3L204.188 2.25ZM282.844 17.3438C282.844 19.6562 282.734 22.2031 282.516 24.9844C282.297 27.7656 281.938 30.6406 281.438 33.6094C280.938 36.5781 280.281 39.5938 279.469 42.6562C278.688 45.6875 277.703 48.6094 276.516 51.4219C275.328 54.2344 273.938 56.875 272.344 59.3438C270.781 61.7812 268.969 63.9219 266.906 65.7656C264.875 67.5781 262.594 69 260.062 70.0312C257.531 71.0938 254.719 71.625 251.625 71.625C248 71.625 244.844 71.0312 242.156 69.8438C239.5 68.6875 237.219 67.125 235.312 65.1562C233.406 63.1562 231.844 60.8438 230.625 58.2188C229.406 55.5625 228.453 52.7656 227.766 49.8281C227.078 46.8594 226.594 43.8438 226.312 40.7812C226.062 37.6875 225.938 34.7188 225.938 31.875C225.938 27.5 226.156 23.1406 226.594 18.7969C227.031 14.4219 227.656 10.0625 228.469 5.71875L250.406 6.5625C249.562 11.4688 248.828 16.4062 248.203 21.375C247.609 26.3125 247.312 31.2812 247.312 36.2812C247.312 36.8125 247.328 37.6094 247.359 38.6719C247.422 39.7031 247.516 40.875 247.641 42.1875C247.766 43.4688 247.938 44.7969 248.156 46.1719C248.406 47.5156 248.734 48.75 249.141 49.875C249.547 51 250.031 51.9219 250.594 52.6406C251.188 53.3594 251.875 53.7188 252.656 53.7188C253.562 53.7188 254.375 53.2969 255.094 52.4531C255.812 51.5781 256.438 50.4219 256.969 48.9844C257.531 47.5469 258.016 45.8906 258.422 44.0156C258.828 42.1406 259.172 40.1875 259.453 38.1562C259.734 36.125 259.953 34.0938 260.109 32.0625C260.297 30.0312 260.438 28.1406 260.531 26.3906C260.656 24.6406 260.734 23.0938 260.766 21.75C260.797 20.4062 260.812 19.4062 260.812 18.75C260.812 16.3125 260.766 13.8906 260.672 11.4844C260.609 9.04688 260.5 6.625 260.344 4.21875H282.281C282.656 8.53125 282.844 12.9062 282.844 17.3438ZM341.203 24.375C341.203 27.4062 340.75 30.0938 339.844 32.4375C338.938 34.7812 337.688 36.8281 336.094 38.5781C334.531 40.3281 332.688 41.8125 330.562 43.0312C328.438 44.25 326.156 45.25 323.719 46.0312C321.312 46.7812 318.812 47.3438 316.219 47.7188C313.625 48.0625 311.078 48.25 308.578 48.2812V70.125H286.734C286.734 62.9688 286.75 55.8438 286.781 48.75C286.812 41.6562 286.859 34.5 286.922 27.2812C286.984 23.4688 287 19.6562 286.969 15.8438C286.938 12.0313 287.016 8.1875 287.203 4.3125C291.203 3.125 295.203 2.23438 299.203 1.64062C303.203 1.04687 307.328 0.75 311.578 0.75C313.984 0.75 316.391 0.953125 318.797 1.35938C321.203 1.73438 323.5 2.34375 325.688 3.1875C327.906 4.03125 329.953 5.09375 331.828 6.375C333.734 7.625 335.375 9.125 336.75 10.875C338.125 12.625 339.203 14.625 339.984 16.875C340.797 19.0937 341.203 21.5938 341.203 24.375ZM320.391 25.9688C320.391 23.9375 319.766 22.3594 318.516 21.2344C317.297 20.0781 315.703 19.5 313.734 19.5C313.078 19.5 312.391 19.5625 311.672 19.6875C310.984 19.7812 310.328 19.9063 309.703 20.0625L309.141 33.75C309.578 33.8125 310 33.8438 310.406 33.8438C310.812 33.8438 311.234 33.8438 311.672 33.8438C312.797 33.8438 313.875 33.6562 314.906 33.2812C315.969 32.9062 316.906 32.375 317.719 31.6875C318.531 30.9688 319.172 30.1406 319.641 29.2031C320.141 28.2344 320.391 27.1562 320.391 25.9688Z" fill="url(#paint0_linear_67_470)"/>
<defs>
<linearGradient id="paint0_linear_67_470" x1="-1.26562" y1="49.4688" x2="341.734" y2="49.4688" gradientUnits="userSpaceOnUse">
<stop offset="0.139423" stop-color="#09336F"/>
<stop offset="0.5" stop-color="#FF3E91"/>
<stop offset="0.908654" stop-color="#09336F"/>
</linearGradient>
</defs>
</svg>
