<svg width="631" height="37" viewBox="0 0 631 37" fill="none" xmlns="http://www.w3.org/2000/svg">
<path d="M0 35.5547V0.867188H21.6797V5.48438H6.9375V15.3047H19.3828V19.6406H6.9375V30.9375H22.9219V35.5547H0ZM35.4844 35.5547L25.2891 0.867188H32.5312L40.1953 26.9062L48.6328 0.867188H53.5781L42.4219 35.5547H35.4844ZM57.8438 35.5547V0.867188H79.5234V5.48438H64.7812V15.3047H77.2266V19.6406H64.7812V30.9375H80.7656V35.5547H57.8438ZM85.4297 35.5547V0.867188H91.8516L104.461 23.25H104.508V0.867188H109.148V35.5547H103.078L90.1172 12.4219H90.0469V35.5547H85.4297ZM122.742 35.5547V5.48438H112.336V0.867188H140.086V5.48438H129.68V35.5547H122.742ZM143.109 35.2734V29.4609C146.766 30.9453 150.133 31.6875 153.211 31.6875C155.367 31.6875 157.117 31.2109 158.461 30.2578C159.805 29.3047 160.477 28.125 160.477 26.7188C160.477 25.9219 160.258 25.1875 159.82 24.5156C159.367 23.8594 158.227 23.0312 156.398 22.0312L149.93 18.5156C147.836 17.375 146.367 16.375 145.523 15.5156C144.68 14.6562 144.039 13.7109 143.602 12.6797C143.164 11.6484 142.945 10.5469 142.945 9.375C142.945 6.78125 143.961 4.57031 145.992 2.74219C148.039 0.914062 151.312 0 155.812 0C159.203 0 162.43 0.382812 165.492 1.14844V6.63281C162.18 5.28906 159.008 4.61719 155.977 4.61719C153.883 4.61719 152.266 4.96875 151.125 5.67188C150 6.35938 149.438 7.24219 149.438 8.32031C149.438 8.89844 149.586 9.47656 149.883 10.0547C150.18 10.6328 151.094 11.3281 152.625 12.1406L159.797 15.9844C162.844 17.6094 164.938 19.1875 166.078 20.7188C167.203 22.25 167.766 24.0469 167.766 26.1094C167.766 28 167.258 29.75 166.242 31.3594C165.227 32.9531 163.703 34.1953 161.672 35.0859C159.656 35.9766 156.914 36.4219 153.445 36.4219C150.32 36.4219 146.875 36.0391 143.109 35.2734ZM203.203 35.5547L198.633 0.867188H204.75L207.469 22.8516H207.516L211.43 10.1016H216L219.797 23.5078H219.844L222.68 0.867188H227.297L222.68 35.5547H217.477L213 18.9141H212.93L207.938 35.5547H203.203ZM230.32 35.5547V30.9375H238.406V5.48438H230.32V0.867188H253.453V5.48438H245.367V30.9375H253.453V35.5547H230.32ZM267.352 35.5547V5.48438H256.945V0.867188H284.695V5.48438H274.289V35.5547H267.352ZM287.602 35.5547V0.867188H294.539V15.1641H304.945V0.867188H311.883V35.5547H304.945V19.8047H294.539V35.5547H287.602ZM317.086 35.5547V30.9375H325.172V5.48438H317.086V0.867188H340.219V5.48438H332.133V30.9375H340.219V35.5547H317.086ZM345.727 35.5547V0.867188H352.148L364.758 23.25H364.805V0.867188H369.445V35.5547H363.375L350.414 12.4219H350.344V35.5547H345.727ZM405.703 35.1562V30.1406C408.016 31.25 410.156 31.8047 412.125 31.8047C413.812 31.8047 415.266 31.2656 416.484 30.1875C417.703 29.1094 418.312 27.75 418.312 26.1094C418.312 24.9062 417.977 23.8047 417.305 22.8047C416.648 21.8047 415.625 21.0469 414.234 20.5312C412.844 20.0156 411.352 19.7578 409.758 19.7578H408.867V15.1172H409.43C412.227 15.1172 414.32 14.5391 415.711 13.3828C417.117 12.2109 417.82 10.7578 417.82 9.02344C417.82 7.69531 417.422 6.63281 416.625 5.83594C415.844 5.02344 414.562 4.61719 412.781 4.61719C410.891 4.61719 408.664 5.16406 406.102 6.25781V1.3125C408.008 0.640625 409.523 0.257812 410.648 0.164062C411.789 0.0546875 412.914 0 414.023 0C416.461 0 418.422 0.375 419.906 1.125C421.406 1.85937 422.586 2.85938 423.445 4.125C424.305 5.375 424.734 6.82812 424.734 8.48438C424.734 10.2344 424.203 11.8594 423.141 13.3594C422.078 14.8438 420.086 16.0312 417.164 16.9219C420.445 17.8438 422.711 19.1641 423.961 20.8828C425.227 22.6016 425.859 24.4062 425.859 26.2969C425.859 28.125 425.328 29.8125 424.266 31.3594C423.203 32.8906 421.656 34.1172 419.625 35.0391C417.594 35.9609 415.344 36.4219 412.875 36.4219C412.156 36.4219 411.352 36.375 410.461 36.2812C409.586 36.1875 408.828 36.0703 408.188 35.9297C407.547 35.8047 406.719 35.5469 405.703 35.1562ZM460.781 35.5547V0.867188H468.797L473.438 16.4531H473.508L478.359 0.867188H485.766V35.5547H480.562V8.92969H480.492L475.57 26.2969H470.273L465.469 8.90625H465.398V35.5547H460.781ZM502.195 36.4219C497.586 36.4219 494.117 34.7812 491.789 31.5C489.477 28.2031 488.32 23.7734 488.32 18.2109C488.32 12.6484 489.477 8.22656 491.789 4.94531C494.102 1.64844 497.57 0 502.195 0C506.82 0 510.289 1.64844 512.602 4.94531C514.914 8.22656 516.07 12.6484 516.07 18.2109C516.07 23.7734 514.906 28.2031 512.578 31.5C510.266 34.7812 506.805 36.4219 502.195 36.4219ZM502.195 31.8047C503.43 31.8047 504.523 31.375 505.477 30.5156C506.43 29.6406 507.18 28.2969 507.727 26.4844C508.289 24.6719 508.57 21.9219 508.57 18.2344C508.57 14.5312 508.305 11.7891 507.773 10.0078C507.258 8.22656 506.516 6.88281 505.547 5.97656C504.578 5.07031 503.461 4.61719 502.195 4.61719C500.945 4.61719 499.836 5.07031 498.867 5.97656C497.914 6.86719 497.172 8.21094 496.641 10.0078C496.109 11.8047 495.844 14.5469 495.844 18.2344C495.844 21.9375 496.109 24.6953 496.641 26.5078C497.188 28.3047 497.938 29.6406 498.891 30.5156C499.859 31.375 500.961 31.8047 502.195 31.8047ZM519.258 35.5547V0.867188H525.68L538.289 23.25H538.336V0.867188H542.977V35.5547H536.906L523.945 12.4219H523.875V35.5547H519.258ZM556.57 35.5547V5.48438H546.164V0.867188H573.914V5.48438H563.508V35.5547H556.57ZM576.82 35.5547V0.867188H583.758V15.1641H594.164V0.867188H601.102V35.5547H594.164V19.8047H583.758V35.5547H576.82ZM605.859 35.2734V29.4609C609.516 30.9453 612.883 31.6875 615.961 31.6875C618.117 31.6875 619.867 31.2109 621.211 30.2578C622.555 29.3047 623.227 28.125 623.227 26.7188C623.227 25.9219 623.008 25.1875 622.57 24.5156C622.117 23.8594 620.977 23.0312 619.148 22.0312L612.68 18.5156C610.586 17.375 609.117 16.375 608.273 15.5156C607.43 14.6562 606.789 13.7109 606.352 12.6797C605.914 11.6484 605.695 10.5469 605.695 9.375C605.695 6.78125 606.711 4.57031 608.742 2.74219C610.789 0.914062 614.062 0 618.562 0C621.953 0 625.18 0.382812 628.242 1.14844V6.63281C624.93 5.28906 621.758 4.61719 618.727 4.61719C616.633 4.61719 615.016 4.96875 613.875 5.67188C612.75 6.35938 612.188 7.24219 612.188 8.32031C612.188 8.89844 612.336 9.47656 612.633 10.0547C612.93 10.6328 613.844 11.3281 615.375 12.1406L622.547 15.9844C625.594 17.6094 627.688 19.1875 628.828 20.7188C629.953 22.25 630.516 24.0469 630.516 26.1094C630.516 28 630.008 29.75 628.992 31.3594C627.977 32.9531 626.453 34.1953 624.422 35.0859C622.406 35.9766 619.664 36.4219 616.195 36.4219C613.07 36.4219 609.625 36.0391 605.859 35.2734Z" fill="white"/>
</svg>
