<svg width="580" height="82" viewBox="0 0 580 82" fill="none" xmlns="http://www.w3.org/2000/svg">
<g filter="url(#filter0_d_229_209)">
<path d="M60.9062 17.3438C60.9062 19.6562 60.7969 22.2031 60.5781 24.9844C60.3594 27.7656 60 30.6406 59.5 33.6094C59 36.5781 58.3438 39.5938 57.5312 42.6562C56.75 45.6875 55.7656 48.6094 54.5781 51.4219C53.3906 54.2344 52 56.875 50.4062 59.3438C48.8438 61.7812 47.0312 63.9219 44.9688 65.7656C42.9375 67.5781 40.6562 69 38.125 70.0312C35.5938 71.0938 32.7812 71.625 29.6875 71.625C26.0625 71.625 22.9062 71.0312 20.2188 69.8438C17.5625 68.6875 15.2812 67.125 13.375 65.1562C11.4688 63.1562 9.90625 60.8438 8.6875 58.2188C7.46875 55.5625 6.51562 52.7656 5.82812 49.8281C5.14062 46.8594 4.65625 43.8438 4.375 40.7812C4.125 37.6875 4 34.7188 4 31.875C4 27.5 4.21875 23.1406 4.65625 18.7969C5.09375 14.4219 5.71875 10.0625 6.53125 5.71875L28.4688 6.5625C27.625 11.4688 26.8906 16.4062 26.2656 21.375C25.6719 26.3125 25.375 31.2812 25.375 36.2812C25.375 36.8125 25.3906 37.6094 25.4219 38.6719C25.4844 39.7031 25.5781 40.875 25.7031 42.1875C25.8281 43.4688 26 44.7969 26.2188 46.1719C26.4688 47.5156 26.7969 48.75 27.2031 49.875C27.6094 51 28.0938 51.9219 28.6562 52.6406C29.25 53.3594 29.9375 53.7188 30.7188 53.7188C31.625 53.7188 32.4375 53.2969 33.1562 52.4531C33.875 51.5781 34.5 50.4219 35.0312 48.9844C35.5938 47.5469 36.0781 45.8906 36.4844 44.0156C36.8906 42.1406 37.2344 40.1875 37.5156 38.1562C37.7969 36.125 38.0156 34.0938 38.1719 32.0625C38.3594 30.0312 38.5 28.1406 38.5938 26.3906C38.7188 24.6406 38.7969 23.0938 38.8281 21.75C38.8594 20.4062 38.875 19.4062 38.875 18.75C38.875 16.3125 38.8281 13.8906 38.7344 11.4844C38.6719 9.04688 38.5625 6.625 38.4062 4.21875H60.3438C60.7188 8.53125 60.9062 12.9062 60.9062 17.3438ZM119.266 24.375C119.266 27.4062 118.812 30.0938 117.906 32.4375C117 34.7812 115.75 36.8281 114.156 38.5781C112.594 40.3281 110.75 41.8125 108.625 43.0312C106.5 44.25 104.219 45.25 101.781 46.0312C99.375 46.7812 96.875 47.3438 94.2812 47.7188C91.6875 48.0625 89.1406 48.25 86.6406 48.2812V70.125H64.7969C64.7969 62.9688 64.8125 55.8438 64.8438 48.75C64.875 41.6562 64.9219 34.5 64.9844 27.2812C65.0469 23.4688 65.0625 19.6562 65.0312 15.8438C65 12.0313 65.0781 8.1875 65.2656 4.3125C69.2656 3.125 73.2656 2.23438 77.2656 1.64062C81.2656 1.04687 85.3906 0.75 89.6406 0.75C92.0469 0.75 94.4531 0.953125 96.8594 1.35938C99.2656 1.73438 101.562 2.34375 103.75 3.1875C105.969 4.03125 108.016 5.09375 109.891 6.375C111.797 7.625 113.438 9.125 114.812 10.875C116.188 12.625 117.266 14.625 118.047 16.875C118.859 19.0937 119.266 21.5938 119.266 24.375ZM98.4531 25.9688C98.4531 23.9375 97.8281 22.3594 96.5781 21.2344C95.3594 20.0781 93.7656 19.5 91.7969 19.5C91.1406 19.5 90.4531 19.5625 89.7344 19.6875C89.0469 19.7812 88.3906 19.9063 87.7656 20.0625L87.2031 33.75C87.6406 33.8125 88.0625 33.8438 88.4688 33.8438C88.875 33.8438 89.2969 33.8438 89.7344 33.8438C90.8594 33.8438 91.9375 33.6562 92.9688 33.2812C94.0312 32.9062 94.9688 32.375 95.7812 31.6875C96.5938 30.9688 97.2344 30.1406 97.7031 29.2031C98.2031 28.2344 98.4531 27.1562 98.4531 25.9688ZM168.297 3.5625L165.672 23.3438C164.766 23.0938 163.859 22.9219 162.953 22.8281C162.047 22.7344 161.141 22.6875 160.234 22.6875C157.922 22.6875 155.719 23 153.625 23.625C151.531 24.2188 149.672 25.1406 148.047 26.3906C146.453 27.6406 145.172 29.2031 144.203 31.0781C143.266 32.9531 142.797 35.1562 142.797 37.6875C142.797 39.3125 143.047 40.7188 143.547 41.9062C144.078 43.0938 144.812 44.0781 145.75 44.8594C146.688 45.6406 147.797 46.2188 149.078 46.5938C150.359 46.9688 151.766 47.1562 153.297 47.1562C154.453 47.1562 155.656 47.0312 156.906 46.7812C158.156 46.5312 159.391 46.2031 160.609 45.7969C161.828 45.3906 163.016 44.9219 164.172 44.3906C165.328 43.8594 166.391 43.3125 167.359 42.75L165.484 64.7812C164.266 65.4062 162.938 65.9688 161.5 66.4688C160.094 66.9375 158.641 67.3594 157.141 67.7344C155.641 68.0781 154.141 68.3438 152.641 68.5312C151.141 68.7188 149.703 68.8125 148.328 68.8125C144.359 68.8125 140.656 68.0781 137.219 66.6094C133.781 65.1406 130.797 63.125 128.266 60.5625C125.734 58 123.734 54.9844 122.266 51.5156C120.828 48.0156 120.109 44.25 120.109 40.2188C120.109 34.875 120.875 29.8438 122.406 25.125C123.938 20.375 126.188 16.2188 129.156 12.6562C132.125 9.09375 135.797 6.28125 140.172 4.21875C144.578 2.15625 149.641 1.125 155.359 1.125C157.516 1.125 159.719 1.29688 161.969 1.64062C164.25 1.98437 166.359 2.625 168.297 3.5625ZM228.625 36.375C228.625 39.2188 228.297 41.9688 227.641 44.625C226.984 47.25 226.031 49.7188 224.781 52.0312C223.562 54.3438 222.062 56.4688 220.281 58.4062C218.531 60.3125 216.547 61.9531 214.328 63.3281C212.141 64.7031 209.75 65.7812 207.156 66.5625C204.562 67.3125 201.812 67.6875 198.906 67.6875C196.094 67.6875 193.406 67.3281 190.844 66.6094C188.312 65.8906 185.938 64.8906 183.719 63.6094C181.5 62.2969 179.484 60.7344 177.672 58.9219C175.891 57.0781 174.359 55.0469 173.078 52.8281C171.828 50.5781 170.844 48.1719 170.125 45.6094C169.438 43.0469 169.094 40.375 169.094 37.5938C169.094 34.875 169.422 32.2188 170.078 29.625C170.734 27 171.672 24.5312 172.891 22.2188C174.141 19.9063 175.641 17.7812 177.391 15.8438C179.141 13.9063 181.094 12.2344 183.25 10.8281C185.438 9.42188 187.797 8.32813 190.328 7.54688C192.859 6.76562 195.531 6.375 198.344 6.375C202.875 6.375 207 7.07812 210.719 8.48438C214.469 9.89062 217.656 11.9062 220.281 14.5312C222.938 17.125 224.984 20.2813 226.422 24C227.891 27.6875 228.625 31.8125 228.625 36.375ZM207.812 37.5938C207.812 36.25 207.609 34.9531 207.203 33.7031C206.828 32.4219 206.266 31.2969 205.516 30.3281C204.766 29.3281 203.828 28.5312 202.703 27.9375C201.609 27.3125 200.344 27 198.906 27C197.438 27 196.125 27.2656 194.969 27.7969C193.812 28.3281 192.812 29.0625 191.969 30C191.156 30.9062 190.531 31.9844 190.094 33.2344C189.656 34.4531 189.438 35.75 189.438 37.125C189.438 38.4375 189.625 39.75 190 41.0625C190.375 42.375 190.938 43.5625 191.688 44.625C192.438 45.6875 193.359 46.5469 194.453 47.2031C195.578 47.8594 196.875 48.1875 198.344 48.1875C199.812 48.1875 201.125 47.9062 202.281 47.3438C203.469 46.75 204.469 45.9688 205.281 45C206.094 44 206.719 42.8594 207.156 41.5781C207.594 40.2969 207.812 38.9688 207.812 37.5938ZM304.375 1.125L300.062 69.9375L278.688 70.875L278.875 34.5938L269.219 63.8438H260.969L253.562 37.6875L253.469 68.0625L231.812 68.7188L232.75 3.9375L256.844 3L266.406 34.0312L279.156 1.125H304.375ZM333.156 3.46875L328 67.3125L308.219 68.3438V4.78125L333.156 3.46875ZM400.188 2.25L396.812 65.8125L372.25 68.0625L359.125 34.0312L357.062 68.7188H335.969L337.656 2.25L361.094 1.125L377.312 34.875L378.062 3L400.188 2.25ZM460.609 59.9062C459.141 61.75 457.328 63.3594 455.172 64.7344C453.016 66.1094 450.703 67.25 448.234 68.1562C445.766 69.0625 443.234 69.7344 440.641 70.1719C438.047 70.6406 435.578 70.875 433.234 70.875C428.703 70.875 424.531 70.0625 420.719 68.4375C416.906 66.8125 413.609 64.5781 410.828 61.7344C408.078 58.8594 405.922 55.4844 404.359 51.6094C402.797 47.7344 402.016 43.5625 402.016 39.0938C402.016 35.6875 402.406 32.3594 403.188 29.1094C403.969 25.8281 405.078 22.75 406.516 19.875C407.984 16.9688 409.766 14.3125 411.859 11.9062C413.953 9.46875 416.328 7.375 418.984 5.625C421.641 3.875 424.547 2.51563 427.703 1.54688C430.859 0.578125 434.234 0.09375 437.828 0.09375C439.172 0.09375 440.609 0.15625 442.141 0.28125C443.672 0.375 445.188 0.5625 446.688 0.84375C448.219 1.09375 449.703 1.45312 451.141 1.92188C452.578 2.39062 453.891 2.96875 455.078 3.65625L453.766 21.5625C452.016 20.9062 450.203 20.4688 448.328 20.25C446.484 20 444.672 19.875 442.891 19.875C440.391 19.875 438.047 20.2656 435.859 21.0469C433.703 21.7969 431.812 22.8906 430.188 24.3281C428.594 25.7656 427.328 27.5156 426.391 29.5781C425.453 31.6406 424.984 33.9688 424.984 36.5625C424.984 38.1875 425.203 39.7656 425.641 41.2969C426.078 42.7969 426.734 44.1406 427.609 45.3281C428.516 46.4844 429.625 47.4219 430.938 48.1406C432.281 48.8594 433.828 49.2188 435.578 49.2188C436.766 49.2188 437.984 49.0625 439.234 48.75C440.516 48.4375 441.609 47.9062 442.516 47.1562L442.703 43.5L431.453 43.3125L432.016 29.25C436.672 29.0938 441.328 28.9688 445.984 28.875C450.641 28.75 455.328 28.5938 460.047 28.4062L460.609 59.9062ZM512.219 44.5312C512.219 48.8125 511.469 52.5625 509.969 55.7812C508.5 58.9688 506.469 61.625 503.875 63.75C501.312 65.875 498.297 67.4688 494.828 68.5312C491.391 69.5938 487.688 70.125 483.719 70.125C482.188 70.125 480.5 69.9219 478.656 69.5156C476.844 69.1094 475 68.6094 473.125 68.0156C471.25 67.3906 469.438 66.7344 467.688 66.0469C465.969 65.3281 464.438 64.6562 463.094 64.0312L465.156 44.7188C467.812 46.3125 470.75 47.5312 473.969 48.375C477.219 49.1875 480.406 49.5938 483.531 49.5938C484.125 49.5938 484.844 49.5781 485.688 49.5469C486.531 49.4844 487.328 49.3438 488.078 49.125C488.859 48.875 489.516 48.5156 490.047 48.0469C490.578 47.5781 490.844 46.9062 490.844 46.0312C490.844 45.4375 490.656 44.9375 490.281 44.5312C489.906 44.0938 489.422 43.75 488.828 43.5C488.234 43.2188 487.562 43.0156 486.812 42.8906C486.062 42.7344 485.328 42.625 484.609 42.5625C483.891 42.5 483.219 42.4688 482.594 42.4688C481.969 42.4688 481.469 42.4688 481.094 42.4688C478.406 42.4688 475.953 42 473.734 41.0625C471.547 40.125 469.656 38.8281 468.062 37.1719C466.5 35.4844 465.281 33.5 464.406 31.2188C463.531 28.9062 463.094 26.4062 463.094 23.7188C463.094 20.0312 463.828 16.7344 465.297 13.8281C466.797 10.8906 468.781 8.40625 471.25 6.375C473.75 4.3125 476.609 2.73437 479.828 1.64062C483.047 0.546875 486.375 0 489.812 0C491.344 0 492.922 0.0625 494.547 0.1875C496.172 0.28125 497.781 0.46875 499.375 0.75C501 1.03125 502.578 1.39063 504.109 1.82812C505.641 2.26562 507.094 2.8125 508.469 3.46875L506.688 22.5C504.562 21.7812 502.328 21.1875 499.984 20.7188C497.672 20.2187 495.406 19.9688 493.188 19.9688C492.781 19.9688 492.25 19.9844 491.594 20.0156C490.969 20.0156 490.297 20.0625 489.578 20.1562C488.891 20.2187 488.188 20.3281 487.469 20.4844C486.75 20.6406 486.109 20.8594 485.547 21.1406C484.984 21.3906 484.531 21.7344 484.188 22.1719C483.844 22.6094 483.688 23.125 483.719 23.7188C483.75 24.4062 484 24.9688 484.469 25.4062C484.969 25.8125 485.594 26.1406 486.344 26.3906C487.125 26.6094 487.969 26.7656 488.875 26.8594C489.812 26.9531 490.734 27.0156 491.641 27.0469C492.547 27.0469 493.391 27.0469 494.172 27.0469C494.953 27.0156 495.594 27.0312 496.094 27.0938C498.594 27.25 500.844 27.7812 502.844 28.6875C504.844 29.5938 506.531 30.7969 507.906 32.2969C509.312 33.7969 510.375 35.5938 511.094 37.6875C511.844 39.75 512.219 42.0312 512.219 44.5312ZM533.359 59.8125C533.359 61.1875 533.094 62.4688 532.562 63.6562C532.031 64.8438 531.312 65.8906 530.406 66.7969C529.531 67.6719 528.5 68.375 527.312 68.9062C526.125 69.4062 524.859 69.6562 523.516 69.6562C522.141 69.6562 520.859 69.4062 519.672 68.9062C518.484 68.375 517.438 67.6719 516.531 66.7969C515.656 65.8906 514.953 64.8438 514.422 63.6562C513.922 62.4688 513.672 61.1875 513.672 59.8125C513.672 58.4688 513.922 57.1875 514.422 55.9688C514.953 54.75 515.656 53.7031 516.531 52.8281C517.438 51.9219 518.484 51.2031 519.672 50.6719C520.859 50.1406 522.141 49.875 523.516 49.875C524.859 49.875 526.125 50.1406 527.312 50.6719C528.5 51.2031 529.531 51.9219 530.406 52.8281C531.312 53.7031 532.031 54.75 532.562 55.9688C533.094 57.1875 533.359 58.4688 533.359 59.8125ZM554.641 59.8125C554.641 61.1875 554.375 62.4688 553.844 63.6562C553.312 64.8438 552.594 65.8906 551.688 66.7969C550.812 67.6719 549.781 68.375 548.594 68.9062C547.406 69.4062 546.141 69.6562 544.797 69.6562C543.422 69.6562 542.141 69.4062 540.953 68.9062C539.766 68.375 538.719 67.6719 537.812 66.7969C536.938 65.8906 536.234 64.8438 535.703 63.6562C535.203 62.4688 534.953 61.1875 534.953 59.8125C534.953 58.4688 535.203 57.1875 535.703 55.9688C536.234 54.75 536.938 53.7031 537.812 52.8281C538.719 51.9219 539.766 51.2031 540.953 50.6719C542.141 50.1406 543.422 49.875 544.797 49.875C546.141 49.875 547.406 50.1406 548.594 50.6719C549.781 51.2031 550.812 51.9219 551.688 52.8281C552.594 53.7031 553.312 54.75 553.844 55.9688C554.375 57.1875 554.641 58.4688 554.641 59.8125ZM575.922 59.8125C575.922 61.1875 575.656 62.4688 575.125 63.6562C574.594 64.8438 573.875 65.8906 572.969 66.7969C572.094 67.6719 571.062 68.375 569.875 68.9062C568.688 69.4062 567.422 69.6562 566.078 69.6562C564.703 69.6562 563.422 69.4062 562.234 68.9062C561.047 68.375 560 67.6719 559.094 66.7969C558.219 65.8906 557.516 64.8438 556.984 63.6562C556.484 62.4688 556.234 61.1875 556.234 59.8125C556.234 58.4688 556.484 57.1875 556.984 55.9688C557.516 54.75 558.219 53.7031 559.094 52.8281C560 51.9219 561.047 51.2031 562.234 50.6719C563.422 50.1406 564.703 49.875 566.078 49.875C567.422 49.875 568.688 50.1406 569.875 50.6719C571.062 51.2031 572.094 51.9219 572.969 52.8281C573.875 53.7031 574.594 54.75 575.125 55.9688C575.656 57.1875 575.922 58.4688 575.922 59.8125Z" fill="url(#paint0_linear_229_209)"/>
</g>
<defs>
<filter id="filter0_d_229_209" x="0" y="0" width="579.922" height="81.625" filterUnits="userSpaceOnUse" color-interpolation-filters="sRGB">
<feFlood flood-opacity="0" result="BackgroundImageFix"/>
<feColorMatrix in="SourceAlpha" type="matrix" values="0 0 0 0 0 0 0 0 0 0 0 0 0 0 0 0 0 0 127 0" result="hardAlpha"/>
<feOffset dy="6"/>
<feGaussianBlur stdDeviation="2"/>
<feComposite in2="hardAlpha" operator="out"/>
<feColorMatrix type="matrix" values="0 0 0 0 0 0 0 0 0 0 0 0 0 0 0 0 0 0 0.25 0"/>
<feBlend mode="normal" in2="BackgroundImageFix" result="effect1_dropShadow_229_209"/>
<feBlend mode="normal" in="SourceGraphic" in2="effect1_dropShadow_229_209" result="shape"/>
</filter>
<linearGradient id="paint0_linear_229_209" x1="2.45312" y1="49.4688" x2="577.453" y2="49.4688" gradientUnits="userSpaceOnUse">
<stop offset="0.139423" stop-color="#09336F"/>
<stop offset="0.5" stop-color="#FF3E91"/>
<stop offset="0.908654" stop-color="#09336F"/>
</linearGradient>
</defs>
</svg>
